<svg width="16" height="18" viewBox="0 0 16 18" fill="none" xmlns="http://www.w3.org/2000/svg">
<path d="M3.83333 3.99984V1.49984C3.83333 1.27882 3.92113 1.06686 4.07741 0.910582C4.23369 0.754301 4.44565 0.666504 4.66667 0.666504H14.6667C14.8877 0.666504 15.0996 0.754301 15.2559 0.910582C15.4122 1.06686 15.5 1.27882 15.5 1.49984V13.1665C15.5 13.3875 15.4122 13.5995 15.2559 13.7558C15.0996 13.912 14.8877 13.9998 14.6667 13.9998H12.1667V16.4998C12.1667 16.9598 11.7917 17.3332 11.3275 17.3332H1.33917C1.22927 17.3338 1.12033 17.3128 1.0186 17.2712C0.916873 17.2296 0.824361 17.1684 0.746382 17.0909C0.668403 17.0135 0.606494 16.9214 0.564212 16.82C0.52193 16.7185 0.500108 16.6097 0.5 16.4998L0.5025 4.83317C0.5025 4.37317 0.8775 3.99984 1.34167 3.99984H3.83333ZM2.16917 5.6665L2.16667 15.6665H10.5V5.6665H2.16917ZM5.5 3.99984H12.1667V12.3332H13.8333V2.33317H5.5V3.99984Z" fill="#2E2E2E"/>
</svg>