<svg xmlns="http://www.w3.org/2000/svg" data-name="Layer 1" viewBox="0 0 32 32" width="256" height="256"><path d="M20,7.5A2.5,2.5,0,0,1,17.5,5V1.5H6A1.5,1.5,0,0,0,4.5,3V27A1.5,1.5,0,0,0,6,28.5H16.53a6.44,6.44,0,0,1-1-3.5A6.51,6.51,0,0,1,22,18.5a6.16,6.16,0,0,1,1.5.18V7.5Zm-6,12H8a.5.5,0,0,1,0-1h6a.5.5,0,0,1,0,1Zm6-4H8a.5.5,0,0,1,0-1H20a.5.5,0,0,1,0,1Zm0-4H8a.5.5,0,0,1,0-1H20a.5.5,0,0,1,0,1Z" fill="#ffffff" class="color000 svgShape"></path><path d="M23.85 19.82l-.14-.05A5.67 5.67 0 0 0 22 19.5a5.5 5.5 0 0 0-4.18 9.07l.06.07a5.5 5.5 0 1 0 6-8.82zM24 25.5H22.5V27a.5.5 0 0 1-1 0V25.5H19.88A.5.5 0 0 1 19.5 25a.5.5 0 0 1 .5-.5h1.5V23a.48.48 0 0 1 .37-.48l.13 0a.5.5 0 0 1 .5.5v1.5H24a.5.5 0 0 1 0 1zM22.79 6.5H20A1.5 1.5 0 0 1 18.5 5V2.21z" fill="#ffffff" class="color000 svgShape"></path></svg>