<svg width="20" height="20" viewBox="0 0 20 20" fill="none" xmlns="http://www.w3.org/2000/svg">
<g clip-path="url(#clip0_586_50967)">
<path d="M5.1415 15.0004C5.31367 14.5125 5.63295 14.0899 6.05534 13.7911C6.47772 13.4922 6.98241 13.3317 7.49984 13.3317C8.01726 13.3317 8.52195 13.4922 8.94434 13.7911C9.36672 14.0899 9.686 14.5125 9.85817 15.0004H18.3332V16.6671H9.85817C9.686 17.155 9.36672 17.5776 8.94434 17.8764C8.52195 18.1753 8.01726 18.3358 7.49984 18.3358C6.98241 18.3358 6.47772 18.1753 6.05534 17.8764C5.63295 17.5776 5.31367 17.155 5.1415 16.6671H1.6665V15.0004H5.1415ZM10.1415 9.16708C10.3137 8.67914 10.633 8.25661 11.0553 7.95774C11.4777 7.65887 11.9824 7.49837 12.4998 7.49837C13.0173 7.49837 13.522 7.65887 13.9443 7.95774C14.3667 8.25661 14.686 8.67914 14.8582 9.16708H18.3332V10.8337H14.8582C14.686 11.3217 14.3667 11.7442 13.9443 12.0431C13.522 12.342 13.0173 12.5025 12.4998 12.5025C11.9824 12.5025 11.4777 12.342 11.0553 12.0431C10.633 11.7442 10.3137 11.3217 10.1415 10.8337H1.6665V9.16708H10.1415ZM5.1415 3.33375C5.31367 2.8458 5.63295 2.42328 6.05534 2.12441C6.47772 1.82554 6.98241 1.66504 7.49984 1.66504C8.01726 1.66504 8.52195 1.82554 8.94434 2.12441C9.36672 2.42328 9.686 2.8458 9.85817 3.33375H18.3332V5.00041H9.85817C9.686 5.48836 9.36672 5.91089 8.94434 6.20976C8.52195 6.50863 8.01726 6.66912 7.49984 6.66912C6.98241 6.66912 6.47772 6.50863 6.05534 6.20976C5.63295 5.91089 5.31367 5.48836 5.1415 5.00041H1.6665V3.33375H5.1415ZM7.49984 5.00041C7.72085 5.00041 7.93281 4.91262 8.08909 4.75634C8.24537 4.60006 8.33317 4.38809 8.33317 4.16708C8.33317 3.94607 8.24537 3.73411 8.08909 3.57783C7.93281 3.42155 7.72085 3.33375 7.49984 3.33375C7.27882 3.33375 7.06686 3.42155 6.91058 3.57783C6.7543 3.73411 6.6665 3.94607 6.6665 4.16708C6.6665 4.38809 6.7543 4.60006 6.91058 4.75634C7.06686 4.91262 7.27882 5.00041 7.49984 5.00041ZM12.4998 10.8337C12.7209 10.8337 12.9328 10.746 13.0891 10.5897C13.2454 10.4334 13.3332 10.2214 13.3332 10.0004C13.3332 9.7794 13.2454 9.56744 13.0891 9.41116C12.9328 9.25488 12.7209 9.16708 12.4998 9.16708C12.2788 9.16708 12.0669 9.25488 11.9106 9.41116C11.7543 9.56744 11.6665 9.7794 11.6665 10.0004C11.6665 10.2214 11.7543 10.4334 11.9106 10.5897C12.0669 10.746 12.2788 10.8337 12.4998 10.8337ZM7.49984 16.6671C7.72085 16.6671 7.93281 16.5793 8.08909 16.423C8.24537 16.2667 8.33317 16.0548 8.33317 15.8337C8.33317 15.6127 8.24537 15.4008 8.08909 15.2445C7.93281 15.0882 7.72085 15.0004 7.49984 15.0004C7.27882 15.0004 7.06686 15.0882 6.91058 15.2445C6.7543 15.4008 6.6665 15.6127 6.6665 15.8337C6.6665 16.0548 6.7543 16.2667 6.91058 16.423C7.06686 16.5793 7.27882 16.6671 7.49984 16.6671Z" fill="#898989"/>
</g>
<defs>
<clipPath id="clip0_586_50967">
<rect width="20" height="20" fill="white"/>
</clipPath>
</defs>
</svg>
