<svg width="30" height="30" viewBox="0 0 30 30" fill="none" xmlns="http://www.w3.org/2000/svg">
<g clip-path="url(#clip0_2628_6056)">
<path d="M15.7031 22.0312H14.2969V22.9688H15.7031V22.0312Z" fill="#898989"/>
<path d="M25.0781 13.0857H24.5295C24.4942 11.5709 23.8688 10.1298 22.7866 9.06929C21.7045 8.00879 20.251 7.41272 18.7358 7.40803C18.0129 7.4063 17.2961 7.54163 16.6236 7.80686C15.7864 6.31257 14.4275 5.17952 12.8071 4.6246C11.1867 4.06968 9.41849 4.13188 7.84105 4.79929C6.26361 5.4667 4.98772 6.69243 4.25762 8.24185C3.52752 9.79127 3.39449 11.5555 3.88401 13.1969C2.69533 13.4577 1.64461 14.1478 0.933056 15.135C0.221505 16.1223 -0.100871 17.3373 0.0276596 18.5475C0.15619 19.7576 0.726594 20.8779 1.62965 21.6936C2.5327 22.5094 3.70493 22.9634 4.92188 22.9687V22.0312C3.89998 22.0264 2.9186 21.631 2.17884 20.926C1.43908 20.221 0.996952 19.2598 0.943068 18.2393C0.889184 17.2188 1.22762 16.2163 1.88902 15.4373C2.55042 14.6584 3.48471 14.1618 4.50042 14.0495C4.65429 14.2034 4.82495 14.3396 5.0092 14.4554C5.06136 14.4882 5.11947 14.5103 5.18021 14.5206C5.24094 14.5309 5.30311 14.5291 5.36315 14.5154C5.4232 14.5016 5.47994 14.4762 5.53015 14.4405C5.58035 14.4048 5.62303 14.3596 5.65574 14.3074C5.68844 14.2552 5.71054 14.197 5.72077 14.1363C5.731 14.0755 5.72915 14.0134 5.71534 13.9533C5.70153 13.8933 5.67602 13.8366 5.64027 13.7864C5.60452 13.7363 5.55924 13.6936 5.50701 13.661C5.20832 13.4666 4.96153 13.2023 4.78798 12.891C4.77966 12.8778 4.77067 12.865 4.76104 12.8527C4.33834 11.3985 4.47955 9.83837 5.15647 8.48367C5.8334 7.12898 6.99627 6.07936 8.413 5.54428C9.82973 5.0092 11.3961 5.02803 12.7996 5.59699C14.2031 6.16596 15.3404 7.24322 15.9845 8.61379C16.011 8.66994 16.0484 8.72026 16.0945 8.76183C16.1407 8.8034 16.1946 8.83539 16.2532 8.85596C16.3117 8.87652 16.3738 8.88523 16.4358 8.8816C16.4978 8.87796 16.5584 8.86204 16.6142 8.83478C17.2745 8.51105 18.0004 8.34365 18.7358 8.34554C20.0269 8.35014 21.2634 8.86664 22.1741 9.78175C23.0848 10.6969 23.5953 11.9358 23.5937 13.2269C23.5937 13.3275 23.5896 13.4272 23.5836 13.5263C23.5798 13.5901 23.5891 13.654 23.6109 13.7141C23.6326 13.7742 23.6665 13.8292 23.7103 13.8758C23.7541 13.9223 23.807 13.9594 23.8657 13.9847C23.9244 14.0101 23.9877 14.0232 24.0516 14.0232H25.0781C26.1366 14.0284 27.15 14.4526 27.8966 15.2029C28.6432 15.9532 29.0623 16.9687 29.0623 18.0272C29.0623 19.0857 28.6432 20.1011 27.8966 20.8514C27.15 21.6018 26.1366 22.0259 25.0781 22.0312V22.9687C26.3853 22.9634 27.6371 22.4405 28.5595 21.5143C29.4819 20.5882 29.9998 19.3343 29.9998 18.0272C29.9998 16.72 29.4819 15.4661 28.5595 14.54C27.6371 13.6139 26.3853 13.0909 25.0781 13.0857Z" fill="#898989"/>
<path d="M12.4219 19.2188H6.79688C6.27911 19.2188 5.85938 19.6385 5.85938 20.1562V23.4375C5.85938 23.9553 6.27911 24.375 6.79688 24.375H12.4219C12.9396 24.375 13.3594 23.9553 13.3594 23.4375V20.1562C13.3594 19.6385 12.9396 19.2188 12.4219 19.2188Z" fill="#898989"/>
<path d="M18.9844 24.8438C18.8601 24.8438 18.7408 24.8931 18.6529 24.981C18.565 25.069 18.5156 25.1882 18.5156 25.3125C18.5156 25.4368 18.565 25.556 18.6529 25.644C18.7408 25.7319 18.8601 25.7812 18.9844 25.7812H21.7969C21.9212 25.7812 22.0404 25.7319 22.1283 25.644C22.2162 25.556 22.2656 25.4368 22.2656 25.3125C22.2656 25.1882 22.2162 25.069 22.1283 24.981C22.0404 24.8931 21.9212 24.8438 21.7969 24.8438H18.9844Z" fill="#898989"/>
<path d="M23.2031 19.2188H17.5781C17.0604 19.2188 16.6406 19.6385 16.6406 20.1562V23.4375C16.6406 23.9553 17.0604 24.375 17.5781 24.375H23.2031C23.7209 24.375 24.1406 23.9553 24.1406 23.4375V20.1562C24.1406 19.6385 23.7209 19.2188 23.2031 19.2188Z" fill="#898989"/>
<path d="M17.8125 11.7188H12.1875C11.6697 11.7188 11.25 12.1385 11.25 12.6562V15.9375C11.25 16.4553 11.6697 16.875 12.1875 16.875H17.8125C18.3303 16.875 18.75 16.4553 18.75 15.9375V12.6562C18.75 12.1385 18.3303 11.7188 17.8125 11.7188Z" fill="#898989"/>
<path d="M16.875 17.8125C16.875 17.6882 16.8256 17.569 16.7377 17.4811C16.6498 17.3931 16.5306 17.3438 16.4062 17.3438H13.5938C13.4694 17.3438 13.3502 17.3931 13.2623 17.481C13.1744 17.569 13.125 17.6882 13.125 17.8125C13.125 17.9368 13.1744 18.056 13.2623 18.144C13.3502 18.2319 13.4694 18.2812 13.5938 18.2812H16.4062C16.5306 18.2812 16.6498 18.2319 16.7377 18.1439C16.8256 18.056 16.875 17.9368 16.875 17.8125Z" fill="#898989"/>
<path d="M6.33545 17.6598C6.32766 17.7575 6.32813 17.8125 6.32813 17.8125C6.32905 17.9362 6.37874 18.0545 6.46641 18.1418C6.55408 18.229 6.67263 18.2781 6.79631 18.2784H6.79688C6.92036 18.2785 7.03889 18.2299 7.12668 18.143C7.21446 18.0562 7.2644 17.9382 7.26563 17.8147C7.26575 17.8078 7.26643 17.7792 7.26998 17.7332C7.27972 17.6093 7.23984 17.4866 7.1591 17.3921C7.07836 17.2975 6.96338 17.239 6.83945 17.2292C6.71553 17.2195 6.59281 17.2594 6.49829 17.3401C6.40377 17.4208 6.3452 17.5358 6.33545 17.6598V17.6598Z" fill="#898989"/>
<path d="M8.1171 15.7081C8.22134 15.7082 8.32262 15.6734 8.4048 15.6093C8.45402 15.5709 8.50528 15.5333 8.55895 15.4968C8.66146 15.4266 8.73195 15.3187 8.75493 15.1966C8.77791 15.0746 8.75151 14.9484 8.68153 14.8458C8.61154 14.7431 8.50369 14.6725 8.38167 14.6493C8.25964 14.6262 8.13341 14.6524 8.03069 14.7222C7.96054 14.7702 7.89324 14.8193 7.82882 14.8695C7.75171 14.9295 7.69528 15.0121 7.66742 15.1058C7.63955 15.1994 7.64165 15.2994 7.67341 15.3918C7.70517 15.4842 7.76501 15.5644 7.84456 15.6211C7.92411 15.6778 8.0194 15.7082 8.1171 15.7081L8.1171 15.7081Z" fill="#898989"/>
<path d="M7.48919 15.8258C7.38103 15.7646 7.25297 15.7487 7.13315 15.7818C7.01333 15.8149 6.91154 15.8942 6.85015 16.0023C6.80804 16.0767 6.76924 16.1505 6.73377 16.2236C6.70684 16.279 6.69107 16.3391 6.68737 16.4005C6.68367 16.462 6.69211 16.5235 6.71221 16.5817C6.7323 16.6399 6.76366 16.6936 6.80449 16.7396C6.84532 16.7857 6.89482 16.8233 6.95017 16.8502C7.00553 16.8771 7.06564 16.8929 7.12708 16.8966C7.18852 16.9003 7.25009 16.8919 7.30828 16.8718C7.36646 16.8517 7.42011 16.8203 7.46618 16.7795C7.51224 16.7386 7.54981 16.6891 7.57674 16.6338C7.60386 16.5781 7.6335 16.5217 7.66566 16.4649C7.72698 16.3567 7.74283 16.2287 7.70974 16.1088C7.67665 15.989 7.59732 15.8872 7.48919 15.8258Z" fill="#898989"/>
<path d="M9.4949 15.0309C9.5382 15.0309 9.5813 15.0249 9.62296 15.013C9.65706 15.0033 9.69151 14.9942 9.72652 14.9851C9.78613 14.9697 9.84211 14.9428 9.89129 14.9057C9.94047 14.8687 9.98187 14.8223 10.0131 14.7693C10.0444 14.7163 10.0649 14.6576 10.0735 14.5967C10.0821 14.5357 10.0786 14.4737 10.0632 14.4141C10.0478 14.3545 10.0208 14.2985 9.98381 14.2493C9.94678 14.2001 9.90043 14.1587 9.8474 14.1275C9.79438 14.0962 9.73571 14.0757 9.67476 14.0671C9.6138 14.0585 9.55175 14.062 9.49215 14.0774C9.45003 14.0883 9.40826 14.0995 9.36729 14.111C9.25846 14.1419 9.16445 14.2111 9.10261 14.3058C9.04077 14.4005 9.01527 14.5144 9.03081 14.6265C9.04636 14.7385 9.1019 14.8412 9.18719 14.9155C9.27248 14.9899 9.38177 15.0308 9.4949 15.0309V15.0309Z" fill="#898989"/>
<path d="M22.4956 17.7332C22.4991 17.7787 22.4998 17.807 22.4999 17.8145C22.5005 17.938 22.55 18.0562 22.6375 18.1434C22.725 18.2305 22.8435 18.2795 22.967 18.2796H22.9687C23.0926 18.2792 23.2113 18.2299 23.2991 18.1424C23.3868 18.055 23.4366 17.9364 23.4374 17.8125C23.4374 17.8125 23.4379 17.7575 23.4301 17.6598C23.4253 17.5984 23.4084 17.5386 23.3805 17.4837C23.3525 17.4289 23.3141 17.3801 23.2673 17.3401C23.2205 17.3001 23.1663 17.2698 23.1077 17.2507C23.0492 17.2317 22.9875 17.2244 22.9261 17.2292C22.8647 17.234 22.8049 17.2509 22.7501 17.2789C22.6952 17.3068 22.6464 17.3453 22.6065 17.3921C22.5665 17.4389 22.5361 17.4931 22.5171 17.5516C22.4981 17.6101 22.4908 17.6719 22.4956 17.7332Z" fill="#898989"/>
<path d="M22.9152 16.0023C22.8536 15.8947 22.7519 15.8158 22.6323 15.783C22.5127 15.7502 22.3849 15.7662 22.277 15.8274C22.1692 15.8886 22.0899 15.99 22.0567 16.1095C22.0235 16.229 22.0389 16.3568 22.0997 16.4649C22.132 16.5217 22.1616 16.578 22.1886 16.6338C22.243 16.7456 22.3396 16.8312 22.4571 16.8718C22.5746 16.9124 22.7034 16.9046 22.8152 16.8502C22.927 16.7958 23.0126 16.6993 23.0532 16.5818C23.0938 16.4643 23.086 16.3354 23.0316 16.2237C22.996 16.1505 22.9572 16.0768 22.9152 16.0023Z" fill="#898989"/>
<path d="M21.9366 14.8693C21.8722 14.8191 21.8049 14.77 21.7348 14.722C21.632 14.6526 21.506 14.6267 21.3842 14.6499C21.2624 14.6732 21.1548 14.7438 21.0849 14.8462C21.015 14.9487 20.9886 15.0746 21.0114 15.1965C21.0342 15.3184 21.1043 15.4263 21.2065 15.4966C21.2602 15.5331 21.3114 15.5707 21.3607 15.6091C21.4092 15.6469 21.4648 15.6748 21.5241 15.6911C21.5835 15.7075 21.6455 15.712 21.7065 15.7044C21.7676 15.6968 21.8266 15.6772 21.8802 15.6468C21.9337 15.6164 21.9807 15.5758 22.0185 15.5272C22.0563 15.4786 22.0842 15.4231 22.1006 15.3637C22.1169 15.3044 22.1214 15.2424 22.1138 15.1813C22.1062 15.1202 22.0867 15.0612 22.0563 15.0077C22.0259 14.9542 21.9852 14.9071 21.9366 14.8693L21.9366 14.8693Z" fill="#898989"/>
<path d="M20.1426 15.0131C20.2019 15.0298 20.2638 15.0348 20.325 15.0276C20.3861 15.0205 20.4452 15.0014 20.499 14.9714C20.5527 14.9413 20.6001 14.901 20.6382 14.8527C20.6764 14.8044 20.7047 14.7491 20.7215 14.6899C20.7383 14.6306 20.7432 14.5687 20.7361 14.5075C20.7289 14.4464 20.7098 14.3873 20.6798 14.3335C20.6498 14.2798 20.6095 14.2325 20.5612 14.1943C20.5129 14.1561 20.4575 14.1278 20.3983 14.111C20.3573 14.0995 20.3156 14.0883 20.2734 14.0774C20.1531 14.0463 20.0253 14.0643 19.9182 14.1275C19.8111 14.1906 19.7335 14.2937 19.7024 14.4141C19.6713 14.5344 19.6893 14.6622 19.7525 14.7693C19.8156 14.8764 19.9187 14.954 20.0391 14.9851C20.0741 14.9942 20.1085 15.0033 20.1426 15.0131Z" fill="#898989"/>
<path d="M8.20312 24.8438C8.0788 24.8438 7.95958 24.8931 7.87167 24.981C7.78376 25.069 7.73438 25.1882 7.73438 25.3125C7.73438 25.4368 7.78376 25.556 7.87167 25.644C7.95958 25.7319 8.0788 25.7812 8.20312 25.7812H11.0156C11.1399 25.7812 11.2592 25.7319 11.3471 25.644C11.435 25.556 11.4844 25.4368 11.4844 25.3125C11.4844 25.1882 11.435 25.069 11.3471 24.981C11.2592 24.8931 11.1399 24.8438 11.0156 24.8438H8.20312Z" fill="#898989"/>
</g>
<defs>
<clipPath id="clip0_2628_6056">
<rect width="30" height="30" fill="white"/>
</clipPath>
</defs>
</svg>
