<svg width="60" height="60" viewBox="0 0 60 60" fill="none" xmlns="http://www.w3.org/2000/svg">
<path d="M13.5994 31.8207L4.25439 24.6465V35.3391L13.5994 42.5127V31.8207Z" fill="#2E2E2E" fill-opacity="0.8"/>
<path d="M13.8996 17L4.58936 24.1472L13.8996 31.2944L23.2104 24.1472L13.8996 17Z" fill="#2E2E2E" fill-opacity="0.8"/>
<path d="M14.1992 31.8207V42.5127L23.5448 35.3391V24.6465L14.1992 31.8207Z" fill="#2E2E2E" fill-opacity="0.8"/>
<path d="M55.8953 24.4042C55.8953 24.3112 55.8521 24.223 55.7783 24.1666L46.1327 16.7626C46.1273 16.7584 46.1207 16.7602 46.1153 16.7566C46.0673 16.7242 46.0127 16.7002 45.9503 16.7002C45.8879 16.7002 45.8333 16.7236 45.7853 16.7566C45.7799 16.7602 45.7727 16.7584 45.7679 16.7626L36.1229 24.1666C36.0491 24.2236 36.0059 24.3112 36.0059 24.4042V35.3386C36.0059 35.3452 36.0095 35.3512 36.0095 35.3578C36.0101 35.371 36.0119 35.383 36.0143 35.3956C36.0167 35.4088 36.0203 35.4208 36.0251 35.4334C36.0293 35.446 36.0335 35.458 36.0395 35.47C36.0449 35.4814 36.0521 35.4916 36.0593 35.5024C36.0629 35.5084 36.0641 35.515 36.0683 35.521C36.0719 35.5258 36.0773 35.527 36.0815 35.5318C36.0911 35.5426 36.1001 35.5522 36.1109 35.5618C36.1157 35.566 36.1181 35.572 36.1235 35.5762L45.7685 42.9808C45.7739 42.985 45.7805 42.9832 45.7859 42.9868C45.8339 43.0192 45.8885 43.0432 45.9509 43.0432C46.0133 43.0432 46.0679 43.0198 46.1159 42.9868C46.1213 42.9832 46.1285 42.985 46.1333 42.9808L55.7789 35.5762C55.7843 35.572 55.7867 35.566 55.7915 35.5618C55.8017 35.5528 55.8107 35.5438 55.8197 35.5336C55.8239 35.5288 55.8299 35.5264 55.8341 35.521C55.8383 35.515 55.8395 35.5084 55.8431 35.5024C55.8503 35.4916 55.8569 35.4814 55.8629 35.47C55.8689 35.458 55.8731 35.446 55.8773 35.4334C55.8815 35.4208 55.8851 35.4088 55.8881 35.3956C55.8905 35.383 55.8923 35.371 55.8929 35.3578C55.8935 35.3512 55.8965 35.3452 55.8965 35.3386V24.4042H55.8953ZM55.2953 34.7296L48.9659 29.8714L55.2953 25.0126V34.7296ZM48.4733 29.4934L46.2497 27.7864V17.6086L55.1027 24.4042L48.4733 29.4934ZM45.9497 31.4308L43.9187 29.8714L45.9497 28.3126L47.9807 29.8714L45.9497 31.4308ZM45.6497 17.6086V27.7864L43.4261 29.4934L36.7973 24.4042L45.6497 17.6086ZM42.9335 29.8714L36.6047 34.7296V25.0126L42.9335 29.8714ZM43.4261 30.2494L45.6497 31.9564V42.1342L36.7973 35.338L43.4261 30.2494ZM46.2497 31.9564L48.4733 30.2494L55.1027 35.338L46.2497 42.1348V31.9564Z" fill="#2E2E2E" fill-opacity="0.8"/>
<path d="M34.4 29.9187L30.6614 26.4111V29.2785H25.4546V30.8325H30.6614V33.6573L34.4 29.9187Z" fill="#2E2E2E" fill-opacity="0.8"/>
</svg>
