<svg width="44" height="44" viewBox="0 0 44 44" fill="none" xmlns="http://www.w3.org/2000/svg">
<path d="M9.97312 23.3353L3.12012 18.0742V25.9155L9.97312 31.1761V23.3353Z" fill="white"/>
<path d="M10.1932 12.4668L3.36572 17.7081L10.1932 22.9494L17.0211 17.7081L10.1932 12.4668Z" fill="white"/>
<path d="M10.4131 23.3353V31.1761L17.2665 25.9155V18.0742L10.4131 23.3353Z" fill="white"/>
<path d="M40.9899 17.8967C40.9899 17.8285 40.9582 17.7638 40.9041 17.7224L33.8306 12.2928C33.8267 12.2898 33.8218 12.2911 33.8179 12.2884C33.7827 12.2647 33.7426 12.2471 33.6969 12.2471C33.6511 12.2471 33.6111 12.2642 33.5759 12.2884C33.5719 12.2911 33.5666 12.2898 33.5631 12.2928L26.4901 17.7224C26.436 17.7642 26.4043 17.8285 26.4043 17.8967V25.9152C26.4043 25.9201 26.4069 25.9245 26.4069 25.9293C26.4074 25.939 26.4087 25.9478 26.4105 25.957C26.4122 25.9667 26.4149 25.9755 26.4184 25.9848C26.4215 25.994 26.4245 26.0028 26.4289 26.0116C26.4329 26.02 26.4382 26.0274 26.4435 26.0354C26.4461 26.0398 26.447 26.0446 26.4501 26.049C26.4527 26.0525 26.4567 26.0534 26.4597 26.0569C26.4668 26.0648 26.4734 26.0719 26.4813 26.0789C26.4848 26.082 26.4866 26.0864 26.4905 26.0895L33.5635 31.5195C33.5675 31.5226 33.5723 31.5213 33.5763 31.5239C33.6115 31.5477 33.6515 31.5653 33.6973 31.5653C33.7431 31.5653 33.7831 31.5481 33.8183 31.5239C33.8223 31.5213 33.8275 31.5226 33.8311 31.5195L40.9045 26.0895C40.9085 26.0864 40.9102 26.082 40.9137 26.0789C40.9212 26.0723 40.9278 26.0657 40.9344 26.0582C40.9375 26.0547 40.9419 26.0529 40.945 26.049C40.9481 26.0446 40.9489 26.0398 40.9516 26.0354C40.9569 26.0274 40.9617 26.02 40.9661 26.0116C40.9705 26.0028 40.9736 25.994 40.9767 25.9848C40.9797 25.9755 40.9824 25.9667 40.9846 25.957C40.9863 25.9478 40.9877 25.939 40.9881 25.9293C40.9885 25.9245 40.9907 25.9201 40.9907 25.9152V17.8967H40.9899ZM40.5499 25.4686L35.9083 21.906L40.5499 18.3428V25.4686ZM35.5471 21.6287L33.9164 20.377V12.9132L40.4086 17.8967L35.5471 21.6287ZM33.6964 23.0495L32.207 21.906L33.6964 20.7628L35.1858 21.906L33.6964 23.0495ZM33.4764 12.9132V20.377L31.8458 21.6287L26.9847 17.8967L33.4764 12.9132ZM31.4845 21.906L26.8434 25.4686V18.3428L31.4845 21.906ZM31.8458 22.1832L33.4764 23.435V30.8987L26.9847 25.9148L31.8458 22.1832ZM33.9164 23.435L35.5471 22.1832L40.4086 25.9148L33.9164 30.8991V23.435Z" fill="white"/>
<path d="M25.2265 21.9404L22.4848 19.3682V21.4709H18.6665V22.6105H22.4848V24.682L25.2265 21.9404Z" fill="white"/>
</svg>
