<svg width="20" height="20" viewBox="0 0 20 20" fill="none" xmlns="http://www.w3.org/2000/svg">
<g clip-path="url(#clip0_255_6973)">
<path d="M14.9999 14.858C14.512 14.6858 14.0895 14.3666 13.7906 13.9442C13.4917 13.5218 13.3312 13.0171 13.3312 12.4997C13.3312 11.9822 13.4917 11.4776 13.7906 11.0552C14.0895 10.6328 14.512 10.3135 14.9999 10.1413L14.9999 1.66634H16.6666V10.1413C17.1545 10.3135 17.5771 10.6328 17.8759 11.0552C18.1748 11.4776 18.3353 11.9822 18.3353 12.4997C18.3353 13.0171 18.1748 13.5218 17.8759 13.9442C17.5771 14.3666 17.1545 14.6858 16.6666 14.858V18.333H14.9999V14.858ZM9.16659 9.85801C8.67865 9.68584 8.25612 9.36656 7.95725 8.94417C7.65838 8.52179 7.49788 8.0171 7.49788 7.49967C7.49788 6.98225 7.65838 6.47756 7.95725 6.05517C8.25612 5.63279 8.67865 5.31351 9.16659 5.14134V1.66634H10.8333L10.8333 5.14134C11.3212 5.31351 11.7437 5.63279 12.0426 6.05517C12.3415 6.47756 12.502 6.98225 12.502 7.49967C12.502 8.0171 12.3415 8.52179 12.0426 8.94417C11.7437 9.36656 11.3212 9.68584 10.8333 9.85801V18.333H9.16659V9.85801ZM3.33326 14.858C2.84532 14.6858 2.42279 14.3666 2.12392 13.9442C1.82505 13.5218 1.66455 13.0171 1.66455 12.4997C1.66455 11.9822 1.82505 11.4776 2.12392 11.0552C2.42279 10.6328 2.84532 10.3135 3.33326 10.1413L3.33326 1.66634H4.99993L4.99993 10.1413C5.48787 10.3135 5.9104 10.6328 6.20927 11.0552C6.50814 11.4776 6.66864 11.9822 6.66864 12.4997C6.66864 13.0171 6.50814 13.5218 6.20927 13.9442C5.9104 14.3666 5.48787 14.6858 4.99993 14.858V18.333H3.33326V14.858ZM4.99993 12.4997C4.99993 12.2787 4.91213 12.0667 4.75585 11.9104C4.59957 11.7541 4.38761 11.6663 4.16659 11.6663C3.94558 11.6663 3.73362 11.7541 3.57734 11.9104C3.42106 12.0667 3.33326 12.2787 3.33326 12.4997C3.33326 12.7207 3.42106 12.9326 3.57734 13.0889C3.73362 13.2452 3.94558 13.333 4.16659 13.333C4.38761 13.333 4.59957 13.2452 4.75585 13.0889C4.91213 12.9326 4.99993 12.7207 4.99993 12.4997ZM10.8333 7.49967C10.8333 7.27866 10.7455 7.0667 10.5892 6.91042C10.4329 6.75414 10.2209 6.66634 9.99993 6.66634C9.77891 6.66634 9.56695 6.75414 9.41067 6.91042C9.25439 7.0667 9.16659 7.27866 9.16659 7.49967C9.16659 7.72069 9.25439 7.93265 9.41067 8.08893C9.56695 8.24521 9.77891 8.33301 9.99993 8.33301C10.2209 8.33301 10.4329 8.24521 10.5892 8.08893C10.7455 7.93265 10.8333 7.72069 10.8333 7.49967ZM16.6666 12.4997C16.6666 12.2787 16.5788 12.0667 16.4225 11.9104C16.2662 11.7541 16.0543 11.6663 15.8333 11.6663C15.6122 11.6663 15.4003 11.7541 15.244 11.9104C15.0877 12.0667 14.9999 12.2787 14.9999 12.4997C14.9999 12.7207 15.0877 12.9326 15.244 13.0889C15.4003 13.2452 15.6122 13.333 15.8333 13.333C16.0543 13.333 16.2662 13.2452 16.4225 13.0889C16.5788 12.9326 16.6666 12.7207 16.6666 12.4997Z" fill="#898989"/>
</g>
<defs>
<clipPath id="clip0_255_6973">
<rect width="20" height="20" fill="white" transform="translate(0 20) rotate(-90)"/>
</clipPath>
</defs>
</svg>
