<svg xmlns="http://www.w3.org/2000/svg" width="137" height="137" viewBox="2 2 80 100" fill="none">
<path fill-rule="evenodd" clip-rule="evenodd" d="M7.4043 8C6.0763 8 5 9.0763 5 10.4043V106.582C5 107.908 6.0763 108.986 7.4043 108.986H65.1113C66.4393 108.986 67.5156 107.908 67.5156 106.582V68.9238H62.7031V96.957C62.7031 98.283 61.6268 99.3613 60.2988 99.3613H12.2168C10.8888 99.3613 9.8125 98.283 9.8125 96.957V15.2168C9.8125 13.8888 10.8888 12.8145 12.2168 12.8145H60.2988C61.6268 12.8145 62.7031 13.8888 62.7031 15.2168V19.7285H67.5156V10.4043C67.5156 9.0763 66.4393 8 65.1113 8H7.4043Z" fill="white"/>
<path d="M40.6939 35.4654C40.6939 27.4078 46.992 20.8709 54.7584 20.8709C58.7668 20.8709 62.3758 22.6222 64.9383 25.4156L67.4249 22.8353C64.2266 19.3808 59.7387 17.2222 54.7584 17.2222C45.0483 17.2222 37.1778 25.3923 37.1778 35.4654C37.1778 40.6334 39.2579 45.2905 42.587 48.6108L45.0736 46.029C42.3802 43.3713 40.6939 39.6263 40.6939 35.4654Z" fill="white"/>
<path d="M54.5931 27.6056C56.7729 27.6056 58.7111 28.6005 60.067 30.155L62.6988 27.4242C60.6716 25.1761 57.7939 23.7615 54.5931 23.7615C48.4538 23.7615 43.4793 28.928 43.4793 35.2938C43.4793 38.6152 44.8411 41.6013 47.0075 43.7063L49.6393 40.9754C48.1411 39.567 47.1839 37.5542 47.1839 35.2938C47.1839 31.0499 50.5002 27.6056 54.5931 27.6056Z" fill="white"/>
<path d="M83.7956 23.7615H73.4838V28.2411H82.3266V34.2138H78.6822C78.3311 31.8889 76.406 30.1001 74.0709 30.1001C71.4882 30.1001 69.389 32.2801 69.389 34.9604C69.389 36.8164 67.933 38.3275 66.146 38.3275C64.4597 38.3275 63.0857 36.9807 62.9317 35.271V34.2138H57.7952C57.4614 32.5101 56.0111 31.2274 54.2716 31.2274C52.2847 31.2274 50.6747 32.8998 50.6747 34.9604C50.6747 37.021 52.2847 38.6933 54.2716 38.6933C56.0111 38.6933 57.4614 37.4107 57.7952 35.707H61.5361C61.8857 38.0319 63.8123 39.8207 66.1474 39.8207C68.7301 39.8207 70.8293 37.6406 70.8293 34.9604C70.8293 33.1044 72.2853 31.5933 74.0723 31.5933C75.8621 31.5933 77.3182 33.1044 77.3182 34.9604L77.3412 35.707H82.3266V64.0775H47.7957V54.9108H43.4793V65.6005C43.4793 67.2341 44.754 68.5555 46.3266 68.5555H83.7971C85.3682 68.5555 86.6444 67.2326 86.6444 65.6005V26.7165C86.643 25.0845 85.3668 23.7615 83.7956 23.7615Z" fill="white"/>
<path d="M58.6699 54.9273C58.6699 55.5908 58.5218 56.0956 58.2222 56.4417C57.9243 56.7878 57.5096 56.9592 56.9783 56.9592C56.4591 56.9592 56.0497 56.7862 55.7466 56.4369C55.4469 56.0909 55.2953 55.5861 55.2953 54.9273V48.6108H53.2466V54.9273C53.2466 56.0194 53.5915 56.8767 54.2814 57.4926C54.9713 58.1117 55.8703 58.4197 56.9783 58.4197C58.0915 58.4197 58.994 58.1133 59.6873 57.4958C60.3807 56.8814 60.7274 56.0242 60.7274 54.9273V48.6108H58.6699V54.9273V54.9273Z" fill="white"/>
<path d="M69.1622 48.6108V52.8502H65.7633V48.6108H63.7197V58.4197H65.7633V54.3316H69.1622V58.4197H71.2006V48.6108H69.1622Z" fill="white"/>
<path d="M80.1776 48.6108H74.1929V58.4197H76.2216V54.3187H79.5466V52.8357H76.2216V50.0985H80.1776V48.6108Z" fill="white"/>
<path d="M23.0098 96H18.8984V88.8613H23.0098V90.1016H20.4121V91.6689H22.8291V92.9092H20.4121V94.75H23.0098V96ZM29.4258 96H27.9365V92.8115C27.9365 92.4176 27.8665 92.123 27.7266 91.9277C27.5866 91.7292 27.3636 91.6299 27.0576 91.6299C26.641 91.6299 26.3398 91.7699 26.1543 92.0498C25.9688 92.3265 25.876 92.7871 25.876 93.4316V96H24.3867V90.541H25.5244L25.7246 91.2393H25.8076C25.9736 90.9756 26.2015 90.777 26.4912 90.6436C26.7842 90.5068 27.1162 90.4385 27.4873 90.4385C28.1221 90.4385 28.6038 90.611 28.9326 90.9561C29.2614 91.2979 29.4258 91.7926 29.4258 92.4404V96ZM33.1758 96.0977C31.4766 96.0977 30.627 95.165 30.627 93.2998C30.627 92.3721 30.8581 91.6641 31.3203 91.1758C31.7826 90.6842 32.445 90.4385 33.3076 90.4385C33.9391 90.4385 34.5055 90.5622 35.0068 90.8096L34.5674 91.9619C34.333 91.8675 34.1149 91.791 33.9131 91.7324C33.7113 91.6706 33.5094 91.6396 33.3076 91.6396C32.5329 91.6396 32.1455 92.1898 32.1455 93.29C32.1455 94.3577 32.5329 94.8916 33.3076 94.8916C33.5941 94.8916 33.8594 94.8542 34.1035 94.7793C34.3477 94.7012 34.5918 94.5807 34.8359 94.418V95.6924C34.5951 95.8454 34.3509 95.9512 34.1035 96.0098C33.8594 96.0684 33.5501 96.0977 33.1758 96.0977ZM37.292 93.2607C37.292 93.8011 37.3799 94.2096 37.5557 94.4863C37.7347 94.763 38.0244 94.9014 38.4248 94.9014C38.8219 94.9014 39.1068 94.7646 39.2793 94.4912C39.4551 94.2145 39.543 93.8044 39.543 93.2607C39.543 92.7204 39.4551 92.3151 39.2793 92.0449C39.1035 91.7747 38.8154 91.6396 38.415 91.6396C38.0179 91.6396 37.7314 91.7747 37.5557 92.0449C37.3799 92.3118 37.292 92.7171 37.292 93.2607ZM41.0664 93.2607C41.0664 94.1494 40.832 94.8444 40.3633 95.3457C39.8945 95.847 39.2419 96.0977 38.4053 96.0977C37.8812 96.0977 37.4189 95.9837 37.0186 95.7559C36.6182 95.5247 36.3105 95.1943 36.0957 94.7646C35.8809 94.335 35.7734 93.8337 35.7734 93.2607C35.7734 92.3688 36.0062 91.6755 36.4717 91.1807C36.9372 90.6859 37.5915 90.4385 38.4346 90.4385C38.9587 90.4385 39.4209 90.5524 39.8213 90.7803C40.2217 91.0081 40.5293 91.3353 40.7441 91.7617C40.959 92.1882 41.0664 92.6878 41.0664 93.2607ZM44.0254 96.0977C43.3841 96.0977 42.8796 95.8486 42.5117 95.3506C42.1471 94.8525 41.9648 94.1624 41.9648 93.2803C41.9648 92.3851 42.1504 91.6885 42.5215 91.1904C42.8958 90.6891 43.4102 90.4385 44.0645 90.4385C44.7513 90.4385 45.2754 90.7054 45.6367 91.2393H45.6855C45.6107 90.8324 45.5732 90.4694 45.5732 90.1504V88.4023H47.0674V96H45.9248L45.6367 95.292H45.5732C45.2347 95.8291 44.7188 96.0977 44.0254 96.0977ZM44.5479 94.9111C44.9287 94.9111 45.207 94.8005 45.3828 94.5791C45.5618 94.3577 45.6595 93.9818 45.6758 93.4512V93.29C45.6758 92.7041 45.5846 92.2842 45.4023 92.0303C45.2233 91.7764 44.9303 91.6494 44.5234 91.6494C44.1914 91.6494 43.9326 91.791 43.7471 92.0742C43.5648 92.3542 43.4736 92.7627 43.4736 93.2998C43.4736 93.8369 43.5664 94.2406 43.752 94.5107C43.9375 94.7777 44.2028 94.9111 44.5479 94.9111ZM50.8857 91.498C50.57 91.498 50.3226 91.599 50.1436 91.8008C49.9645 91.9993 49.862 92.2826 49.8359 92.6504H51.9258C51.9193 92.2826 51.8232 91.9993 51.6377 91.8008C51.4521 91.599 51.2015 91.498 50.8857 91.498ZM51.0957 96.0977C50.2168 96.0977 49.5299 95.8551 49.0352 95.3701C48.5404 94.8851 48.293 94.1982 48.293 93.3096C48.293 92.3949 48.5208 91.6885 48.9766 91.1904C49.4355 90.6891 50.0687 90.4385 50.876 90.4385C51.6475 90.4385 52.248 90.6582 52.6777 91.0977C53.1074 91.5371 53.3223 92.1442 53.3223 92.9189V93.6416H49.8018C49.818 94.0648 49.9434 94.3952 50.1777 94.6328C50.4121 94.8704 50.7409 94.9893 51.1641 94.9893C51.4928 94.9893 51.8037 94.9551 52.0967 94.8867C52.3896 94.8184 52.6956 94.7093 53.0146 94.5596V95.7119C52.7542 95.8421 52.4759 95.9382 52.1797 96C51.8835 96.0651 51.5221 96.0977 51.0957 96.0977Z" fill="white"/>
</svg>