<?xml version="1.0" encoding="UTF-8"?>
<svg enable-background="new 0 0 137 137" version="1.1" viewBox="0 0 137 137" xml:space="preserve" xmlns="http://www.w3.org/2000/svg" ><path d="m28.049 17.938c-1.328 0-2.4043 1.0763-2.4043 2.4043v96.178c0 1.326 1.0763 2.4043 2.4043 2.4043h57.707c1.328 0 2.4043-1.0783 2.4043-2.4043v-37.658h-4.8125v28.033c0 1.326-1.0763 2.4043-2.4043 2.4043h-48.082c-1.328 0-2.4043-1.0783-2.4043-2.4043v-81.74c0-1.328 1.0763-2.4023 2.4043-2.4023h48.082c1.328 0 2.4043 1.0743 2.4043 2.4023v4.5117h4.8125v-9.3242c0-1.328-1.0763-2.4043-2.4043-2.4043h-57.707z" clip-rule="evenodd" fill="#fff" fill-rule="evenodd"/><path d="m85.67 28.941a25.396 25.396 0 0 0-25.396 25.396 25.396 25.396 0 0 0 25.396 25.395 25.396 25.396 0 0 0 25.396-25.395 25.396 25.396 0 0 0-25.396-25.396zm0 4.8066a20.588 20.588 0 0 1 20.588 20.59 20.588 20.588 0 0 1-20.588 20.588 20.588 20.588 0 0 1-20.588-20.588 20.588 20.588 0 0 1 20.588-20.59z" clip-rule="evenodd" fill="#fff" fill-rule="evenodd"/><g clip-rule="evenodd" fill="#fff" fill-rule="evenodd"><path d="m85.67 73.002c-10.378 0-18.821-8.443-18.821-18.821s8.443-18.821 18.821-18.821c10.379 0 18.822 8.443 18.822 18.821s-8.443 18.821-18.822 18.821zm0-37.148c-10.104 0-18.326 8.221-18.326 18.326 0 10.104 8.222 18.326 18.326 18.326 10.105 0 18.326-8.222 18.326-18.326 0-10.105-8.221-18.326-18.326-18.326z"/></g><g clip-rule="evenodd" fill="#fff" fill-rule="evenodd"><path d="m82.27 66.604c-5.58-1.523-9.477-6.632-9.477-12.424 0-7.101 5.775-12.878 12.877-12.878s12.878 5.777 12.878 12.878c0 5.791-3.897 10.899-9.476 12.424l-0.131-0.478c5.364-1.466 9.111-6.377 9.111-11.946 0-6.827-5.555-12.382-12.383-12.382-6.827 0-12.383 5.555-12.383 12.382 0 5.569 3.748 10.481 9.113 11.946l-0.129 0.478z"/></g><g clip-rule="evenodd" fill="#fff" fill-rule="evenodd"><path d="m76.765 54c0.046-2 0.598-2.945 0.972-3.764 0.391-0.855-0.045-0.709-1.193-1.639-1.149-0.928-0.85-1.876-0.85-1.876l-0.145-0.092c-1.484 1.985-2.398 4.474-2.498 7.12l0.051 0.251h3.663z"/></g><g clip-rule="evenodd" fill="#fff" fill-rule="evenodd"><path d="m76.765 54c0.046 2 0.598 3.104 0.972 3.922 0.391 0.855-0.045 0.788-1.193 1.718-1.149 0.928-0.85 1.915-0.85 1.915l-0.145 0.111c-1.484-1.985-2.398-4.621-2.498-7.268l0.051-0.398h3.663z"/></g><g clip-rule="evenodd" fill="#fff" fill-rule="evenodd"><circle cx="85.67" cy="69.226" r="1.857"/></g><g clip-rule="evenodd" fill="#fff" fill-rule="evenodd"><path d="m88.818 66.525c-0.79-0.92-1.938-1.447-3.148-1.447s-2.357 0.527-3.147 1.447l-0.376-0.322c0.884-1.029 2.168-1.619 3.523-1.619s2.641 0.59 3.523 1.619l-0.375 0.322z"/></g><g clip-rule="evenodd" fill="#fff" fill-rule="evenodd"><path d="m85.67 71.515c-1.262 0-2.289-1.026-2.289-2.289s1.027-2.29 2.289-2.29c1.263 0 2.29 1.027 2.29 2.29s-1.027 2.289-2.29 2.289zm0-4.083c-0.988 0-1.794 0.805-1.794 1.794s0.806 1.794 1.794 1.794c0.989 0 1.795-0.805 1.795-1.794s-0.806-1.794-1.795-1.794z"/></g><g clip-rule="evenodd" fill="#fff" fill-rule="evenodd"><circle cx="98.301" cy="54.119" r="1.857"/></g><g clip-rule="evenodd" fill="#fff" fill-rule="evenodd"><path d="m85.756 69.963-0.172-1.476 0.086 0.738-0.087-0.738c0.03-3e-3 3.085-0.387 6.07-2.358 3.946-2.607 5.933-6.646 5.904-12.006l1.485-8e-3c0.04 7.371-3.58 11.295-6.623 13.287-3.274 2.146-6.525 2.545-6.663 2.561z"/></g><g clip-rule="evenodd" fill="#fff" fill-rule="evenodd"><path d="m40.729 47.362h4.497c3.323 0.679 2.198 5.803 2.423 9.572-0.209 0.097-0.337-0.221-0.462-0.346-1.138-1.137-2.523-2.423-3.688-3.572 0.096 0.397-0.129 0.973 0 1.438 0.104 0.39 0.916 0.977 1.27 1.326 1.311 1.314 2.607 2.74 3.922 3.866-0.365-4.019 0.929-10.131-1.158-12.285h1.906c1.174 0.249 1.885 0.96 2.134 2.134v8.708c-0.249 1.174-0.96 1.885-2.134 2.134h-4.497c-3.323-0.679-2.198-5.799-2.423-9.572 0.209-0.096 0.337 0.222 0.462 0.346 1.138 1.142 2.523 2.428 3.688 3.577-0.1-0.402 0.129-0.977 0-1.443-0.104-0.386-0.916-0.972-1.27-1.326-1.311-1.31-2.607-2.74-3.922-3.865 0.365 4.019-0.933 10.131 1.156 12.284h-1.904c-1.174-0.249-1.885-0.96-2.134-2.134v-8.708c0.249-1.174 0.96-1.885 2.134-2.134z"/></g></svg>
