<svg width="17" height="16" viewBox="0 0 17 16" fill="none" xmlns="http://www.w3.org/2000/svg">
<path d="M8.68467 2.16667H15.788C16.0074 2.16667 16.2178 2.25446 16.3729 2.41074C16.5281 2.56702 16.6153 2.77899 16.6153 3V14.6667C16.6153 14.8877 16.5281 15.0996 16.3729 15.2559C16.2178 15.4122 16.0074 15.5 15.788 15.5H0.896386C0.67697 15.5 0.46654 15.4122 0.31139 15.2559C0.156239 15.0996 0.0690765 14.8877 0.0690765 14.6667V1.33333C0.0690765 1.11232 0.156239 0.900358 0.31139 0.744078C0.46654 0.587797 0.67697 0.5 0.896386 0.5H7.03006L8.68467 2.16667ZM1.7237 2.16667V13.8333H14.9606V3.83333H7.99966L6.34504 2.16667H1.7237ZM9.16948 8.83333H11.6514L8.34217 12.1667L5.03293 8.83333H7.51486V5.5H9.16948V8.83333Z" fill="#2E2E2E" fill-opacity="0.8"/>
</svg>
