<svg xmlns="http://www.w3.org/2000/svg" viewBox="0 0 32 32" x="0px" y="0px" fill="#fff"><g data-name="Layer 43"><path d="M10.1455,14.3477h12a.5.5,0,0,0,0-1h-12a.5.5,0,0,0,0,1Z"/><path d="M22.19,17.335h-12a.5.5,0,0,0,0,1h12a.5.5,0,1,0,0-1Z"/><path d="M25.418,20.39V10.8644a.48.48,0,0,0-.1475-.3986l-7.999-7c-.0083-.0072-.02-.0066-.0286-.0132a.4888.4888,0,0,0-.1944-.0893,35.6,35.6,0,0,1-.1066-.0215H7.8906A1.45,1.45,0,0,0,6.4419,4.79V24.8926a1.4508,1.4508,0,0,0,1.4487,1.4492H20.7178a4.4886,4.4886,0,1,0,4.7-5.9518ZM17.4424,4.9434l6.168,5.3984h-5.72a.4491.4491,0,0,1-.4482-.4492ZM7.8906,25.3418a.4492.4492,0,0,1-.4487-.4492V4.79a.449.449,0,0,1,.4487-.4482h8.5513V9.8926a1.4508,1.4508,0,0,0,1.4487,1.4492h6.5742V20.39a4.4533,4.4533,0,0,0-2.4317,1.0465H10.1582a.5.5,0,0,0,0,1H21.1517a4.461,4.461,0,0,0-.71,2.4053,4.4115,4.4115,0,0,0,.05.5Zm17.0508,3a3.5,3.5,0,1,1,3.5-3.5A3.5042,3.5042,0,0,1,24.9414,28.3418Z"/><path d="M27.3525,24.1943l-1.9257-1.9179a.497.497,0,0,0-.1489-.0982c-.0046-.0021-.0066-.0073-.0113-.0093l-.0034,0a.4943.4943,0,0,0-.2527-.0255.4528.4528,0,0,0-.0622.0122.4827.4827,0,0,0-.2186.1163l-.007.0038-1.9786,1.9551a.5.5,0,1,0,.7032.7109l1.1289-1.1152.0058,3.2265a.5.5,0,0,0,.5.4991h.001a.5.5,0,0,0,.499-.501l-.0056-3.2143,1.0711,1.0668a.5.5,0,1,0,.705-.709Z"/></g></svg>