<svg width="495" height="493" viewBox="0 0 495 493" fill="none" xmlns="http://www.w3.org/2000/svg">
<path d="M74.76 50.72H422.472H425.64L427.848 52.928L441 66.08L443.208 68.288V71.456V419.168V422.336L441 424.544L427.848 437.696L425.64 439.904H422.472H74.76H71.592L69.384 437.696L56.232 424.544L54.024 422.336V419.168V71.456V68.288L56.232 66.08L69.384 52.928L71.592 50.72H74.76ZM419.304 66.08H77.928L69.288 74.72V416.096L77.928 424.736H419.304L427.944 416.096V74.72L419.304 66.08Z" fill="white"/>
<path d="M107.784 80.864C114.888 80.864 121.224 83.744 125.928 88.352C130.536 92.96 133.416 99.392 133.416 106.496C133.416 113.6 130.536 119.936 125.928 124.64C121.32 129.248 114.888 132.128 107.784 132.128C100.68 132.128 94.344 129.248 89.64 124.64C85.032 120.032 82.152 113.6 82.152 106.496C82.152 99.392 85.032 93.056 89.64 88.352C94.248 83.744 100.68 80.864 107.784 80.864ZM115.08 99.2C113.256 97.376 110.664 96.224 107.784 96.224C105 96.224 102.408 97.376 100.488 99.2C98.664 101.024 97.512 103.616 97.512 106.496C97.512 109.28 98.664 111.872 100.488 113.792C102.312 115.616 104.904 116.768 107.784 116.768C110.568 116.768 113.16 115.616 115.08 113.792C116.904 111.968 118.056 109.376 118.056 106.496C118.056 103.712 116.904 101.12 115.08 99.2Z" fill="white"/>
<path d="M133.992 8.47999C133.992 4.25599 130.536 0.799988 126.312 0.799988C122.088 0.799988 118.632 4.25599 118.632 8.47999V58.4C118.632 62.624 122.088 66.08 126.312 66.08C130.536 66.08 133.992 62.624 133.992 58.4V8.47999Z" fill="white"/>
<path d="M133.992 434.72C133.992 430.496 130.536 427.04 126.312 427.04C122.088 427.04 118.632 430.496 118.632 434.72V484.64C118.632 488.864 122.088 492.32 126.312 492.32C130.536 492.32 133.992 488.864 133.992 484.64V434.72Z" fill="white"/>
<path d="M192.264 8.47999C192.264 4.25599 188.808 0.799988 184.584 0.799988C180.36 0.799988 176.904 4.25599 176.904 8.47999V58.4C176.904 62.624 180.36 66.08 184.584 66.08C188.808 66.08 192.264 62.624 192.264 58.4V8.47999Z" fill="white"/>
<path d="M192.264 434.72C192.264 430.496 188.808 427.04 184.584 427.04C180.36 427.04 176.904 430.496 176.904 434.72V484.64C176.904 488.864 180.36 492.32 184.584 492.32C188.808 492.32 192.264 488.864 192.264 484.64V434.72Z" fill="white"/>
<path d="M250.536 8.47999C250.536 4.25599 247.08 0.799988 242.856 0.799988C238.632 0.799988 235.176 4.25599 235.176 8.47999V58.4C235.176 62.624 238.632 66.08 242.856 66.08C247.08 66.08 250.536 62.624 250.536 58.4V8.47999Z" fill="white"/>
<path d="M250.536 434.72C250.536 430.496 247.08 427.04 242.856 427.04C238.632 427.04 235.176 430.496 235.176 434.72V484.64C235.176 488.864 238.632 492.32 242.856 492.32C247.08 492.32 250.536 488.864 250.536 484.64V434.72Z" fill="white"/>
<path d="M308.808 8.47999C308.808 4.25599 305.352 0.799988 301.128 0.799988C296.904 0.799988 293.448 4.25599 293.448 8.47999V58.4C293.448 62.624 296.904 66.08 301.128 66.08C305.352 66.08 308.808 62.624 308.808 58.4V8.47999Z" fill="white"/>
<path d="M308.808 434.72C308.808 430.496 305.352 427.04 301.128 427.04C296.904 427.04 293.448 430.496 293.448 434.72V484.64C293.448 488.864 296.904 492.32 301.128 492.32C305.352 492.32 308.808 488.864 308.808 484.64V434.72Z" fill="white"/>
<path d="M367.08 8.47999C367.08 4.25599 363.624 0.799988 359.4 0.799988C355.176 0.799988 351.72 4.25599 351.72 8.47999V58.4C351.72 62.624 355.176 66.08 359.4 66.08C363.624 66.08 367.08 62.624 367.08 58.4V8.47999Z" fill="white"/>
<path d="M367.08 434.72C367.08 430.496 363.624 427.04 359.4 427.04C355.176 427.04 351.72 430.496 351.72 434.72V484.64C351.72 488.864 355.176 492.32 359.4 492.32C363.624 492.32 367.08 488.864 367.08 484.64V434.72Z" fill="white"/>
<path d="M58.152 136.256C62.376 136.256 65.832 132.8 65.832 128.576C65.832 124.352 62.376 120.896 58.152 120.896H8.232C4.008 120.896 0.552002 124.352 0.552002 128.576C0.552002 132.8 4.008 136.256 8.232 136.256H58.152Z" fill="white"/>
<path d="M58.152 194.528C62.376 194.528 65.832 191.072 65.832 186.848C65.832 182.624 62.376 179.168 58.152 179.168H8.232C4.008 179.168 0.552002 182.624 0.552002 186.848C0.552002 191.072 4.008 194.528 8.232 194.528H58.152Z" fill="white"/>
<path d="M58.152 252.8C62.376 252.8 65.832 249.344 65.832 245.12C65.832 240.896 62.376 237.44 58.152 237.44H8.232C4.008 237.44 0.552002 240.896 0.552002 245.12C0.552002 249.344 4.008 252.8 8.232 252.8H58.152Z" fill="white"/>
<path d="M58.152 311.072C62.376 311.072 65.832 307.616 65.832 303.392C65.832 299.168 62.376 295.712 58.152 295.712H8.232C4.008 295.712 0.552002 299.168 0.552002 303.392C0.552002 307.616 4.008 311.072 8.232 311.072H58.152Z" fill="white"/>
<path d="M58.152 369.344C62.376 369.344 65.832 365.888 65.832 361.664C65.832 357.44 62.376 353.984 58.152 353.984H8.232C4.008 353.984 0.552002 357.44 0.552002 361.664C0.552002 365.888 4.008 369.344 8.232 369.344H58.152Z" fill="white"/>
<path d="M486.888 136.256C491.112 136.256 494.568 132.8 494.568 128.576C494.568 124.352 491.112 120.896 486.888 120.896H436.968C432.744 120.896 429.288 124.352 429.288 128.576C429.288 132.8 432.744 136.256 436.968 136.256H486.888Z" fill="white"/>
<path d="M486.888 194.528C491.112 194.528 494.568 191.072 494.568 186.848C494.568 182.624 491.112 179.168 486.888 179.168H436.968C432.744 179.168 429.288 182.624 429.288 186.848C429.288 191.072 432.744 194.528 436.968 194.528H486.888Z" fill="white"/>
<path d="M486.888 252.8C491.112 252.8 494.568 249.344 494.568 245.12C494.568 240.896 491.112 237.44 486.888 237.44H436.968C432.744 237.44 429.288 240.896 429.288 245.12C429.288 249.344 432.744 252.8 436.968 252.8H486.888Z" fill="white"/>
<path d="M486.888 311.072C491.112 311.072 494.568 307.616 494.568 303.392C494.568 299.168 491.112 295.712 486.888 295.712H436.968C432.744 295.712 429.288 299.168 429.288 303.392C429.288 307.616 432.744 311.072 436.968 311.072H486.888Z" fill="white"/>
<path d="M486.888 369.344C491.112 369.344 494.568 365.888 494.568 361.664C494.568 357.44 491.112 353.984 486.888 353.984H436.968C432.744 353.984 429.288 357.44 429.288 361.664C429.288 365.888 432.744 369.344 436.968 369.344H486.888Z" fill="white"/>
<path d="M182.364 313.75C181.886 312.091 181.216 310.625 180.352 309.352C179.489 308.057 178.432 306.966 177.182 306.08C175.955 305.17 174.545 304.477 172.955 304C171.386 303.523 169.648 303.284 167.739 303.284C164.17 303.284 161.034 304.17 158.33 305.943C155.648 307.716 153.557 310.295 152.057 313.682C150.557 317.045 149.807 321.159 149.807 326.023C149.807 330.886 150.545 335.023 152.023 338.432C153.5 341.841 155.591 344.443 158.295 346.239C161 348.011 164.193 348.898 167.875 348.898C171.216 348.898 174.068 348.307 176.432 347.125C178.818 345.92 180.636 344.227 181.886 342.045C183.159 339.864 183.795 337.284 183.795 334.307L186.795 334.75H168.795V323.636H198.011V332.432C198.011 338.568 196.716 343.841 194.125 348.25C191.534 352.636 187.966 356.023 183.42 358.409C178.875 360.773 173.67 361.955 167.807 361.955C161.261 361.955 155.511 360.511 150.557 357.625C145.602 354.716 141.739 350.591 138.966 345.25C136.216 339.886 134.841 333.523 134.841 326.159C134.841 320.5 135.659 315.455 137.295 311.023C138.955 306.568 141.273 302.795 144.25 299.705C147.227 296.614 150.693 294.261 154.648 292.648C158.602 291.034 162.886 290.227 167.5 290.227C171.455 290.227 175.136 290.807 178.545 291.966C181.955 293.102 184.977 294.716 187.614 296.807C190.273 298.898 192.443 301.386 194.125 304.273C195.807 307.136 196.886 310.295 197.364 313.75H182.364ZM209.099 361V291.182H236.645C241.94 291.182 246.452 292.193 250.179 294.216C253.906 296.216 256.747 299 258.702 302.568C260.679 306.114 261.668 310.205 261.668 314.841C261.668 319.477 260.668 323.568 258.668 327.114C256.668 330.659 253.77 333.42 249.974 335.398C246.202 337.375 241.634 338.364 236.27 338.364H218.713V326.534H233.884C236.724 326.534 239.065 326.045 240.906 325.068C242.77 324.068 244.156 322.693 245.065 320.943C245.997 319.17 246.463 317.136 246.463 314.841C246.463 312.523 245.997 310.5 245.065 308.773C244.156 307.023 242.77 305.67 240.906 304.716C239.043 303.739 236.679 303.25 233.815 303.25H223.861V361H209.099ZM286.017 291.182V361H271.256V291.182H286.017ZM362.321 326.091C362.321 333.705 360.878 340.182 357.991 345.523C355.128 350.864 351.219 354.943 346.264 357.761C341.332 360.557 335.787 361.955 329.628 361.955C323.423 361.955 317.855 360.545 312.923 357.727C307.991 354.909 304.094 350.83 301.23 345.489C298.366 340.148 296.935 333.682 296.935 326.091C296.935 318.477 298.366 312 301.23 306.659C304.094 301.318 307.991 297.25 312.923 294.455C317.855 291.636 323.423 290.227 329.628 290.227C335.787 290.227 341.332 291.636 346.264 294.455C351.219 297.25 355.128 301.318 357.991 306.659C360.878 312 362.321 318.477 362.321 326.091ZM347.355 326.091C347.355 321.159 346.616 317 345.139 313.614C343.685 310.227 341.628 307.659 338.969 305.909C336.31 304.159 333.196 303.284 329.628 303.284C326.06 303.284 322.946 304.159 320.287 305.909C317.628 307.659 315.56 310.227 314.082 313.614C312.628 317 311.901 321.159 311.901 326.091C311.901 331.023 312.628 335.182 314.082 338.568C315.56 341.955 317.628 344.523 320.287 346.273C322.946 348.023 326.06 348.898 329.628 348.898C333.196 348.898 336.31 348.023 338.969 346.273C341.628 344.523 343.685 341.955 345.139 338.568C346.616 335.182 347.355 331.023 347.355 326.091Z" fill="white"/>
<g clip-path="url(#clip0_0_1)">
<path d="M352.439 202.691L341.662 216.9L321.46 167.162C320.459 164.705 318.288 163.184 315.779 163.184C313.738 163.184 311.151 164.276 310.007 167.357L292.379 214.989L268.043 101.122C267.237 97.339 264.299 96 262.037 96C259.398 96 256.473 97.703 255.888 101.512L234.711 239.065L213.157 148.481C212.286 144.815 209.374 143.515 207.138 143.515C204.967 143.515 202.276 144.711 201.249 148.052L182.36 209.841L168.45 176.951C167.436 174.546 165.265 173.064 162.782 173.064C160.78 173.064 158.96 174.052 157.777 175.781L141.436 199.246L140.305 200H101.5C97.912 200 95 202.912 95 206.5C95 210.088 97.912 213 101.5 213H144.192C146.168 213 148.04 212.038 149.21 210.322L161.534 192.733L177.654 230.81C178.681 233.241 180.787 234.697 183.283 234.697C186.026 234.697 188.353 232.903 189.198 230.147L206.41 173.831L229.992 273.008C230.876 276.687 233.658 278 235.972 278C238.611 278 241.536 276.297 242.121 272.475L262.986 136.95L284.735 238.74C285.489 242.276 288.336 243.875 290.806 243.875C293.432 243.875 295.564 242.315 296.539 239.702L316.039 187.065L334.577 232.695C335.578 235.152 337.762 236.673 340.271 236.673C342.247 236.673 344.067 235.698 345.237 233.995L360.135 213.416L361.266 212.818H400.604C404.14 212.818 407 209.958 407 206.422C407 202.886 404.14 200 400.604 200H357.418C355.455 200 353.596 201.001 352.439 202.691V202.691Z" fill="white"/>
</g>
<defs>
<clipPath id="clip0_0_1">
<rect width="312" height="312" fill="white" transform="translate(95 31)"/>
</clipPath>
</defs>
</svg>
