<?xml version="1.0" standalone="no"?>
<!DOCTYPE svg PUBLIC "-//W3C//DTD SVG 20010904//EN"
 "http://www.w3.org/TR/2001/REC-SVG-20010904/DTD/svg10.dtd">
<svg version="1.0" xmlns="http://www.w3.org/2000/svg"
 width="161.000000pt" height="160.000000pt" viewBox="0 0 161.000000 160.000000"
 preserveAspectRatio="xMidYMid meet">

<g transform="translate(0.000000,160.000000) scale(0.100000,-0.100000)"
fill="#FFFFFF" stroke="none">
<path d="M635 1224 c-115 -51 -213 -94 -216 -96 -12 -5 -39 -222 -30 -231 13
-13 18 1 30 88 6 44 15 83 19 87 4 4 19 -3 33 -15 15 -12 88 -74 164 -137
l137 -115 -6 -55 c-4 -30 -7 -64 -9 -75 -1 -12 4 -20 13 -20 10 0 17 16 22 50
13 93 8 88 140 145 68 29 143 61 168 72 25 10 57 25 72 33 15 7 30 10 32 6 3
-4 -4 -63 -15 -131 -32 -209 -35 -250 -15 -250 9 0 16 3 16 8 0 4 5 36 10 72
49 317 51 344 33 361 -73 69 -360 299 -372 298 -9 -1 -110 -43 -226 -95z m328
-21 c50 -43 100 -85 110 -95 11 -9 41 -34 68 -55 26 -21 47 -42 45 -47 -1 -5
-89 -47 -195 -93 -168 -73 -195 -83 -211 -71 -10 7 -86 69 -168 137 -137 114
-168 151 -127 151 11 0 77 27 150 60 75 34 212 89 223 90 8 0 55 -35 105 -77z"/>
<path d="M355 1244 c-67 -14 -129 -42 -157 -71 -27 -28 -32 -42 -36 -93 -4
-50 0 -69 22 -112 93 -189 407 -384 740 -459 130 -30 300 -29 376 1 118 47
156 128 112 236 -22 54 -107 164 -127 164 -25 0 -17 -19 26 -68 85 -97 108
-194 58 -248 -45 -49 -96 -67 -201 -72 -176 -8 -379 40 -568 135 -138 70 -205
117 -296 208 -64 64 -86 94 -103 141 -22 58 -22 59 -4 104 25 61 96 98 206
107 55 4 77 10 77 19 0 10 -14 14 -52 13 -29 -1 -62 -3 -73 -5z"/>
<path d="M347 699 c-4 -3 -7 -25 -6 -47 0 -40 3 -44 117 -138 64 -53 149 -124
188 -157 l71 -61 123 54 c132 58 153 72 128 81 -9 4 -59 -12 -111 -34 -107
-46 -120 -49 -113 -23 2 9 8 45 11 80 6 51 4 62 -8 62 -17 0 -22 -18 -32 -102
-4 -32 -9 -58 -12 -58 -3 0 -79 62 -170 138 l-165 137 6 38 c5 27 3 37 -7 37
-8 0 -17 -3 -20 -7z"/>
</g>
</svg>
