<svg width="22" height="18" viewBox="0 0 22 18" fill="none" xmlns="http://www.w3.org/2000/svg">
<path d="M11.0002 0C16.3922 0 20.8782 3.88 21.8192 9C20.8792 14.12 16.3922 18 11.0002 18C5.60815 18 1.12215 14.12 0.181152 9C1.12115 3.88 5.60815 0 11.0002 0ZM11.0002 16C13.0396 15.9996 15.0185 15.3068 16.613 14.0352C18.2075 12.7635 19.3231 10.9883 19.7772 9C19.3214 7.0133 18.2051 5.24 16.6108 3.97003C15.0165 2.70005 13.0385 2.00853 11.0002 2.00853C8.96185 2.00853 6.98384 2.70005 5.38953 3.97003C3.79521 5.24 2.67892 7.0133 2.22315 9C2.67725 10.9883 3.79283 12.7635 5.3873 14.0352C6.98177 15.3068 8.96068 15.9996 11.0002 16ZM11.0002 13.5C9.80668 13.5 8.66209 13.0259 7.81817 12.182C6.97426 11.3381 6.50015 10.1935 6.50015 9C6.50015 7.80653 6.97426 6.66193 7.81817 5.81802C8.66209 4.97411 9.80668 4.5 11.0002 4.5C12.1936 4.5 13.3382 4.97411 14.1821 5.81802C15.026 6.66193 15.5002 7.80653 15.5002 9C15.5002 10.1935 15.026 11.3381 14.1821 12.182C13.3382 13.0259 12.1936 13.5 11.0002 13.5ZM11.0002 11.5C11.6632 11.5 12.2991 11.2366 12.7679 10.7678C13.2368 10.2989 13.5002 9.66304 13.5002 9C13.5002 8.33696 13.2368 7.70107 12.7679 7.23223C12.2991 6.76339 11.6632 6.5 11.0002 6.5C10.3371 6.5 9.70123 6.76339 9.23239 7.23223C8.76355 7.70107 8.50015 8.33696 8.50015 9C8.50015 9.66304 8.76355 10.2989 9.23239 10.7678C9.70123 11.2366 10.3371 11.5 11.0002 11.5Z" fill="#227F99"/>
</svg>
