<svg width="29" height="29" viewBox="0 0 29 29" fill="none" xmlns="http://www.w3.org/2000/svg">
<path d="M9.69743 10.883L8.84193 12.3006C8.77328 12.4127 8.72823 12.5377 8.70953 12.6678C8.69083 12.798 8.69888 12.9306 8.73318 13.0575C8.76791 13.1873 8.82867 13.3086 8.91176 13.4141C8.99485 13.5196 9.09854 13.6071 9.21652 13.6713L9.54421 13.8473C9.51341 14.0636 9.49791 14.2818 9.49781 14.5003C9.49781 14.7163 9.51376 14.9353 9.52633 15.1586L9.217 15.3292C9.09902 15.3934 8.99533 15.4809 8.91224 15.5864C8.82915 15.6919 8.76839 15.8133 8.73366 15.943C8.69936 16.0698 8.69127 16.2023 8.70988 16.3324C8.7285 16.4624 8.77343 16.5873 8.84193 16.6994L9.6984 18.1175C9.83878 18.3418 10.0595 18.5039 10.3154 18.5708C10.5714 18.6378 10.8432 18.6044 11.0754 18.4776L11.3886 18.3051C11.4035 18.2995 11.4197 18.2982 11.4353 18.301C11.451 18.3039 11.4656 18.311 11.4775 18.3215C11.8188 18.5716 12.1902 18.7777 12.5829 18.9348C12.5997 18.9411 12.6148 18.9512 12.6269 18.9643V19.3065C12.6304 19.5731 12.7394 19.8275 12.9301 20.0138C13.1209 20.2001 13.3777 20.3031 13.6443 20.3003H15.3563C15.623 20.3032 15.88 20.2003 16.0708 20.0139C16.2616 19.8276 16.3708 19.5732 16.3742 19.3065V18.9682C16.385 18.9525 16.4009 18.9409 16.4191 18.9353C16.8115 18.7781 17.1826 18.5722 17.5236 18.3225C17.5356 18.3118 17.5502 18.3047 17.5659 18.3017C17.5817 18.2987 17.5979 18.3 17.613 18.3055L17.9262 18.4781C18.1584 18.6053 18.4304 18.6389 18.6865 18.5719C18.9426 18.5049 19.1635 18.3426 19.3037 18.118L20.1592 16.7004C20.2278 16.5883 20.2729 16.4633 20.2916 16.3332C20.3103 16.203 20.3022 16.0704 20.2679 15.9435C20.2332 15.8137 20.1724 15.6924 20.0894 15.5869C20.0063 15.4814 19.9026 15.3939 19.7846 15.3297L19.4569 15.1537C19.4876 14.9373 19.5029 14.7189 19.5028 14.5003C19.5028 14.2842 19.4869 14.0653 19.4743 13.842L19.7836 13.6713C19.9016 13.6071 20.0053 13.5196 20.0884 13.4141C20.1715 13.3086 20.2322 13.1873 20.267 13.0575C20.3013 12.9307 20.3094 12.7982 20.2907 12.6681C20.2721 12.5381 20.2272 12.4132 20.1587 12.3011L19.3022 10.883C19.162 10.6586 18.9413 10.4963 18.6853 10.4293C18.4293 10.3624 18.1573 10.3959 17.9252 10.5229L17.612 10.6955C17.5971 10.7011 17.5809 10.7025 17.5653 10.6996C17.5496 10.6967 17.535 10.6896 17.5231 10.679C17.1819 10.4289 16.8105 10.2229 16.4177 10.0657C16.4009 10.0594 16.3859 10.0493 16.3737 10.0362V9.69399C16.3703 9.42739 16.2612 9.17304 16.0705 8.98675C15.8798 8.80045 15.6229 8.69742 15.3563 8.70026H13.6443C13.3776 8.69729 13.1207 8.80026 12.9298 8.98658C12.739 9.17289 12.6299 9.42731 12.6264 9.69399V10.0323C12.6156 10.048 12.5997 10.0596 12.5815 10.0652C12.1891 10.2224 11.8181 10.4283 11.4771 10.6781C11.465 10.6886 11.4504 10.6958 11.4347 10.6987C11.4189 10.7017 11.4027 10.7004 11.3876 10.695L11.0744 10.5224C10.8422 10.3959 10.5704 10.3627 10.3145 10.4297C10.0586 10.4967 9.83789 10.6589 9.69743 10.883ZM10.5249 11.3832C10.5349 11.3717 10.5487 11.364 10.5637 11.3615C10.5788 11.3589 10.5943 11.3617 10.6075 11.3692L10.9207 11.5418C11.0972 11.6364 11.2969 11.6789 11.4966 11.6642C11.6962 11.6496 11.8876 11.5785 12.0484 11.4591C12.324 11.257 12.6239 11.0902 12.9411 10.9627C13.1303 10.8917 13.2937 10.7653 13.41 10.6001C13.5264 10.4348 13.5901 10.2383 13.5931 10.0362V9.69399C13.5931 9.68722 13.6105 9.66692 13.6443 9.66692H15.3563C15.3901 9.66692 15.4075 9.68722 15.4075 9.69399V10.0362C15.4105 10.2382 15.4743 10.4346 15.5905 10.5999C15.7067 10.7652 15.87 10.8916 16.0591 10.9627C16.3765 11.0902 16.6768 11.257 16.9527 11.4591C17.1134 11.5785 17.3047 11.6496 17.5043 11.6643C17.7039 11.6789 17.9035 11.6364 18.0799 11.5418L18.3931 11.3692C18.4063 11.3618 18.4216 11.3591 18.4365 11.3616C18.4515 11.3641 18.4651 11.3715 18.4752 11.3828L19.3162 12.8255L19.0074 12.9956C18.8327 13.0899 18.6906 13.2348 18.5997 13.4112C18.5089 13.5877 18.4736 13.7876 18.4984 13.9845C18.5487 14.3265 18.5487 14.674 18.4984 15.016C18.4736 15.2128 18.5088 15.4125 18.5996 15.5889C18.6903 15.7654 18.8323 15.9102 19.0069 16.0044L19.3312 16.1977L18.4757 17.6153C18.4655 17.6266 18.4518 17.6341 18.4368 17.6367C18.4218 17.6392 18.4064 17.6367 18.3931 17.6294L18.0799 17.4568C17.9034 17.3623 17.7037 17.3199 17.5041 17.3345C17.3044 17.3492 17.1131 17.4202 16.9523 17.5395C16.6766 17.7416 16.3767 17.9084 16.0595 18.0358C15.8703 18.1068 15.7069 18.2332 15.5906 18.3985C15.4743 18.5638 15.4105 18.7603 15.4075 18.9624V19.3046C15.4075 19.3114 15.3901 19.3317 15.3563 19.3317H13.6443C13.6105 19.3317 13.5931 19.3114 13.5931 19.3046V18.9624C13.5901 18.7604 13.5264 18.5639 13.4102 18.3987C13.2939 18.2334 13.1307 18.107 12.9416 18.0358C12.6241 17.9084 12.3239 17.7416 12.0479 17.5395C11.8638 17.4045 11.6415 17.3316 11.4133 17.3311C11.2411 17.3304 11.0715 17.3737 10.9207 17.4568L10.6075 17.6294C10.5943 17.6367 10.579 17.6393 10.5641 17.6369C10.5492 17.6344 10.5356 17.627 10.5254 17.6158L9.68438 16.1731L9.99323 16.0029C10.1679 15.9087 10.3101 15.7638 10.4009 15.5873C10.4917 15.4108 10.527 15.211 10.5022 15.014C10.4519 14.6721 10.4519 14.3246 10.5022 13.9826C10.5271 13.7858 10.4918 13.5861 10.401 13.4096C10.3103 13.2332 10.1683 13.0884 9.99372 12.9942L9.6694 12.8009L10.5249 11.3832Z" fill="white"/>
<path d="M14.5001 17.1585C15.0259 17.1585 15.5399 17.0026 15.977 16.7105C16.4142 16.4184 16.7549 16.0032 16.9561 15.5174C17.1573 15.0317 17.21 14.4972 17.1074 13.9815C17.0048 13.4659 16.7516 12.9922 16.3799 12.6204C16.0081 12.2486 15.5344 11.9954 15.0187 11.8929C14.5031 11.7903 13.9686 11.8429 13.4828 12.0442C12.9971 12.2454 12.5819 12.5861 12.2898 13.0232C11.9977 13.4604 11.8418 13.9744 11.8418 14.5001C11.8426 15.2049 12.1229 15.8806 12.6213 16.379C13.1196 16.8774 13.7953 17.1577 14.5001 17.1585ZM14.5001 12.8085C14.8347 12.8085 15.1618 12.9077 15.44 13.0936C15.7182 13.2794 15.935 13.5436 16.063 13.8528C16.1911 14.1619 16.2246 14.502 16.1593 14.8302C16.094 15.1583 15.9329 15.4597 15.6963 15.6963C15.4597 15.9329 15.1583 16.094 14.8302 16.1593C14.502 16.2246 14.1619 16.1911 13.8528 16.063C13.5436 15.935 13.2794 15.7182 13.0936 15.44C12.9077 15.1618 12.8085 14.8347 12.8085 14.5001C12.8085 14.0515 12.9867 13.6212 13.3039 13.3039C13.6212 12.9867 14.0515 12.8085 14.5001 12.8085Z" fill="white"/>
<path d="M0.483333 18.8498H5.31667C5.44485 18.8498 5.56779 18.7989 5.65843 18.7083C5.74908 18.6176 5.8 18.4947 5.8 18.3665V14.4998C5.8 14.1153 5.64723 13.7465 5.37531 13.4745C5.10338 13.2026 4.73456 13.0498 4.35 13.0498H4.16537C4.46342 12.7918 4.67548 12.4489 4.77311 12.0669C4.87074 11.685 4.84928 11.2823 4.7116 10.9129C4.57392 10.5435 4.32661 10.225 4.00281 10.0002C3.67902 9.7753 3.29422 9.65479 2.9 9.65479C2.50578 9.65479 2.12098 9.7753 1.79719 10.0002C1.47339 10.225 1.22608 10.5435 1.0884 10.9129C0.950725 11.2823 0.929263 11.685 1.02689 12.0669C1.12452 12.4489 1.33658 12.7918 1.63463 13.0498H1.45C1.06544 13.0498 0.696623 13.2026 0.424695 13.4745C0.152767 13.7465 0 14.1153 0 14.4998V18.3665C0 18.4947 0.0509225 18.6176 0.141565 18.7083C0.232208 18.7989 0.355145 18.8498 0.483333 18.8498ZM2.9 10.6332C3.09119 10.6332 3.27808 10.6899 3.43705 10.7961C3.59602 10.9023 3.71992 11.0533 3.79308 11.2299C3.86625 11.4065 3.88539 11.6009 3.84809 11.7884C3.81079 11.9759 3.71873 12.1482 3.58354 12.2834C3.44835 12.4186 3.2761 12.5106 3.08859 12.5479C2.90107 12.5852 2.70671 12.5661 2.53007 12.4929C2.35344 12.4198 2.20246 12.2959 2.09625 12.1369C1.99003 11.9779 1.93333 11.791 1.93333 11.5998C1.93333 11.3435 2.03518 11.0976 2.21646 10.9163C2.39775 10.735 2.64362 10.6332 2.9 10.6332ZM0.966667 14.4998C0.966667 14.3717 1.01759 14.2487 1.10823 14.1581C1.19887 14.0674 1.32181 14.0165 1.45 14.0165H4.35C4.47819 14.0165 4.60113 14.0674 4.69177 14.1581C4.78241 14.2487 4.83333 14.3717 4.83333 14.4998V17.8832H0.966667V14.4998Z" fill="white"/>
<path d="M27.5502 13.0498H27.3656C27.6636 12.7918 27.8757 12.4489 27.9733 12.0669C28.0709 11.685 28.0495 11.2823 27.9118 10.9129C27.7741 10.5435 27.5268 10.225 27.203 10.0002C26.8792 9.7753 26.4944 9.65479 26.1002 9.65479C25.706 9.65479 25.3212 9.7753 24.9974 10.0002C24.6736 10.225 24.4263 10.5435 24.2886 10.9129C24.1509 11.2823 24.1295 11.685 24.2271 12.0669C24.3247 12.4489 24.5368 12.7918 24.8348 13.0498H24.6502C24.2656 13.0498 23.8968 13.2026 23.6249 13.4745C23.353 13.7465 23.2002 14.1153 23.2002 14.4998V18.3665C23.2002 18.4947 23.2511 18.6176 23.3418 18.7083C23.4324 18.7989 23.5553 18.8498 23.6835 18.8498H28.5169C28.6451 18.8498 28.768 18.7989 28.8586 18.7083C28.9493 18.6176 29.0002 18.4947 29.0002 18.3665V14.4998C29.0002 14.1153 28.8474 13.7465 28.5755 13.4745C28.3036 13.2026 27.9348 13.0498 27.5502 13.0498ZM26.1002 10.6332C26.2914 10.6332 26.4783 10.6899 26.6372 10.7961C26.7962 10.9023 26.9201 11.0533 26.9933 11.2299C27.0664 11.4065 27.0856 11.6009 27.0483 11.7884C27.011 11.9759 26.9189 12.1482 26.7837 12.2834C26.6485 12.4186 26.4763 12.5106 26.2888 12.5479C26.1013 12.5852 25.9069 12.5661 25.7303 12.4929C25.5536 12.4198 25.4027 12.2959 25.2964 12.1369C25.1902 11.9779 25.1335 11.791 25.1335 11.5998C25.1335 11.3435 25.2354 11.0976 25.4167 10.9163C25.5979 10.735 25.8438 10.6332 26.1002 10.6332ZM28.0335 17.8832H24.1669V14.4998C24.1669 14.3717 24.2178 14.2487 24.3084 14.1581C24.3991 14.0674 24.522 14.0165 24.6502 14.0165H27.5502C27.6784 14.0165 27.8013 14.0674 27.892 14.1581C27.9826 14.2487 28.0335 14.3717 28.0335 14.4998V17.8832Z" fill="white"/>
<path d="M8.872 4.35819L8.61777 5.17164L9.53997 5.46164L10.1495 3.50317C10.1871 3.38139 10.1751 3.24968 10.116 3.13671C10.057 3.02373 9.95577 2.93865 9.83432 2.89997L7.87779 2.28662L7.58779 3.2093L8.45779 3.48094C6.52686 4.53864 4.90751 6.08482 3.76172 7.96482L4.58677 8.46845C5.63491 6.75021 7.11158 5.33383 8.872 4.35819Z" fill="white"/>
<path d="M20.1438 24.6305L20.4005 23.8006L19.4773 23.515L18.8717 25.4744C18.8529 25.5351 18.8463 25.5988 18.8522 25.662C18.858 25.7253 18.8763 25.7867 18.9059 25.8428C18.9356 25.899 18.976 25.9488 19.0248 25.9893C19.0737 26.0298 19.13 26.0603 19.1907 26.0791L21.1501 26.6842L21.4353 25.7606L20.5788 25.4962C22.6605 24.3377 24.3751 22.6182 25.5277 20.5333L24.6809 20.0674C23.6228 21.9811 22.0515 23.5615 20.1438 24.6305Z" fill="white"/>
<path d="M23.772 7.53957L22.8271 7.36026L22.6464 8.31001L24.6614 8.69136C24.6912 8.69712 24.7214 8.70004 24.7518 8.70006C24.8643 8.69999 24.9733 8.66066 25.06 8.58884C25.1466 8.51701 25.2055 8.4172 25.2264 8.30662L25.6077 6.29209L24.6585 6.11229L24.5048 6.91124C23.0946 5.05233 21.1976 3.61974 19.0238 2.77197L18.6758 3.67291C20.7012 4.46249 22.4662 5.8016 23.772 7.53957Z" fill="white"/>
<path d="M14.5001 5.8C15.0737 5.8 15.6343 5.62992 16.1113 5.31126C16.5882 4.99261 16.9599 4.53969 17.1793 4.00978C17.3988 3.47988 17.4563 2.89678 17.3444 2.33424C17.2325 1.77169 16.9563 1.25496 16.5507 0.849392C16.1451 0.443819 15.6284 0.167621 15.0659 0.055724C14.5033 -0.0561732 13.9202 0.00125653 13.3903 0.220751C12.8604 0.440245 12.4075 0.811945 12.0888 1.28885C11.7702 1.76575 11.6001 2.32644 11.6001 2.9C11.6009 3.66889 11.9066 4.40607 12.4503 4.94976C12.994 5.49345 13.7312 5.79923 14.5001 5.8ZM14.5001 0.966668C14.8825 0.966668 15.2563 1.08006 15.5742 1.29249C15.8921 1.50493 16.1399 1.80688 16.2863 2.16015C16.4326 2.51342 16.4709 2.90215 16.3963 3.27718C16.3217 3.65221 16.1376 3.99669 15.8672 4.26707C15.5968 4.53746 15.2523 4.72159 14.8773 4.79619C14.5022 4.87078 14.1135 4.8325 13.7602 4.68617C13.407 4.53984 13.105 4.29204 12.8926 3.9741C12.6802 3.65617 12.5668 3.28238 12.5668 2.9C12.5668 2.38725 12.7705 1.8955 13.133 1.53293C13.4956 1.17036 13.9873 0.966668 14.5001 0.966668Z" fill="white"/>
<path d="M17.4001 26.1002C17.4001 25.5266 17.23 24.9659 16.9114 24.489C16.5927 24.0121 16.1398 23.6404 15.6099 23.4209C15.08 23.2015 14.4969 23.144 13.9343 23.2559C13.3718 23.3678 12.8551 23.644 12.4495 24.0496C12.0439 24.4552 11.7677 24.9719 11.6558 25.5344C11.5439 26.097 11.6014 26.6801 11.8208 27.21C12.0403 27.7399 12.412 28.1928 12.8889 28.5115C13.3658 28.8301 13.9265 29.0002 14.5001 29.0002C15.269 28.9994 16.0062 28.6936 16.5499 28.15C17.0936 27.6063 17.3993 26.8691 17.4001 26.1002ZM14.5001 28.0335C14.1177 28.0335 13.7439 27.9201 13.426 27.7077C13.1081 27.4953 12.8603 27.1933 12.7139 26.8401C12.5676 26.4868 12.5293 26.0981 12.6039 25.723C12.6785 25.348 12.8626 25.0035 13.133 24.7331C13.4034 24.4627 13.7479 24.2786 14.1229 24.204C14.498 24.1294 14.8867 24.1677 15.24 24.314C15.5932 24.4604 15.8952 24.7082 16.1076 25.0261C16.32 25.344 16.4334 25.7178 16.4334 26.1002C16.4334 26.6129 16.2297 27.1047 15.8672 27.4673C15.5046 27.8298 15.0129 28.0335 14.5001 28.0335Z" fill="white"/>
<path d="M6.26092 20.6163L4.23479 20.2997C4.17204 20.2899 4.10799 20.2926 4.04628 20.3076C3.98458 20.3226 3.92644 20.3496 3.87518 20.3871C3.82392 20.4246 3.78054 20.4718 3.74754 20.5261C3.71453 20.5803 3.69254 20.6405 3.68282 20.7033L3.36865 22.7294L4.32372 22.8778L4.45422 22.0363C5.86804 23.9204 7.78085 25.3713 9.9763 26.2249L10.3233 25.323C8.28617 24.5312 6.5128 23.1824 5.2058 21.4307L6.11254 21.5718L6.26092 20.6163Z" fill="white"/>
</svg>
