<svg width="50" height="50" viewBox="0 0 50 50" fill="none" xmlns="http://www.w3.org/2000/svg">
<path d="M17.2367 19.1532L15.8539 21.4446C15.7429 21.6259 15.6701 21.8279 15.6399 22.0382C15.6097 22.2486 15.6227 22.4629 15.6781 22.6681C15.7343 22.8778 15.8325 23.0739 15.9668 23.2445C16.1011 23.415 16.2687 23.5565 16.4594 23.6603L16.9891 23.9446C16.9393 24.2943 16.9142 24.647 16.9141 25.0001C16.9141 25.3493 16.9398 25.7032 16.9602 26.0642L16.4602 26.3399C16.2695 26.4437 16.1019 26.5852 15.9676 26.7557C15.8333 26.9263 15.735 27.1224 15.6789 27.3321C15.6235 27.5371 15.6104 27.7513 15.6405 27.9615C15.6706 28.1717 15.7432 28.3736 15.8539 28.5548L17.2383 30.847C17.4652 31.2094 17.822 31.4715 18.2357 31.5797C18.6494 31.6879 19.0888 31.634 19.4641 31.429L19.9703 31.1501C19.9945 31.1412 20.0205 31.1389 20.0458 31.1436C20.0711 31.1483 20.0947 31.1597 20.1141 31.1767C20.6656 31.5809 21.2659 31.914 21.9008 32.1681C21.9279 32.1782 21.9522 32.1945 21.9719 32.2157V32.7689C21.9774 33.1998 22.1537 33.6109 22.462 33.912C22.7703 34.2132 23.1855 34.3797 23.6164 34.3751H26.3836C26.8147 34.3799 27.23 34.2135 27.5385 33.9123C27.847 33.6112 28.0234 33.1999 28.0289 32.7689V32.222C28.0464 32.1966 28.072 32.1779 28.1016 32.1689C28.7358 31.9147 29.3355 31.5819 29.8867 31.1782C29.9061 31.1611 29.9298 31.1495 29.9552 31.1447C29.9807 31.1399 30.0069 31.142 30.0313 31.1509L30.5375 31.4298C30.9128 31.6354 31.3525 31.6896 31.7665 31.5814C32.1805 31.4732 32.5374 31.2107 32.7641 30.8478L34.1469 28.5564C34.2578 28.3751 34.3307 28.1731 34.3609 27.9628C34.3911 27.7524 34.3781 27.5381 34.3227 27.3329C34.2665 27.1232 34.1683 26.9271 34.034 26.7565C33.8997 26.586 33.7321 26.4445 33.5414 26.3407L33.0117 26.0564C33.0613 25.7065 33.0861 25.3535 33.0859 25.0001C33.0859 24.6509 33.0602 24.297 33.0399 23.936L33.5399 23.6603C33.7305 23.5565 33.8981 23.415 34.0324 23.2445C34.1668 23.0739 34.265 22.8778 34.3211 22.6681C34.3765 22.4631 34.3896 22.2489 34.3595 22.0387C34.3294 21.8285 34.2568 21.6266 34.1461 21.4454L32.7617 19.1532C32.5351 18.7905 32.1783 18.5281 31.7645 18.4199C31.3507 18.3117 30.9111 18.3658 30.5359 18.5712L30.0297 18.8501C30.0056 18.8592 29.9795 18.8615 29.9541 18.8568C29.9288 18.8522 29.9052 18.8406 29.8859 18.8235C29.3344 18.4193 28.7341 18.0862 28.0992 17.8321C28.0721 17.822 28.0478 17.8057 28.0281 17.7845V17.2314C28.0226 16.8004 27.8463 16.3893 27.538 16.0882C27.2297 15.7871 26.8145 15.6205 26.3836 15.6251H23.6164C23.1853 15.6203 22.77 15.7867 22.4615 16.0879C22.153 16.389 21.9767 16.8003 21.9711 17.2314V17.7782C21.9536 17.8036 21.928 17.8224 21.8984 17.8314C21.2642 18.0855 20.6645 18.4183 20.1133 18.822C20.0939 18.8391 20.0702 18.8506 20.0448 18.8554C20.0193 18.8602 19.9931 18.8581 19.9688 18.8493L19.4625 18.5704C19.087 18.3659 18.6477 18.3123 18.2341 18.4206C17.8205 18.5289 17.4638 18.7909 17.2367 19.1532ZM18.5742 19.9618C18.5905 19.9432 18.6126 19.9308 18.637 19.9267C18.6613 19.9225 18.6864 19.9269 18.7078 19.9392L19.2141 20.2181C19.4992 20.371 19.8221 20.4397 20.1448 20.416C20.4675 20.3924 20.7769 20.2774 21.0367 20.0845C21.4823 19.7577 21.967 19.4882 22.4797 19.2821C22.7855 19.1674 23.0497 18.9631 23.2377 18.6959C23.4257 18.4287 23.5288 18.1111 23.5336 17.7845V17.2314C23.5336 17.2204 23.5617 17.1876 23.6164 17.1876H26.3836C26.4383 17.1876 26.4664 17.2204 26.4664 17.2314V17.7845C26.4712 18.111 26.5743 18.4285 26.7621 18.6956C26.95 18.9628 27.2139 19.1671 27.5195 19.2821C28.0327 19.4882 28.518 19.7577 28.9641 20.0845C29.2237 20.2774 29.533 20.3924 29.8556 20.4161C30.1782 20.4397 30.5009 20.371 30.7859 20.2181L31.2922 19.9392C31.3135 19.9272 31.3383 19.9229 31.3624 19.9268C31.3866 19.9308 31.4086 19.9429 31.425 19.961L32.7844 22.2931L32.2852 22.5681C32.0028 22.7204 31.773 22.9546 31.6262 23.2399C31.4794 23.5251 31.4223 23.8482 31.4625 24.1665C31.5438 24.7193 31.5438 25.2809 31.4625 25.8337C31.4223 26.1518 31.4793 26.4747 31.626 26.7598C31.7727 27.045 32.0022 27.2791 32.2844 27.4314L32.8086 27.7439L31.4258 30.0353C31.4093 30.0535 31.3872 30.0657 31.3629 30.0698C31.3387 30.0739 31.3138 30.0697 31.2922 30.0579L30.7859 29.779C30.5007 29.6262 30.1779 29.5577 29.8552 29.5813C29.5325 29.605 29.2232 29.7199 28.9633 29.9126C28.5177 30.2393 28.033 30.5089 27.5203 30.7149C27.2145 30.8297 26.9503 31.034 26.7623 31.3012C26.5743 31.5683 26.4712 31.886 26.4664 32.2126V32.7657C26.4664 32.7767 26.4383 32.8095 26.3836 32.8095H23.6164C23.5617 32.8095 23.5336 32.7767 23.5336 32.7657V32.2126C23.5288 31.8861 23.4257 31.5686 23.2379 31.3014C23.0501 31.0343 22.7861 30.8299 22.4805 30.7149C21.9673 30.5089 21.482 30.2394 21.0359 29.9126C20.7383 29.6945 20.3791 29.5766 20.0102 29.5759C19.7318 29.5747 19.4578 29.6447 19.2141 29.779L18.7078 30.0579C18.6864 30.0697 18.6617 30.074 18.6376 30.07C18.6135 30.0661 18.5915 30.0541 18.575 30.036L17.2156 27.704L17.7148 27.429C17.9973 27.2767 18.227 27.0425 18.3738 26.7572C18.5206 26.4719 18.5777 26.1489 18.5375 25.8306C18.4563 25.2778 18.4563 24.7161 18.5375 24.1634C18.5777 23.8453 18.5207 23.5224 18.374 23.2373C18.2273 22.9521 17.9978 22.718 17.7156 22.5657L17.1914 22.2532L18.5742 19.9618Z" fill="#2E2E2E" fill-opacity="0.8"/>
<path d="M25 29.2969C25.8498 29.2969 26.6806 29.0449 27.3872 28.5727C28.0938 28.1006 28.6446 27.4295 28.9698 26.6443C29.295 25.8592 29.3801 24.9952 29.2143 24.1617C29.0485 23.3282 28.6393 22.5626 28.0383 21.9617C27.4374 21.3607 26.6718 20.9515 25.8383 20.7857C25.0048 20.6199 24.1408 20.705 23.3557 21.0302C22.5705 21.3554 21.8994 21.9062 21.4273 22.6128C20.9551 23.3194 20.7031 24.1502 20.7031 25C20.7044 26.1392 21.1575 27.2314 21.963 28.037C22.7686 28.8425 23.8608 29.2956 25 29.2969ZM25 22.2656C25.5408 22.2656 26.0695 22.426 26.5191 22.7265C26.9688 23.0269 27.3193 23.454 27.5262 23.9536C27.7332 24.4532 27.7873 25.003 27.6818 25.5335C27.5763 26.0639 27.3159 26.5511 26.9335 26.9335C26.5511 27.3159 26.0639 27.5763 25.5334 27.6818C25.003 27.7873 24.4532 27.7332 23.9536 27.5262C23.454 27.3193 23.0269 26.9688 22.7265 26.5191C22.426 26.0695 22.2656 25.5408 22.2656 25C22.2656 24.2748 22.5537 23.5793 23.0665 23.0665C23.5793 22.5537 24.2748 22.2656 25 22.2656Z" fill="#2E2E2E" fill-opacity="0.8"/>
<path d="M2.34375 32.0312H10.1562C10.3635 32.0312 10.5622 31.9488 10.7087 31.8023C10.8552 31.6558 10.9375 31.4571 10.9375 31.2499V24.9999C10.9375 24.3783 10.6906 23.7822 10.251 23.3426C9.81149 22.9031 9.21535 22.6562 8.59375 22.6562H8.29531C8.77708 22.2391 9.11985 21.6847 9.27765 21.0674C9.43546 20.45 9.40077 19.7992 9.17823 19.2021C8.95569 18.605 8.55594 18.0902 8.03256 17.7267C7.50919 17.3633 6.88721 17.1685 6.25 17.1685C5.61279 17.1685 4.99081 17.3633 4.46744 17.7267C3.94406 18.0902 3.54431 18.605 3.32177 19.2021C3.09923 19.7992 3.06454 20.45 3.22235 21.0674C3.38015 21.6847 3.72292 22.2391 4.20469 22.6562H3.90625C3.28465 22.6562 2.68851 22.9031 2.24897 23.3426C1.80943 23.7822 1.5625 24.3783 1.5625 24.9999V31.2499C1.5625 31.4571 1.64481 31.6558 1.79132 31.8023C1.93784 31.9488 2.13655 32.0312 2.34375 32.0312ZM6.25 18.7499C6.55903 18.7499 6.86113 18.8415 7.11808 19.0132C7.37503 19.1849 7.5753 19.4289 7.69356 19.7145C7.81182 20 7.84277 20.3141 7.78248 20.6172C7.72219 20.9203 7.57337 21.1987 7.35485 21.4173C7.13633 21.6358 6.85792 21.7846 6.55483 21.8449C6.25173 21.9052 5.93757 21.8742 5.65206 21.756C5.36655 21.6377 5.12252 21.4374 4.95083 21.1805C4.77914 20.9235 4.6875 20.6214 4.6875 20.3124C4.6875 19.898 4.85212 19.5006 5.14515 19.2075C5.43817 18.9145 5.8356 18.7499 6.25 18.7499ZM3.125 24.9999C3.125 24.7927 3.20731 24.594 3.35382 24.4475C3.50034 24.301 3.69905 24.2187 3.90625 24.2187H8.59375C8.80095 24.2187 8.99966 24.301 9.14618 24.4475C9.29269 24.594 9.375 24.7927 9.375 24.9999V30.4687H3.125V24.9999Z" fill="#2E2E2E" fill-opacity="0.8"/>
<path d="M46.0938 22.6562H45.7953C46.2771 22.2391 46.6198 21.6847 46.7777 21.0674C46.9355 20.45 46.9008 19.7992 46.6782 19.2021C46.4557 18.605 46.0559 18.0902 45.5326 17.7267C45.0092 17.3633 44.3872 17.1685 43.75 17.1685C43.1128 17.1685 42.4908 17.3633 41.9674 17.7267C41.4441 18.0902 41.0443 18.605 40.8218 19.2021C40.5992 19.7992 40.5645 20.45 40.7223 21.0674C40.8802 21.6847 41.2229 22.2391 41.7047 22.6562H41.4062C40.7846 22.6562 40.1885 22.9031 39.749 23.3426C39.3094 23.7822 39.0625 24.3783 39.0625 24.9999V31.2499C39.0625 31.4571 39.1448 31.6558 39.2913 31.8023C39.4378 31.9488 39.6365 32.0312 39.8438 32.0312H47.6562C47.8635 32.0312 48.0622 31.9488 48.2087 31.8023C48.3552 31.6558 48.4375 31.4571 48.4375 31.2499V24.9999C48.4375 24.3783 48.1906 23.7822 47.751 23.3426C47.3115 22.9031 46.7154 22.6562 46.0938 22.6562ZM43.75 18.7499C44.059 18.7499 44.3611 18.8415 44.6181 19.0132C44.875 19.1849 45.0753 19.4289 45.1936 19.7145C45.3118 20 45.3428 20.3141 45.2825 20.6172C45.2222 20.9203 45.0734 21.1987 44.8549 21.4173C44.6363 21.6358 44.3579 21.7846 44.0548 21.8449C43.7517 21.9052 43.4376 21.8742 43.1521 21.756C42.8665 21.6377 42.6225 21.4374 42.4508 21.1805C42.2791 20.9235 42.1875 20.6214 42.1875 20.3124C42.1875 19.898 42.3521 19.5006 42.6451 19.2075C42.9382 18.9145 43.3356 18.7499 43.75 18.7499ZM46.875 30.4687H40.625V24.9999C40.625 24.7927 40.7073 24.594 40.8538 24.4475C41.0003 24.301 41.199 24.2187 41.4062 24.2187H46.0938C46.301 24.2187 46.4997 24.301 46.6462 24.4475C46.7927 24.594 46.875 24.7927 46.875 24.9999V30.4687Z" fill="#2E2E2E" fill-opacity="0.8"/>
<path d="M15.9037 8.60723L15.4928 9.92207L16.9834 10.3908L17.9686 7.2252C18.0294 7.02835 18.01 6.81545 17.9146 6.63285C17.8192 6.45024 17.6555 6.31271 17.4592 6.2502L14.2967 5.25879L13.8279 6.7502L15.2342 7.18926C12.1131 8.89891 9.49558 11.3981 7.64355 14.4369L8.97715 15.251C10.6713 12.4736 13.0582 10.1842 15.9037 8.60723Z" fill="#2E2E2E" fill-opacity="0.8"/>
<path d="M34.1224 41.3743L34.5373 40.0329L33.0451 39.5712L32.0662 42.7384C32.0358 42.8364 32.0251 42.9395 32.0346 43.0416C32.0441 43.1438 32.0736 43.2431 32.1215 43.3339C32.1694 43.4246 32.2347 43.5051 32.3137 43.5706C32.3926 43.6361 32.4838 43.6854 32.5818 43.7157L35.749 44.6938L36.2099 43.2009L34.8255 42.7735C38.1902 40.901 40.9618 38.1216 42.8248 34.7517L41.456 33.9985C39.7458 37.0919 37.2059 39.6464 34.1224 41.3743Z" fill="#2E2E2E" fill-opacity="0.8"/>
<path d="M39.9875 13.7502L38.4602 13.4604L38.168 14.9955L41.425 15.6119C41.4731 15.6212 41.5221 15.6259 41.5711 15.626C41.753 15.6259 41.9292 15.5623 42.0692 15.4462C42.2093 15.3301 42.3044 15.1688 42.3383 14.99L42.9547 11.7338L41.4203 11.4432L41.1719 12.7346C38.8924 9.72986 35.8262 7.41426 32.3125 6.04395L31.75 7.5002C35.0239 8.77646 37.8767 10.941 39.9875 13.7502Z" fill="#2E2E2E" fill-opacity="0.8"/>
<path d="M25 10.9375C25.9271 10.9375 26.8334 10.6626 27.6042 10.1475C28.3751 9.63245 28.9759 8.90036 29.3307 8.04383C29.6855 7.1873 29.7783 6.2448 29.5974 5.33552C29.4166 4.42623 28.9701 3.591 28.3146 2.93544C27.659 2.27988 26.8238 1.83344 25.9145 1.65257C25.0052 1.4717 24.0627 1.56453 23.2062 1.91932C22.3496 2.2741 21.6176 2.87491 21.1025 3.64577C20.5874 4.41662 20.3125 5.3229 20.3125 6.25C20.3137 7.49282 20.808 8.68439 21.6868 9.5632C22.5656 10.442 23.7572 10.9363 25 10.9375ZM25 3.125C25.6181 3.125 26.2223 3.30828 26.7362 3.65166C27.2501 3.99504 27.6506 4.4831 27.8871 5.05412C28.1236 5.62514 28.1855 6.25347 28.065 6.85966C27.9444 7.46585 27.6467 8.02267 27.2097 8.45971C26.7727 8.89675 26.2158 9.19438 25.6097 9.31496C25.0035 9.43554 24.3751 9.37365 23.8041 9.13713C23.2331 8.9006 22.745 8.50006 22.4017 7.98616C22.0583 7.47226 21.875 6.86807 21.875 6.25C21.875 5.4212 22.2042 4.62634 22.7903 4.04029C23.3763 3.45424 24.1712 3.125 25 3.125Z" fill="#2E2E2E" fill-opacity="0.8"/>
<path d="M29.6875 43.75C29.6875 42.8229 29.4126 41.9166 28.8975 41.1458C28.3824 40.3749 27.6504 39.7741 26.7938 39.4193C25.9373 39.0645 24.9948 38.9717 24.0855 39.1526C23.1762 39.3334 22.341 39.7799 21.6854 40.4354C21.0299 41.091 20.5834 41.9262 20.4026 42.8355C20.2217 43.7448 20.3145 44.6873 20.6693 45.5438C21.0241 46.4004 21.6249 47.1324 22.3958 47.6475C23.1666 48.1626 24.0729 48.4375 25 48.4375C26.2428 48.4363 27.4344 47.942 28.3132 47.0632C29.192 46.1844 29.6863 44.9928 29.6875 43.75ZM25 46.875C24.3819 46.875 23.7777 46.6917 23.2638 46.3483C22.7499 46.005 22.3494 45.5169 22.1129 44.9459C21.8764 44.3749 21.8145 43.7465 21.935 43.1403C22.0556 42.5342 22.3533 41.9773 22.7903 41.5403C23.2273 41.1033 23.7842 40.8056 24.3903 40.685C24.9965 40.5645 25.6249 40.6264 26.1959 40.8629C26.7669 41.0994 27.255 41.4999 27.5983 42.0138C27.9417 42.5277 28.125 43.1319 28.125 43.75C28.125 44.5788 27.7958 45.3737 27.2097 45.9597C26.6237 46.5458 25.8288 46.875 25 46.875Z" fill="#2E2E2E" fill-opacity="0.8"/>
<path d="M11.6828 34.8867L8.40781 34.375C8.30639 34.3592 8.20286 34.3636 8.10312 34.3878C8.00338 34.4121 7.9094 34.4557 7.82655 34.5163C7.74369 34.5769 7.67359 34.6532 7.62024 34.7409C7.56689 34.8286 7.53134 34.9259 7.51562 35.0274L7.00781 38.3024L8.55156 38.5422L8.7625 37.182C11.0478 40.2274 14.1396 42.5726 17.6883 43.9524L18.2492 42.4945C14.9564 41.2148 12.0899 39.0346 9.97734 36.2031L11.443 36.4313L11.6828 34.8867Z" fill="#2E2E2E" fill-opacity="0.8"/>
</svg>
