<svg width="30" height="27" viewBox="0 0 30 27" fill="none" xmlns="http://www.w3.org/2000/svg">
<path d="M0.715048 21.2842H29.285V19.7147H0.715048V21.2842ZM29.4998 21.999H0.500173C0.367563 21.9989 0.240416 21.9462 0.146642 21.8524C0.0528683 21.7587 0.000128697 21.6315 0 21.4989V19.499C0.00011583 19.3663 0.052852 19.2392 0.146627 19.1454C0.240403 19.0516 0.367555 18.9989 0.500173 18.9988H29.4998C29.6324 18.9989 29.7596 19.0516 29.8534 19.1454C29.9472 19.2392 29.9999 19.3663 30 19.499V21.4989C29.9999 21.6315 29.9471 21.7587 29.8534 21.8524C29.7596 21.9462 29.6324 21.9989 29.4998 21.999Z" fill="white"/>
<path d="M0.715048 21.2842H29.285V19.7147H0.715048V21.2842ZM29.4998 21.999H0.500173C0.367563 21.9989 0.240416 21.9462 0.146642 21.8524C0.0528683 21.7587 0.000128697 21.6315 0 21.4989V19.499C0.00011583 19.3663 0.052852 19.2392 0.146627 19.1454C0.240403 19.0516 0.367555 18.9989 0.500173 18.9988H29.4998C29.6324 18.9989 29.7596 19.0516 29.8534 19.1454C29.9472 19.2392 29.9999 19.3663 30 19.499V21.4989C29.9999 21.6315 29.9471 21.7587 29.8534 21.8524C29.7596 21.9462 29.6324 21.9989 29.4998 21.999Z" fill="white"/>
<path d="M0.715048 26.285H29.285V24.7155H0.715048V26.285ZM29.4998 27.0001H0.500173C0.367555 27 0.240403 26.9472 0.146627 26.8534C0.052852 26.7597 0.00011583 26.6325 0 26.4999V24.5C4.46632e-05 24.4344 0.0130185 24.3694 0.0381787 24.3088C0.0633389 24.2481 0.100194 24.1931 0.146639 24.1467C0.193085 24.1003 0.248211 24.0635 0.308871 24.0384C0.36953 24.0133 0.434534 24.0004 0.500173 24.0005H29.4998C29.6324 24.0004 29.7596 24.053 29.8533 24.1467C29.9471 24.2403 29.9999 24.3674 30 24.5V26.4999C29.9999 26.6325 29.9472 26.7597 29.8534 26.8534C29.7596 26.9472 29.6324 27 29.4998 27.0001Z" fill="white"/>
<path d="M0.715048 26.285H29.285V24.7155H0.715048V26.285ZM29.4998 27.0001H0.500173C0.367555 27 0.240403 26.9472 0.146627 26.8534C0.052852 26.7597 0.00011583 26.6325 0 26.4999V24.5C4.46632e-05 24.4344 0.0130185 24.3694 0.0381787 24.3088C0.0633389 24.2481 0.100194 24.1931 0.146639 24.1467C0.193085 24.1003 0.248211 24.0635 0.308871 24.0384C0.36953 24.0133 0.434534 24.0004 0.500173 24.0005H29.4998C29.6324 24.0004 29.7596 24.053 29.8533 24.1467C29.9471 24.2403 29.9999 24.3674 30 24.5V26.4999C29.9999 26.6325 29.9471 26.7597 29.8534 26.8534C29.7596 26.9472 29.6324 26.9999 29.4998 27.0001V27.0001Z" fill="white"/>
<path d="M2.71892 24.4264V24.4264L2.72543 24.4263L4.1325 24.3896L5.53563 24.353C5.58417 24.3536 5.62656 24.3729 5.70095 24.4067C5.71941 24.4151 5.73984 24.4244 5.76283 24.4345C5.78668 24.445 5.82122 24.4595 5.85879 24.469C5.89299 24.4777 5.96129 24.4911 6.03833 24.4669C6.13105 24.4378 6.19073 24.3699 6.22068 24.2993C6.24599 24.2397 6.25 24.18 6.25 24.1378V21.6621C6.25 21.2675 5.89773 21 5.53177 21H2.71892C2.35339 21 2 21.2671 2 21.6621V24.1378C2 24.2153 2.01547 24.3683 2.15802 24.4541C2.22156 24.4923 2.28543 24.4999 2.32959 24.5C2.37319 24.5001 2.41294 24.4928 2.44149 24.4865C2.47086 24.48 2.50083 24.4715 2.52501 24.4647C2.52752 24.464 2.52999 24.4633 2.53243 24.4626C2.55565 24.456 2.5762 24.4501 2.59767 24.4447C2.64466 24.4329 2.68369 24.4264 2.71892 24.4264ZM5.07959 22.072V23.475H3.17036V22.072H5.07959Z" fill="white" stroke="white" stroke-width="0.5"/>
<mask id="path-6-outside-1_2889_4974" maskUnits="userSpaceOnUse" x="22.25" y="20.25" width="6" height="5" fill="black">
<rect fill="white" x="22.25" y="20.25" width="6" height="5"/>
<path d="M24.0546 23.7329H26.945V21.8244H24.0546V23.7329ZM27.1571 24.1539L23.7615 24.1114C23.4509 24.1114 23.25 24.3751 23.25 24.1463V21.664C23.25 21.4357 23.5021 21.25 23.8127 21.25H27.1873C27.4979 21.25 27.75 21.4357 27.75 21.664V24.1463C27.75 24.3751 27.4675 24.1539 27.1569 24.1539"/>
</mask>
<path d="M24.0546 23.7329H26.945V21.8244H24.0546V23.7329ZM27.1571 24.1539L23.7615 24.1114C23.4509 24.1114 23.25 24.3751 23.25 24.1463V21.664C23.25 21.4357 23.5021 21.25 23.8127 21.25H27.1873C27.4979 21.25 27.75 21.4357 27.75 21.664V24.1463C27.75 24.3751 27.4675 24.1539 27.1569 24.1539" fill="white"/>
<path d="M24.0546 23.7329H23.5546V24.2329H24.0546V23.7329ZM26.945 23.7329V24.2329H27.445V23.7329H26.945ZM26.945 21.8244H27.445V21.3244H26.945V21.8244ZM24.0546 21.8244V21.3244H23.5546V21.8244H24.0546ZM23.7615 24.1114L23.7677 23.6114H23.7615V24.1114ZM24.0546 24.2329H26.945V23.2329H24.0546V24.2329ZM27.445 23.7329V21.8244H26.445V23.7329H27.445ZM26.945 21.3244H24.0546V22.3244H26.945V21.3244ZM23.5546 21.8244V23.7329H24.5546V21.8244H23.5546ZM27.1634 23.6539L23.7677 23.6114L23.7552 24.6113L27.1508 24.6538L27.1634 23.6539ZM23.7615 23.6114C23.4807 23.6114 23.2409 23.7347 23.1959 23.7535C23.1772 23.7614 23.1871 23.7561 23.2094 23.7505C23.2243 23.7468 23.3175 23.7231 23.4363 23.7604C23.5022 23.7812 23.5664 23.8178 23.6206 23.8709C23.6729 23.9222 23.7035 23.9766 23.721 24.0187C23.738 24.0596 23.7444 24.0931 23.7471 24.1116C23.7499 24.1308 23.75 24.1433 23.75 24.1463H22.75C22.75 24.2004 22.7543 24.2982 22.7975 24.4023C22.8502 24.5292 22.9602 24.659 23.1362 24.7143C23.2787 24.7591 23.4011 24.7333 23.4505 24.721C23.5073 24.7069 23.5568 24.6866 23.5826 24.6757C23.7157 24.6199 23.7317 24.6114 23.7615 24.6114V23.6114ZM23.75 24.1463V21.664H22.75V24.1463H23.75ZM23.75 21.664C23.75 21.7017 23.7391 21.7325 23.7276 21.7524C23.7171 21.7707 23.7084 21.7762 23.7113 21.7741C23.7189 21.7685 23.7532 21.75 23.8127 21.75V20.75C23.5616 20.75 23.3146 20.8244 23.1185 20.9687C22.9228 21.1127 22.75 21.3527 22.75 21.664H23.75ZM23.8127 21.75H27.1873V20.75H23.8127V21.75ZM27.1873 21.75C27.2468 21.75 27.2811 21.7685 27.2887 21.7741C27.2916 21.7762 27.2829 21.7707 27.2724 21.7524C27.2609 21.7325 27.25 21.7017 27.25 21.664H28.25C28.25 21.3527 28.0772 21.1127 27.8815 20.9687C27.6854 20.8244 27.4384 20.75 27.1873 20.75V21.75ZM27.25 21.664V24.1463H28.25V21.664H27.25ZM27.25 24.1463C27.25 24.1304 27.2513 24.0621 27.2947 23.9797C27.3464 23.8813 27.4331 23.8095 27.5296 23.7743C27.6092 23.7453 27.6713 23.7498 27.6847 23.7509C27.7014 23.7523 27.706 23.7545 27.6884 23.7501C27.6716 23.746 27.6516 23.7404 27.6167 23.7306C27.5851 23.7217 27.5439 23.7101 27.4994 23.6992C27.4111 23.6776 27.2914 23.6539 27.1569 23.6539V24.6539C27.232 24.6539 27.2633 24.6758 27.4514 24.7217C27.4885 24.7307 27.543 24.7427 27.6037 24.7476C27.6612 24.7523 27.7615 24.7542 27.8724 24.7137C28.0002 24.6671 28.1115 24.575 28.1798 24.445C28.2399 24.3308 28.25 24.2194 28.25 24.1463H27.25Z" fill="white" mask="url(#path-6-outside-1_2889_4974)"/>
<mask id="path-8-outside-2_2889_4974" maskUnits="userSpaceOnUse" x="11.75" y="20.25" width="6" height="5" fill="black">
<rect fill="white" x="11.75" y="20.25" width="6" height="5"/>
<path d="M13.5548 23.7353H16.4446V21.825H13.5548V23.7353ZM16.6874 24.1249L13.3126 24.1459C13.0021 24.1459 12.75 24.378 12.75 24.149V21.6644C12.75 21.4359 13.0021 21.25 13.3126 21.25H16.6874C16.9979 21.25 17.25 21.4359 17.25 21.6644V24.149C17.25 24.378 16.9979 24.1249 16.6874 24.1249"/>
</mask>
<path d="M13.5548 23.7353H16.4446V21.825H13.5548V23.7353ZM16.6874 24.1249L13.3126 24.1459C13.0021 24.1459 12.75 24.378 12.75 24.149V21.6644C12.75 21.4359 13.0021 21.25 13.3126 21.25H16.6874C16.9979 21.25 17.25 21.4359 17.25 21.6644V24.149C17.25 24.378 16.9979 24.1249 16.6874 24.1249" fill="white"/>
<path d="M13.5548 23.7353H13.0548V24.2353H13.5548V23.7353ZM16.4446 23.7353V24.2353H16.9446V23.7353H16.4446ZM16.4446 21.825H16.9446V21.325H16.4446V21.825ZM13.5548 21.825V21.325H13.0548V21.825H13.5548ZM13.3126 24.1459V24.6459L13.3157 24.6459L13.3126 24.1459ZM13.5548 24.2353H16.4446V23.2353H13.5548V24.2353ZM16.9446 23.7353V21.825H15.9446V23.7353H16.9446ZM16.4446 21.325H13.5548V22.325H16.4446V21.325ZM13.0548 21.825V23.7353H14.0548V21.825H13.0548ZM16.6843 23.6249L13.3095 23.6459L13.3157 24.6459L16.6905 24.6249L16.6843 23.6249ZM13.3126 23.6459C13.1742 23.6459 13.0531 23.6716 12.9633 23.6959C12.9181 23.7081 12.8772 23.721 12.8458 23.731C12.8103 23.7424 12.7927 23.7482 12.7761 23.753C12.7591 23.7579 12.7666 23.7546 12.7868 23.7522C12.8031 23.7503 12.8753 23.7423 12.9663 23.7757C13.0779 23.8166 13.1647 23.8997 13.2119 23.9976C13.2501 24.077 13.25 24.1401 13.25 24.149H12.25C12.25 24.2152 12.2578 24.3212 12.311 24.4316C12.3732 24.5607 12.4821 24.6633 12.6222 24.7146C12.7417 24.7584 12.8488 24.7519 12.9055 24.7451C12.9661 24.7379 13.0197 24.7235 13.0536 24.7137C13.2247 24.6643 13.251 24.6459 13.3126 24.6459V23.6459ZM13.25 24.149V21.6644H12.25V24.149H13.25ZM13.25 21.6644C13.25 21.7019 13.2391 21.7327 13.2277 21.7524C13.2172 21.7707 13.2086 21.7762 13.2115 21.7741C13.2191 21.7684 13.2533 21.75 13.3126 21.75V20.75C13.0614 20.75 12.8143 20.8245 12.6183 20.969C12.4226 21.1132 12.25 21.3532 12.25 21.6644H13.25ZM13.3126 21.75H16.6874V20.75H13.3126V21.75ZM16.6874 21.75C16.7467 21.75 16.7809 21.7684 16.7885 21.7741C16.7914 21.7762 16.7828 21.7707 16.7723 21.7524C16.7609 21.7327 16.75 21.7019 16.75 21.6644H17.75C17.75 21.3532 17.5774 21.1132 17.3817 20.969C17.1857 20.8245 16.9386 20.75 16.6874 20.75V21.75ZM16.75 21.6644V24.149H17.75V21.6644H16.75ZM16.75 24.149C16.75 24.1417 16.7494 24.0741 16.7914 23.9901C16.8447 23.8834 16.9428 23.7984 17.0632 23.7626C17.158 23.7344 17.2306 23.7478 17.2426 23.75C17.26 23.7531 17.2653 23.756 17.2462 23.7495C17.2264 23.7428 17.2099 23.7364 17.1716 23.7226C17.1387 23.7107 17.0966 23.6959 17.0497 23.6819C16.9569 23.6541 16.8315 23.6249 16.6874 23.6249V24.6249C16.7351 24.6249 16.7619 24.641 16.924 24.6962C16.9559 24.707 17.0073 24.7237 17.0651 24.7341C17.1176 24.7436 17.225 24.7578 17.3483 24.7211C17.4971 24.6768 17.6174 24.5741 17.6857 24.4374C17.7428 24.3234 17.75 24.2136 17.75 24.149H16.75Z" fill="white" mask="url(#path-8-outside-2_2889_4974)"/>
<path d="M3.21505 19H14.642V10.7156H3.21505V19ZM14.9998 19.715H2.99944C2.72338 19.715 2.5 19.7762 2.5 19.5002V10.5002C2.49995 10.4345 2.51283 10.3696 2.5379 10.3089C2.56297 10.2482 2.59975 10.1931 2.64613 10.1467C2.6925 10.1002 2.74758 10.0633 2.8082 10.0382C2.86882 10.013 2.93381 10 2.99944 10H14.9998C15.2759 10 15.3578 10.2241 15.3578 10.5002V19.5003C15.3578 19.7763 15.2759 19.7151 14.9998 19.7151" fill="white"/>
<path d="M2.99927 9.75L2.99944 9.75L14.9998 9.75C15.2199 9.75 15.393 9.84715 15.496 10.0168C15.5864 10.1657 15.6078 10.3458 15.6078 10.5002V19.5003C15.6078 19.5736 15.6035 19.6588 15.5757 19.7354C15.5404 19.8327 15.4694 19.9106 15.3648 19.9472C15.288 19.9739 15.2078 19.9715 15.1652 19.9702L15.1646 19.9702C15.1444 19.9695 15.1263 19.9687 15.1086 19.968C15.0748 19.9665 15.0423 19.965 14.9998 19.965H2.99944C2.95859 19.965 2.92438 19.9663 2.8873 19.9677C2.86379 19.9686 2.83913 19.9695 2.81089 19.9702C2.74975 19.9717 2.67039 19.9719 2.59421 19.9557C2.51321 19.9384 2.41392 19.8981 2.3405 19.8019C2.26969 19.7091 2.25 19.5995 2.25 19.5002L2.25 10.5004L2.99927 9.75ZM2.99927 9.75C2.90085 9.75007 2.80336 9.76949 2.71237 9.80726C2.62134 9.84504 2.53874 9.9004 2.46922 9.97002C2.39964 10.0397 2.34447 10.1224 2.30686 10.2134C2.26927 10.3043 2.24995 10.4018 2.25 10.5002L2.99927 9.75ZM14.392 10.9656V18.75H3.46505V10.9656H14.392Z" fill="white" stroke="white" stroke-width="0.5" stroke-miterlimit="10"/>
<path d="M8.99937 11.8127C9.07777 11.8127 9.1541 11.8379 9.21711 11.8845L10.0865 12.537V10.725H7.91226V12.5371L8.78168 11.8847C8.84471 11.8381 8.92099 11.8129 8.99937 11.8127ZM10.4494 13.6248C10.3709 13.6247 10.2945 13.5993 10.2316 13.5522L8.99869 12.628L7.76641 13.5522C7.71257 13.5928 7.64849 13.6175 7.58138 13.6236C7.51426 13.6297 7.44678 13.6169 7.38652 13.5867C7.32626 13.5566 7.27562 13.5102 7.24028 13.4528C7.20495 13.3954 7.18633 13.3293 7.18652 13.2619V10.3629C7.18648 10.3152 7.19583 10.268 7.21405 10.2239C7.23227 10.1799 7.259 10.1399 7.29271 10.1062C7.32641 10.0725 7.36643 10.0457 7.41048 10.0275C7.45452 10.0093 7.50173 9.99996 7.5494 10H10.4494C10.497 10 10.5441 10.0095 10.5881 10.0277C10.6321 10.046 10.672 10.0727 10.7056 10.1064C10.7393 10.1401 10.7659 10.1801 10.7841 10.2241C10.8023 10.2681 10.8116 10.3153 10.8115 10.3629V13.2621C10.8115 13.3296 10.7927 13.3957 10.7573 13.4531C10.7218 13.5105 10.6711 13.5569 10.6108 13.5872C10.5606 13.6119 10.5054 13.6248 10.4494 13.6249" fill="white"/>
<path d="M8.99937 11.8127C9.07777 11.8127 9.1541 11.8379 9.21711 11.8845L10.0865 12.537V10.725H7.91226V12.5371L8.78168 11.8847C8.84471 11.8381 8.92099 11.8129 8.99937 11.8127ZM10.4494 13.6248C10.3709 13.6247 10.2945 13.5993 10.2316 13.5522L8.99869 12.628L7.76641 13.5522C7.71257 13.5928 7.64849 13.6175 7.58138 13.6236C7.51426 13.6297 7.44678 13.6169 7.38652 13.5867C7.32626 13.5566 7.27562 13.5102 7.24028 13.4528C7.20495 13.3954 7.18633 13.3293 7.18652 13.2619V10.3629C7.18648 10.3152 7.19583 10.268 7.21405 10.2239C7.23227 10.1799 7.259 10.1399 7.29271 10.1062C7.32641 10.0725 7.36643 10.0457 7.41048 10.0275C7.45452 10.0093 7.50173 9.99996 7.5494 10H10.4494C10.497 10 10.5441 10.0095 10.5881 10.0277C10.6321 10.046 10.672 10.0727 10.7056 10.1064C10.7393 10.1401 10.7659 10.1801 10.7841 10.2241C10.8023 10.2681 10.8116 10.3153 10.8115 10.3629V13.2621C10.8115 13.3296 10.7927 13.3957 10.7573 13.4531C10.7218 13.5105 10.6711 13.5569 10.6108 13.5872C10.5606 13.6119 10.5054 13.6248 10.4495 13.625L10.4494 13.6248Z" fill="white"/>
<path d="M15.3571 19H26.7841V10.7156H15.3571V19ZM26.9997 19.715H14.9993C14.7232 19.715 14.6421 19.7762 14.6421 19.5002V10.5002C14.6421 10.2241 14.7232 10 14.9993 10H26.9997C27.1323 10.0001 27.2594 10.0528 27.3532 10.1466C27.447 10.2404 27.4997 10.3676 27.4998 10.5002V19.5003C27.4998 19.7763 27.2757 19.7151 26.9997 19.7151" fill="white"/>
<path d="M26.9999 9.75H26.9997H14.9993C14.7792 9.75 14.6061 9.84724 14.5033 10.0171C14.4132 10.166 14.3921 10.3461 14.3921 10.5002V19.5002C14.3921 19.5734 14.3963 19.6585 14.4239 19.7349C14.4589 19.832 14.5296 19.9103 14.6344 19.947C14.7112 19.974 14.7914 19.9715 14.834 19.9702L14.8347 19.9702C14.8548 19.9695 14.8729 19.9687 14.8906 19.968C14.9244 19.9665 14.9568 19.965 14.9993 19.965H26.9997C27.0405 19.965 27.0748 19.9663 27.1119 19.9677C27.1354 19.9686 27.1601 19.9695 27.1883 19.9702C27.2496 19.9717 27.3289 19.9719 27.4051 19.9557C27.4861 19.9385 27.5854 19.8983 27.659 19.8022C27.73 19.7095 27.7498 19.5998 27.7498 19.5003V10.5002V10.5C27.7497 10.3011 27.6706 10.1104 27.53 9.96984C27.3894 9.82923 27.1987 9.75017 26.9999 9.75ZM26.5341 10.9656V18.75H15.6071V10.9656H26.5341Z" fill="white" stroke="white" stroke-width="0.5" stroke-miterlimit="10"/>
<path d="M20.9994 11.8127C21.0778 11.8128 21.154 11.838 21.2171 11.8845L22.0865 12.537V10.725H19.9123V12.5371L20.7817 11.8847C20.8447 11.838 20.921 11.8128 20.9994 11.8127ZM22.4494 13.6248C22.3709 13.6247 22.2945 13.5993 22.2316 13.5522L20.9987 12.628L19.7664 13.5522C19.7126 13.5928 19.6485 13.6175 19.5814 13.6236C19.5143 13.6297 19.4468 13.6169 19.3865 13.5867C19.3263 13.5566 19.2756 13.5102 19.2403 13.4528C19.205 13.3954 19.1863 13.3293 19.1865 13.2619V10.3629C19.1865 10.3152 19.1958 10.268 19.2141 10.2239C19.2323 10.1799 19.259 10.1399 19.2927 10.1062C19.3264 10.0725 19.3664 10.0457 19.4105 10.0275C19.4545 10.0093 19.5017 9.99996 19.5494 10H22.4487C22.4963 9.99996 22.5435 10.0093 22.5876 10.0275C22.6316 10.0457 22.6716 10.0725 22.7053 10.1062C22.739 10.1399 22.7658 10.1799 22.784 10.2239C22.8022 10.268 22.8115 10.3152 22.8115 10.3629V13.2621C22.8115 13.3296 22.7927 13.3957 22.7572 13.4531C22.7218 13.5105 22.6711 13.5569 22.6108 13.5872C22.5606 13.6119 22.5054 13.6248 22.4494 13.6249" fill="white"/>
<path d="M20.9994 11.8127C21.0778 11.8128 21.154 11.838 21.2171 11.8845L22.0865 12.537V10.725H19.9123V12.5371L20.7817 11.8847C20.8447 11.838 20.921 11.8128 20.9994 11.8127ZM22.4494 13.6248C22.3709 13.6247 22.2945 13.5993 22.2316 13.5522L20.9987 12.628L19.7664 13.5522C19.7126 13.5928 19.6485 13.6175 19.5814 13.6236C19.5143 13.6297 19.4468 13.6169 19.3865 13.5867C19.3263 13.5566 19.2756 13.5102 19.2403 13.4528C19.205 13.3954 19.1863 13.3293 19.1865 13.2619V10.3629C19.1865 10.3152 19.1958 10.268 19.2141 10.2239C19.2323 10.1799 19.259 10.1399 19.2927 10.1062C19.3264 10.0725 19.3664 10.0457 19.4105 10.0275C19.4545 10.0093 19.5017 9.99996 19.5494 10H22.4487C22.4963 9.99996 22.5435 10.0093 22.5876 10.0275C22.6316 10.0457 22.6716 10.0725 22.7053 10.1062C22.739 10.1399 22.7658 10.1799 22.784 10.2239C22.8022 10.268 22.8115 10.3152 22.8115 10.3629V13.2621C22.8115 13.3296 22.7927 13.3957 22.7572 13.4531C22.7218 13.5105 22.6711 13.5569 22.6108 13.5872C22.5606 13.6119 22.5054 13.6248 22.4495 13.625L22.4494 13.6248Z" fill="white"/>
<path d="M9.21505 10.0001H20.7843V1.71504H9.21505V10.0001ZM20.8576 10.7152H8.85787C8.72411 10.7152 8.5 10.7757 8.5 10.4996V1.50017C8.50012 1.36755 8.55285 1.24039 8.64663 1.14662C8.7404 1.05284 8.86755 1.00012 9.00017 1H20.9998C21.1325 1.00012 21.2596 1.05284 21.3534 1.14662C21.4472 1.24039 21.4999 1.36755 21.5 1.50017V10.4996C21.5 10.7757 21.2759 10.7152 20.9998 10.7152H20.8576Z" fill="white"/>
<path d="M8.25 1.49996V1.50017V10.4996C8.25 10.6001 8.27018 10.704 8.33199 10.7927C8.39669 10.8855 8.48569 10.9315 8.5644 10.9525C8.63734 10.9719 8.70785 10.9717 8.75403 10.9702C8.78857 10.969 8.8061 10.9677 8.81942 10.9668C8.83231 10.9658 8.84126 10.9652 8.85787 10.9652H20.8576H20.9998C21.0406 10.9652 21.0744 10.9664 21.1111 10.9678C21.1349 10.9687 21.1599 10.9696 21.1888 10.9702C21.2501 10.9716 21.3295 10.9717 21.4058 10.9554C21.4868 10.938 21.586 10.8975 21.6594 10.8015C21.7302 10.7088 21.75 10.5992 21.75 10.4996V1.50017V1.49996C21.7498 1.30112 21.6708 1.11045 21.5302 0.96984C21.3896 0.829222 21.1989 0.750174 21.0001 0.75H20.9998L9.00017 0.75L8.99995 0.75C8.80112 0.750174 8.61046 0.829225 8.46985 0.969839C8.32924 1.11045 8.25017 1.30111 8.25 1.49996ZM20.5343 1.96504V9.75013H9.46505V1.96504H20.5343Z" fill="white" stroke="white" stroke-width="0.5" stroke-miterlimit="10"/>
<path d="M14.9997 2.81264C15.0782 2.81261 15.1546 2.83808 15.2173 2.88521L16.0873 3.5376V1.72472H13.9116V3.5376L14.7816 2.88521C14.8444 2.83808 14.9208 2.81261 14.9994 2.81264M16.4493 4.62476C16.3708 4.6249 16.2943 4.59942 16.2316 4.55219L14.9986 3.62802L13.7664 4.55219C13.7126 4.59269 13.6486 4.6174 13.5815 4.62353C13.5145 4.62965 13.447 4.61697 13.3868 4.58689C13.3266 4.5568 13.2759 4.51051 13.2405 4.45323C13.2052 4.39595 13.1865 4.32994 13.1865 4.26261V1.36286C13.1865 1.31525 13.1958 1.26808 13.2139 1.22408C13.2321 1.18007 13.2588 1.14007 13.2924 1.10637C13.326 1.07267 13.366 1.04593 13.4099 1.02767C13.4539 1.00942 13.5011 1.00003 13.5487 1H16.4493C16.4969 1.00004 16.5441 1.00946 16.588 1.02772C16.632 1.04598 16.6719 1.07272 16.7056 1.10641C16.7392 1.14011 16.7659 1.18007 16.784 1.22408C16.8022 1.26808 16.8115 1.31525 16.8115 1.36286V4.2628C16.8114 4.33017 16.7926 4.39622 16.7572 4.45351C16.7218 4.51081 16.6711 4.55708 16.6108 4.58722C16.5606 4.61191 16.5053 4.62483 16.4493 4.62495" fill="white"/>
<path d="M14.9998 2.81264C15.0784 2.81261 15.1548 2.83808 15.2175 2.88521L16.0875 3.5376V1.72472H13.9118V3.5376L14.7818 2.88521C14.8447 2.83802 14.9212 2.81255 14.9998 2.81264ZM16.4498 4.62476C16.3713 4.6249 16.2948 4.59942 16.2321 4.55219L14.9991 3.62802L13.7668 4.55219C13.7131 4.59269 13.6491 4.6174 13.582 4.62353C13.515 4.62965 13.4475 4.61697 13.3873 4.58689C13.3271 4.5568 13.2764 4.51051 13.241 4.45323C13.2057 4.39595 13.1869 4.32994 13.187 4.26261V1.36286C13.1869 1.31525 13.1963 1.26808 13.2144 1.22408C13.2326 1.18007 13.2593 1.14007 13.2929 1.10637C13.3265 1.07267 13.3665 1.04593 13.4104 1.02767C13.4544 1.00942 13.5015 1.00003 13.5492 1H16.4498C16.4974 1.00004 16.5446 1.00946 16.5885 1.02772C16.6325 1.04598 16.6724 1.07272 16.7061 1.10641C16.7397 1.14011 16.7664 1.18007 16.7845 1.22408C16.8027 1.26808 16.812 1.31525 16.812 1.36286V4.2628C16.8119 4.33017 16.7931 4.39622 16.7577 4.45351C16.7223 4.51081 16.6716 4.55708 16.6113 4.58722C16.561 4.61185 16.5058 4.6247 16.4498 4.62476Z" fill="white"/>
</svg>
