<svg width="50" height="44" viewBox="0 0 50 44" fill="none" xmlns="http://www.w3.org/2000/svg">
<path d="M1.19175 33.808H48.8083V31.1922H1.19175V33.808ZM49.1664 34.9994H0.833622C0.612605 34.9992 0.400694 34.9114 0.244404 34.7551C0.0881138 34.5989 0.000214495 34.3869 0 34.1659V30.8326C0.000193049 30.6116 0.0880867 30.3997 0.244379 30.2434C0.400672 30.0871 0.612591 29.9992 0.833622 29.999H49.1664C49.3874 29.9992 49.5993 30.0871 49.7556 30.2434C49.9119 30.3997 49.9998 30.6116 50 30.8326V34.1659C49.9998 34.3869 49.9119 34.5989 49.7556 34.7551C49.5993 34.9114 49.3874 34.9992 49.1664 34.9994" fill="#ffffff" fill-opacity="0.5"/>
<path d="M1.19175 33.808H48.8083V31.1922H1.19175V33.808ZM49.1664 34.9994H0.833622C0.612605 34.9992 0.400694 34.9114 0.244404 34.7551C0.0881138 34.5989 0.000214495 34.3869 0 34.1659V30.8326C0.000193049 30.6116 0.0880867 30.3997 0.244379 30.2434C0.400672 30.0871 0.612591 29.9992 0.833622 29.999H49.1664C49.3874 29.9992 49.5993 30.0871 49.7556 30.2434C49.9119 30.3997 49.9998 30.6116 50 30.8326V34.1659C49.9998 34.3869 49.9119 34.5989 49.7556 34.7551C49.5993 34.9114 49.3874 34.9992 49.1664 34.9994V34.9994Z" fill="#ffffff" fill-opacity="0.5"/>
<path d="M1.19175 42.1415H48.8083V39.5256H1.19175V42.1415ZM49.1664 43.3333H0.833622C0.612591 43.3332 0.400672 43.2452 0.244379 43.0889C0.0880867 42.9326 0.000193049 42.7208 0 42.4997V39.1665C7.44386e-05 39.0571 0.0216975 38.9488 0.0636311 38.8478C0.105565 38.7467 0.16699 38.6549 0.244399 38.5776C0.321808 38.5003 0.413685 38.439 0.514784 38.3972C0.615884 38.3554 0.724224 38.3339 0.833622 38.334H49.1664C49.3873 38.3339 49.5993 38.4215 49.7556 38.5776C49.9119 38.7337 49.9998 38.9456 50 39.1665V42.4997C49.9998 42.7208 49.9119 42.9326 49.7556 43.0889C49.5993 43.2452 49.3874 43.3332 49.1664 43.3333" fill="#ffffff" fill-opacity="0.5"/>
<path d="M1.19175 42.1415H48.8083V39.5256H1.19175V42.1415ZM49.1664 43.3333H0.833622C0.612591 43.3332 0.400672 43.2452 0.244379 43.0889C0.0880867 42.9326 0.000193049 42.7208 0 42.4997V39.1665C7.44386e-05 39.0571 0.0216975 38.9488 0.0636311 38.8478C0.105565 38.7467 0.16699 38.6549 0.244399 38.5776C0.321808 38.5003 0.413685 38.439 0.514784 38.3972C0.615884 38.3554 0.724224 38.3339 0.833622 38.334H49.1664C49.3873 38.3339 49.5993 38.4215 49.7556 38.5776C49.9119 38.7337 49.9998 38.9456 50 39.1665V42.4997C49.9998 42.7207 49.9119 42.9326 49.7556 43.0889C49.5993 43.2452 49.3874 43.3331 49.1664 43.3333V43.3333Z" fill="#ffffff" fill-opacity="0.5"/>
<path d="M4.52427 38.4516H8.80732V34.8812H4.52427V38.4516ZM9.169 39.1607L4.16614 39.2984C3.70603 39.2984 3.33252 39.653 3.33252 39.2261V34.5812C3.33252 34.1544 3.70603 33.8081 4.16614 33.8081H9.16674C9.62676 33.8081 9.99914 34.1544 9.99914 34.5812V39.2261C9.99914 39.653 9.62919 39.1608 9.16908 39.1608" fill="#ffffff" fill-opacity="0.5"/>
<path d="M4.52427 38.4516H8.80732V34.8812H4.52427V38.4516ZM9.169 39.1607L4.16614 39.2984C3.70603 39.2984 3.33252 39.653 3.33252 39.2261V34.5812C3.33252 34.1544 3.70603 33.8081 4.16614 33.8081H9.16674C9.62676 33.8081 9.99914 34.1544 9.99914 34.5812V39.2261C9.99906 39.6528 9.62911 39.1607 9.169 39.1607V39.1607Z" fill="#ffffff" fill-opacity="0.5"/>
<path d="M40.358 38.4523H44.6399V34.882H40.358V38.4523ZM44.9541 39.2398L39.9237 39.1603C39.4636 39.1603 39.166 39.6536 39.166 39.2256V34.5821C39.166 34.1551 39.5395 33.8076 39.9996 33.8076H44.9989C45.459 33.8076 45.8325 34.1551 45.8325 34.5821V39.2256C45.8325 39.6536 45.4139 39.2398 44.9538 39.2398" fill="#ffffff" fill-opacity="0.5"/>
<path d="M40.358 38.4523H44.6399V34.882H40.358V38.4523ZM44.9541 39.2398L39.9237 39.1603C39.4636 39.1603 39.166 39.6536 39.166 39.2256V34.5821C39.166 34.1551 39.5395 33.8076 39.9996 33.8076H44.9989C45.459 33.8076 45.8325 34.1551 45.8325 34.5821V39.2256C45.8328 39.6536 45.4142 39.2397 44.9541 39.2397V39.2398Z" fill="#ffffff" fill-opacity="0.5"/>
<path d="M22.8591 38.4524H27.1409V34.8822H22.8591V38.4524ZM27.5006 39.1805L22.5001 39.2197C22.0401 39.2197 21.6665 39.6536 21.6665 39.2255V34.5821C21.6665 34.1551 22.0401 33.8076 22.5001 33.8076H27.5006C27.9607 33.8076 28.3343 34.1551 28.3343 34.5821V39.2255C28.3343 39.6536 27.9607 39.1804 27.5006 39.1804" fill="#ffffff" fill-opacity="0.5"/>
<path d="M22.8591 38.4524H27.1409V34.8822H22.8591V38.4524ZM27.5006 39.1805L22.5001 39.2197C22.0401 39.2197 21.6665 39.6536 21.6665 39.2255V34.5821C21.6665 34.1551 22.0401 33.8076 22.5001 33.8076H27.5006C27.9607 33.8076 28.3343 34.1551 28.3343 34.5821V39.2255C28.3339 39.6536 27.9603 39.1805 27.5002 39.1805H27.5006Z" fill="#ffffff" fill-opacity="0.5"/>
<path d="M5.35874 29.9996H24.4036V16.1922H5.35874V29.9996ZM25.0001 31.1912H4.9994C4.53929 31.1912 4.16699 31.2932 4.16699 30.8331V15.8331C4.16691 15.7237 4.18837 15.6154 4.23016 15.5143C4.27195 15.4132 4.33324 15.3214 4.41054 15.244C4.48783 15.1665 4.57962 15.105 4.68066 15.0631C4.7817 15.0212 4.89 14.9996 4.9994 14.9995H25.0001C25.4602 14.9995 25.5966 15.373 25.5966 15.8331V30.8333C25.5966 31.2934 25.4602 31.1914 25.0001 31.1914" fill="#ffffff" fill-opacity="0.5"/>
<path d="M5.35874 29.9996H24.4036V16.1922H5.35874V29.9996ZM25.0001 31.1912H4.9994C4.53929 31.1912 4.16699 31.2932 4.16699 30.8331V15.8331C4.16691 15.7237 4.18837 15.6154 4.23016 15.5143C4.27195 15.4132 4.33324 15.3214 4.41054 15.244C4.48783 15.1665 4.57962 15.105 4.68066 15.0631C4.7817 15.0212 4.89 14.9996 4.9994 14.9995H25.0001C25.4602 14.9995 25.5966 15.373 25.5966 15.8331V30.8333C25.5966 31.2932 25.4602 31.1912 25.0001 31.1912Z" fill="#ffffff" fill-opacity="0.5"/>
<path d="M14.9994 18.0207C15.1301 18.0207 15.2573 18.0627 15.3623 18.1404L16.8113 19.2279V16.2078H13.1876V19.2281L14.6366 18.1407C14.7417 18.063 14.8688 18.0209 14.9994 18.0207M17.4161 21.0409C17.2853 21.0408 17.158 20.9983 17.0532 20.9199L14.9983 19.3795L12.9445 20.9199C12.8548 20.9875 12.748 21.0286 12.6361 21.0388C12.5243 21.049 12.4118 21.0277 12.3114 20.9774C12.2109 20.9271 12.1265 20.8498 12.0676 20.7542C12.0087 20.6585 11.9777 20.5484 11.978 20.4361V15.6043C11.978 15.5248 11.9935 15.4461 12.0239 15.3727C12.0543 15.2993 12.0988 15.2326 12.155 15.1765C12.2112 15.1203 12.2779 15.0758 12.3513 15.0454C12.4247 15.015 12.5034 14.9994 12.5828 14.9995H17.4161C17.4955 14.9996 17.574 15.0153 17.6473 15.0457C17.7206 15.0761 17.7872 15.1207 17.8432 15.1769C17.8993 15.233 17.9437 15.2996 17.974 15.373C18.0043 15.4463 18.0198 15.5249 18.0197 15.6043V20.4363C18.0196 20.5488 17.9883 20.659 17.9293 20.7547C17.8702 20.8503 17.7857 20.9277 17.6852 20.9781C17.6015 21.0193 17.5094 21.0408 17.4161 21.041" fill="#ffffff" fill-opacity="0.5"/>
<path d="M14.9994 18.0207C15.1301 18.0207 15.2573 18.0627 15.3623 18.1404L16.8113 19.2279V16.2078H13.1876V19.2281L14.6366 18.1407C14.7417 18.063 14.8688 18.0209 14.9994 18.0207V18.0207ZM17.4161 21.0409C17.2853 21.0408 17.158 20.9983 17.0532 20.9199L14.9983 19.3795L12.9445 20.9199C12.8548 20.9875 12.748 21.0286 12.6361 21.0388C12.5243 21.049 12.4118 21.0277 12.3114 20.9774C12.2109 20.9271 12.1265 20.8498 12.0676 20.7542C12.0087 20.6585 11.9777 20.5484 11.978 20.4361V15.6043C11.978 15.5248 11.9935 15.4461 12.0239 15.3727C12.0543 15.2993 12.0988 15.2326 12.155 15.1765C12.2112 15.1203 12.2779 15.0758 12.3513 15.0454C12.4247 15.015 12.5034 14.9994 12.5828 14.9995H17.4161C17.4955 14.9996 17.574 15.0153 17.6473 15.0457C17.7206 15.0761 17.7872 15.1207 17.8432 15.1769C17.8993 15.233 17.9437 15.2996 17.974 15.373C18.0043 15.4463 18.0198 15.5249 18.0197 15.6043V20.4363C18.0196 20.5488 17.9883 20.659 17.9293 20.7547C17.8702 20.8503 17.7857 20.9277 17.6852 20.9781C17.6015 21.0193 17.5096 21.0408 17.4163 21.0411L17.4161 21.0409Z" fill="#ffffff" fill-opacity="0.5"/>
<path d="M25.5951 29.9996H44.6399V16.1922H25.5951V29.9996ZM44.9993 31.1912H24.9986C24.5385 31.1912 24.4033 31.2932 24.4033 30.8331V15.8331C24.4033 15.373 24.5385 14.9995 24.9986 14.9995H44.9993C45.2203 14.9997 45.4322 15.0876 45.5885 15.2439C45.7448 15.4002 45.8327 15.6121 45.8329 15.8331V30.8333C45.8329 31.2934 45.4594 31.1914 44.9993 31.1914" fill="#ffffff" fill-opacity="0.5"/>
<path d="M25.5951 29.9996H44.6399V16.1922H25.5951V29.9996ZM44.9993 31.1912H24.9986C24.5385 31.1912 24.4033 31.2932 24.4033 30.8331V15.8331C24.4033 15.373 24.5385 14.9995 24.9986 14.9995H44.9993C45.2203 14.9997 45.4322 15.0876 45.5885 15.2439C45.7448 15.4002 45.8327 15.6121 45.8329 15.8331V30.8333C45.8329 31.2932 45.4594 31.1912 44.9993 31.1912V31.1912Z" fill="#ffffff" fill-opacity="0.5"/>
<path d="M34.9994 18.0207C35.1301 18.0209 35.2572 18.0628 35.3623 18.1404L36.8113 19.2279V16.2078H33.1876V19.2281L34.6366 18.1407C34.7416 18.0629 34.8688 18.0208 34.9994 18.0207M37.4161 21.0409C37.2853 21.0408 37.158 20.9983 37.0532 20.9199L34.9983 19.3795L32.9445 20.9199C32.8548 20.9875 32.748 21.0286 32.6361 21.0388C32.5243 21.049 32.4118 21.0277 32.3114 20.9774C32.2109 20.9271 32.1265 20.8498 32.0676 20.7542C32.0087 20.6585 31.9777 20.5484 31.978 20.4361V15.6043C31.978 15.5248 31.9935 15.4461 32.0239 15.3727C32.0543 15.2993 32.0988 15.2326 32.155 15.1765C32.2112 15.1203 32.2779 15.0758 32.3513 15.0454C32.4247 15.015 32.5034 14.9994 32.5828 14.9995H37.4149C37.4944 14.9994 37.573 15.015 37.6464 15.0454C37.7198 15.0758 37.7865 15.1203 37.8427 15.1765C37.8989 15.2326 37.9434 15.2993 37.9738 15.3727C38.0041 15.4461 38.0197 15.5248 38.0196 15.6043V20.4363C38.0196 20.5488 37.9883 20.659 37.9292 20.7547C37.8702 20.8503 37.7857 20.9277 37.6852 20.9781C37.6015 21.0193 37.5094 21.0408 37.4161 21.041" fill="#ffffff" fill-opacity="0.5"/>
<path d="M34.9994 18.0207C35.1301 18.0209 35.2572 18.0628 35.3623 18.1404L36.8113 19.2279V16.2078H33.1876V19.2281L34.6366 18.1407C34.7416 18.0629 34.8688 18.0208 34.9994 18.0207V18.0207ZM37.4161 21.0409C37.2853 21.0408 37.158 20.9983 37.0532 20.9199L34.9983 19.3795L32.9445 20.9199C32.8548 20.9875 32.748 21.0286 32.6361 21.0388C32.5243 21.049 32.4118 21.0277 32.3114 20.9774C32.2109 20.9271 32.1265 20.8498 32.0676 20.7542C32.0087 20.6585 31.9777 20.5484 31.978 20.4361V15.6043C31.978 15.5248 31.9935 15.4461 32.0239 15.3727C32.0543 15.2993 32.0988 15.2326 32.155 15.1765C32.2112 15.1203 32.2779 15.0758 32.3513 15.0454C32.4247 15.015 32.5034 14.9994 32.5828 14.9995H37.4149C37.4944 14.9994 37.573 15.015 37.6464 15.0454C37.7198 15.0758 37.7865 15.1203 37.8427 15.1765C37.8989 15.2326 37.9434 15.2993 37.9738 15.3727C38.0041 15.4461 38.0197 15.5248 38.0196 15.6043V20.4363C38.0196 20.5488 37.9883 20.659 37.9292 20.7547C37.8702 20.8503 37.7857 20.9277 37.6852 20.9781C37.6015 21.0193 37.5096 21.0408 37.4163 21.0411L37.4161 21.0409Z" fill="#ffffff" fill-opacity="0.5"/>
<path d="M15.3578 15.0002H34.6398V1.19174H15.3578V15.0002ZM34.762 16.192H14.7625C14.5395 16.192 14.166 16.2928 14.166 15.8327V0.833622C14.1662 0.612591 14.2541 0.400652 14.4104 0.244359C14.5667 0.0880669 14.7786 0.000193049 14.9996 0H34.9991C35.2201 0.000193049 35.432 0.0880669 35.5883 0.244359C35.7446 0.400652 35.8325 0.612591 35.8327 0.833622V15.8327C35.8327 16.2928 35.4592 16.192 34.9991 16.192H34.762Z" fill="#ffffff" fill-opacity="0.5"/>
<path d="M15.3578 15.0002H34.6398V1.19174H15.3578V15.0002ZM34.762 16.192H14.7625C14.5395 16.192 14.166 16.2928 14.166 15.8327V0.833622C14.1662 0.612591 14.2541 0.400652 14.4104 0.244359C14.5667 0.0880669 14.7786 0.000193049 14.9996 0H34.9991C35.2201 0.000193049 35.432 0.0880669 35.5883 0.244359C35.7446 0.400652 35.8325 0.612591 35.8327 0.833622V15.8327C35.8327 16.2928 35.4592 16.192 34.9991 16.192H34.762Z" fill="#ffffff" fill-opacity="0.5"/>
<path d="M24.9994 3.02107C25.1303 3.02101 25.2576 3.06347 25.3622 3.14202L26.8122 4.22934V1.20787H23.186V4.22934L24.636 3.14202C24.7407 3.06347 24.8681 3.02102 24.9989 3.02107M27.4156 6.04127C27.2847 6.0415 27.1572 5.99903 27.0527 5.92032L24.9977 4.38004L22.9439 5.92032C22.8543 5.98782 22.7476 6.029 22.6359 6.03921C22.5241 6.04942 22.4117 6.02828 22.3113 5.97814C22.211 5.92801 22.1265 5.85085 22.0676 5.75538C22.0086 5.65991 21.9774 5.5499 21.9775 5.43769V0.604768C21.9774 0.525419 21.993 0.446805 22.0232 0.373461C22.0535 0.300116 22.098 0.233442 22.154 0.177277C22.2101 0.121113 22.2766 0.0765459 22.3499 0.046119C22.4232 0.0156921 22.5018 5.314e-05 22.5811 0H27.4156C27.4949 6.37849e-05 27.5735 0.0157674 27.6467 0.0461981C27.72 0.0766287 27.7866 0.121194 27.8426 0.177356C27.8987 0.233519 27.9431 0.300121 27.9734 0.373461C28.0037 0.4468 28.0192 0.525422 28.0191 0.604768V5.438C28.019 5.55028 27.9877 5.66036 27.9287 5.75585C27.8696 5.85135 27.7852 5.92847 27.6847 5.9787C27.601 6.01986 27.5089 6.04139 27.4156 6.04159" fill="#ffffff" fill-opacity="0.5"/>
<path d="M24.9994 3.02107C25.1303 3.02101 25.2576 3.06347 25.3622 3.14202L26.8122 4.22934V1.20787H23.1861V4.22934L24.636 3.14202C24.7408 3.06337 24.8684 3.02091 24.9994 3.02107V3.02107ZM27.416 6.04127C27.2851 6.0415 27.1577 5.99903 27.0531 5.92032L24.9982 4.38004L22.9444 5.92032C22.8548 5.98782 22.7481 6.029 22.6364 6.03921C22.5246 6.04942 22.4122 6.02828 22.3118 5.97814C22.2114 5.92801 22.127 5.85085 22.0681 5.75538C22.0091 5.65991 21.9779 5.5499 21.978 5.43769V0.604768C21.9779 0.525419 21.9935 0.446805 22.0237 0.373461C22.054 0.300116 22.0984 0.233442 22.1545 0.177277C22.2105 0.121113 22.2771 0.0765459 22.3504 0.046119C22.4237 0.0156921 22.5023 5.314e-05 22.5816 0H27.416C27.4954 6.37849e-05 27.574 0.0157674 27.6472 0.0461981C27.7205 0.0766287 27.7871 0.121194 27.8431 0.177356C27.8992 0.233519 27.9436 0.300121 27.9739 0.373461C28.0042 0.4468 28.0197 0.525422 28.0196 0.604768V5.438C28.0195 5.55028 27.9882 5.66036 27.9292 5.75585C27.8701 5.85135 27.7856 5.92847 27.6852 5.9787C27.6014 6.01975 27.5094 6.04117 27.416 6.04127Z" fill="#ffffff" fill-opacity="0.5"/>
</svg>
