<svg width="28" height="21" viewBox="0 0 28 21" fill="none" xmlns="http://www.w3.org/2000/svg">
<path d="M2.73345 16.944V16.1573C2.73345 15.7458 2.95212 15.3585 3.29381 15.177C5.60357 13.9546 8.24135 13.3132 10.9338 13.3132C10.9748 13.3132 11.0021 13.3132 11.0431 13.3253C11.1798 12.4781 11.4532 11.6672 11.8495 10.9289C11.5488 10.9047 11.2481 10.8926 10.9338 10.8926C7.62632 10.8926 4.53753 11.7035 1.89975 13.0953C0.69703 13.7247 0 14.9107 0 16.1573V19.3646H12.6559C12.0818 18.6384 11.6308 17.8154 11.3301 16.944H2.73345Z" fill="white"/>
<path d="M10.9337 9.6823C13.9542 9.6823 16.4006 7.51588 16.4006 4.84115C16.4006 2.16641 13.9542 0 10.9337 0C7.91323 0 5.4668 2.16641 5.4668 4.84115C5.4668 7.51588 7.91323 9.6823 10.9337 9.6823ZM10.9337 2.42057C12.4371 2.42057 13.6671 3.50983 13.6671 4.84115C13.6671 6.17247 12.4371 7.26172 10.9337 7.26172C9.4303 7.26172 8.20025 6.17247 8.20025 4.84115C8.20025 3.50983 9.4303 2.42057 10.9337 2.42057Z" fill="white"/>
<path d="M25.6259 14.5235C25.6259 14.2572 25.5849 14.0152 25.5439 13.761L27.102 12.5386L25.7352 10.4448L23.7535 11.0379C23.3161 10.7111 22.8241 10.4569 22.2774 10.2754L21.8674 8.47205H19.134L18.724 10.2754C18.1773 10.4569 17.6852 10.7111 17.2479 11.0379L15.2661 10.4448L13.8994 12.5386L15.4575 13.761C15.4165 14.0152 15.3755 14.2572 15.3755 14.5235C15.3755 14.7897 15.4165 15.0318 15.4575 15.286L13.8994 16.5084L15.2661 18.6022L17.2479 18.0091C17.6852 18.3359 18.1773 18.59 18.724 18.7716L19.134 20.5749H21.8674L22.2774 18.7716C22.8241 18.59 23.3161 18.3359 23.7535 18.0091L25.7352 18.6022L27.102 16.5084L25.5439 15.286C25.5849 15.0318 25.6259 14.7897 25.6259 14.5235ZM20.5007 16.9441C18.9973 16.9441 17.7672 15.8548 17.7672 14.5235C17.7672 13.1922 18.9973 12.1029 20.5007 12.1029C22.0041 12.1029 23.2341 13.1922 23.2341 14.5235C23.2341 15.8548 22.0041 16.9441 20.5007 16.9441Z" fill="white"/>
</svg>
