<svg width="16" height="23" viewBox="0 0 16 23" fill="none" xmlns="http://www.w3.org/2000/svg">
<path d="M5.20088 17.3676C5.94256 18.3256 6.64072 19.148 7.18294 19.7482C7.183 19.7483 7.18306 19.7483 7.18312 19.7484L7.29443 19.6478L5.20088 17.3676ZM5.20088 17.3676C4.47492 17.5765 3.87189 17.8707 3.44219 18.2157L3.44216 18.2158C3.00879 18.5635 2.7855 18.939 2.7855 19.2987C2.7855 19.8103 3.23304 20.3447 4.0571 20.7785L4.05719 20.7786C4.96826 21.2589 6.25139 21.561 7.68773 21.561C9.12476 21.561 10.4072 21.2589 11.3183 20.7786C12.1425 20.344 12.59 19.8103 12.59 19.2987C12.59 18.939 12.3667 18.5635 11.9333 18.2158L11.9333 18.2157C11.5034 17.8706 10.9 17.5769 10.1735 17.3674L5.20088 17.3676ZM5.01346 4.67626L5.01341 4.67632C4.32896 5.36149 3.90485 6.30719 3.90485 7.35191C3.90485 8.39662 4.32895 9.34236 5.01346 10.0269C5.69803 10.7114 6.64379 11.1348 7.68842 11.1348C8.73306 11.1348 9.67882 10.7114 10.3634 10.0269C11.0479 9.34236 11.472 8.39662 11.472 7.35191C11.472 6.30723 11.0479 5.3608 10.3634 4.67626C9.67882 3.9917 8.73306 3.56834 7.68842 3.56834C6.64379 3.56834 5.69803 3.9917 5.01346 4.67626ZM11.9656 12.2592L11.9655 12.2593C11.2061 13.6377 10.2805 14.9904 9.39316 16.1646C9.37957 16.181 9.36433 16.2002 9.34969 16.2221C8.75646 17.0044 8.18163 17.7045 7.68775 18.2768C7.1946 17.705 6.61993 17.0039 6.02683 16.2218C6.01249 16.2001 5.99713 16.1808 5.98457 16.1656C5.09715 14.9906 4.1715 13.6377 3.41132 12.2593L3.27997 12.3317L3.41132 12.2593C2.45351 10.5225 1.77602 8.77991 1.77602 7.35122C1.77602 5.71862 2.43736 4.24039 3.50748 3.17028C4.57759 2.10016 6.05582 1.43882 7.68842 1.43882C9.32102 1.43882 10.7993 2.10016 11.8694 3.17028C12.9395 4.24039 13.6008 5.71862 13.6008 7.35122C13.6008 8.77924 12.924 10.5226 11.9656 12.2592ZM11.0331 16.222C11.776 15.1923 12.5191 14.0616 13.1535 12.912L13.1535 12.912C14.1941 11.0248 14.9579 9.0564 14.9579 7.35122C14.9579 5.344 14.144 3.52677 12.8288 2.21156C11.5136 0.896342 9.69633 0.0824219 7.68911 0.0824219C5.68189 0.0824219 3.86466 0.896342 2.54945 2.21156C1.23423 3.52677 0.420312 5.344 0.420312 7.35122C0.420312 9.05708 1.18417 11.0254 2.22469 12.912C2.85837 14.0614 3.60195 15.192 4.34481 16.2215C3.65924 16.4655 3.0628 16.784 2.59398 17.1607C1.869 17.743 1.4291 18.4758 1.4291 19.2987C1.4291 20.4015 2.21819 21.3405 3.42675 21.9769C4.53466 22.5608 6.04233 22.9174 7.68842 22.9174C9.3346 22.9174 10.8423 22.5601 11.9501 21.9769C13.1587 21.3405 13.9477 20.4015 13.9477 19.2987C13.9477 18.4751 13.5078 17.743 12.7829 17.1607C12.3143 16.7842 11.7177 16.4658 11.0331 16.222ZM7.68842 4.92405C8.35912 4.92405 8.96519 5.1955 9.40467 5.63498C9.84413 6.07444 10.1156 6.6812 10.1156 7.35122C10.1156 8.02125 9.84413 8.62801 9.40467 9.06747C8.96521 9.50693 8.35845 9.7784 7.68842 9.7784C7.01773 9.7784 6.41166 9.50694 5.97218 9.06747C5.53272 8.62801 5.26125 8.02125 5.26125 7.35122C5.26125 6.68053 5.53271 6.07446 5.97218 5.63498C6.41164 5.19552 7.0184 4.92405 7.68842 4.92405Z" fill="#898989" stroke="#898989" stroke-width="0.3"/>
</svg>
