<?xml version="1.0" encoding="UTF-8"?>
<svg width="42" height="42" version="1.1" viewBox="-1 -1 45 45" xmlns="http://www.w3.org/2000/svg">
<g transform="matrix(.26752 0 0 .26752 0 5.6e-7)" fill="none">
<g transform="translate(-867,-415)" fill="#fff">
<g transform="translate(867,415)">
<path d="m11.16 55.796c0-24.644 19.989-44.637 44.639-44.637 12.722 0 24.176 5.3564 32.309 13.9l7.8921-7.8918c-10.151-10.565-24.395-17.167-40.202-17.167-30.819 0-55.798 24.988-55.798 55.796 0 15.806 6.6021 30.049 17.168 40.204l7.8921-7.8962c-8.5483-8.1283-13.9-19.582-13.9-32.308z"/>
<path d="m55.274 31.757c6.9184 0 13.07 3.0427 17.373 7.7972l8.3528-8.3522c-6.4339-6.8755-15.567-11.202-25.726-11.202-19.485 0-35.274 15.801-35.274 35.271 0 10.158 4.3222 19.291 11.198 25.729l8.3528-8.3522c-4.7549-4.3078-7.7931-10.464-7.7931-17.377 0-12.98 10.526-23.514 23.516-23.514z"/>
<path d="m147.96 20h-32.728v13.7h28.066v18.267h-11.567c-1.1142-7.1105-7.2242-12.582-14.636-12.582-8.1969 0-14.859 6.6676-14.859 14.865 0 5.6766-4.6213 10.298-10.293 10.298-5.352 0-9.713-4.1193-10.202-9.3483v-3.2333h-16.302c-1.0594-5.2107-5.6625-9.1336-11.183-9.1336-6.3064 0-11.416 5.1148-11.416 11.417s5.1099 11.417 11.416 11.417c5.5209 0 10.124-3.9229 11.183-9.1336h11.873c1.1097 7.1105 7.2242 12.582 14.636 12.582 8.1969 0 14.859-6.6676 14.859-14.865 0-5.6766 4.6213-10.298 10.293-10.298 5.6807 0 10.302 4.6216 10.302 10.298l0.0731 2.2834h15.823v86.77h-109.6v-28.036h-13.7v32.694c-3e-5 4.9961 4.0459 9.0377 9.0371 9.0377h118.93c4.9866 0 9.0371-4.0462 9.0371-9.0377v-118.92c-0.00457-4.9915-4.0551-9.0377-9.0417-9.0377z"/>
<g transform="translate(51,96)">
<path d="m17.213 19.319c0 2.0295-0.47 3.5734-1.421 4.6318-0.94552 1.0584-2.2615 1.5828-3.948 1.5828-1.6478 0-2.9472-0.52921-3.9093-1.5973-0.95105-1.0584-1.4321-2.6024-1.4321-4.6173v-19.319h-6.5025v19.319c0 3.3403 1.0948 5.9621 3.2844 7.8459 2.1896 1.8935 5.0428 2.8354 8.5595 2.8354 3.5333 0 6.3975-0.93704 8.5982-2.8257 2.2007-1.8789 3.301-4.5007 3.301-7.8556v-19.319h-6.5302v19.319z"/>
<polygon points="50.514 0 50.514 12.966 39.726 12.966 39.726 0 33.24 0 33.24 30 39.726 30 39.726 17.497 50.514 17.497 50.514 30 56.983 30 56.983 0"/>
<polygon points="85.475 0 66.481 0 66.481 30 72.919 30 72.919 17.457 83.473 17.457 83.473 12.922 72.919 12.922 72.919 4.5502 85.475 4.5502"/>
</g>
</g>
</g>
</g>
</svg>
