<svg width="34" height="30" viewBox="0 0 34 30" fill="none" xmlns="http://www.w3.org/2000/svg">
<path d="M12.6921 22.2422C12.7314 22.0704 12.6761 21.8816 12.5265 21.765C12.3847 21.6499 12.1944 21.6236 12.0356 21.6924C11.7643 21.5295 11.4608 21.4095 11.1302 21.3496C10.7838 21.2869 10.4403 21.2979 10.1198 21.3618C10.0232 21.3118 9.90512 21.2904 9.78636 21.3177C9.63326 21.355 9.51742 21.456 9.46027 21.592C8.7357 21.9567 8.1881 22.6462 8.03417 23.4964C7.77192 24.9448 8.73249 26.3301 10.1809 26.5924C11.6294 26.8546 13.0147 25.8941 13.2769 24.4456C13.433 23.6283 13.1863 22.8357 12.6921 22.2422Z" fill="#898989"/>
<path d="M26.6277 11.8039C26.6915 11.8561 26.7659 11.894 26.8446 11.9082C27.0099 11.9381 27.1909 11.8815 27.2982 11.7383L27.3489 11.6824C27.5162 11.477 27.4888 11.1793 27.2847 11.0042C27.0793 10.8369 26.7816 10.8643 26.6065 11.0683L26.5557 11.1242C26.3884 11.3297 26.4237 11.6287 26.6277 11.8039Z" fill="#898989"/>
<path d="M9.13872 18.1413C9.07914 17.8866 8.8157 17.7251 8.56101 17.7847C8.30632 17.8443 8.1448 18.1077 8.20438 18.3624L8.22304 18.4389C8.26898 18.6342 8.42364 18.7679 8.60469 18.8007C8.66767 18.8121 8.7335 18.8078 8.80075 18.7956C9.05544 18.736 9.21695 18.4726 9.15738 18.2179L9.13872 18.1413Z" fill="#898989"/>
<path d="M8.39018 14.957C8.3306 14.7023 8.06717 14.5408 7.81248 14.6004C7.55779 14.6599 7.39627 14.9234 7.45585 15.1781L7.47451 15.2546C7.52045 15.4499 7.6751 15.5836 7.85616 15.6164C7.91913 15.6278 7.98496 15.6235 8.05221 15.6112C8.3069 15.5517 8.46842 15.2882 8.40884 15.0335L8.39018 14.957Z" fill="#898989"/>
<path d="M7.64799 11.7822C7.58842 11.5275 7.33285 11.3674 7.07029 11.4256C6.8156 11.4851 6.65408 11.7486 6.71366 12.0033L6.73232 12.0798C6.77826 12.2751 6.93291 12.4088 7.11397 12.4416C7.17695 12.453 7.24278 12.4487 7.31003 12.4364C7.56472 12.3769 7.72623 12.1134 7.66665 11.8587L7.64799 11.7822Z" fill="#898989"/>
<path d="M8.84839 6.90178C8.85266 6.87816 8.85049 6.84525 8.8469 6.82021C8.96039 5.47491 8.02425 4.22412 6.6624 3.97755C5.21394 3.7153 3.82865 4.67586 3.5664 6.12431C3.30415 7.57276 4.26471 8.95805 5.71316 9.2203C5.94145 9.26164 6.16757 9.27006 6.39009 9.25344C6.44519 9.26341 6.51102 9.25907 6.5704 9.24543C6.59544 9.24184 6.62191 9.23037 6.63908 9.22535C7.71368 9.0378 8.61179 8.20854 8.81703 7.07497C8.81846 7.06709 8.81846 7.06709 8.81988 7.05922C8.82843 7.01199 8.84628 6.95831 8.84839 6.90178Z" fill="#898989"/>
<path d="M24.6055 7.97435C24.6291 7.97863 24.6527 7.9829 24.6778 7.97931L24.7579 7.98569C25.0248 7.99336 25.2486 7.78998 25.2563 7.52308C25.264 7.25618 25.0606 7.03236 24.7937 7.02469L24.7135 7.01831C24.4466 7.01063 24.2228 7.21401 24.2151 7.48092C24.2024 7.73065 24.3693 7.93159 24.6055 7.97435Z" fill="#898989"/>
<path d="M14.7612 7.60667C14.7849 7.61095 14.8085 7.61523 14.8335 7.61163L14.9137 7.61801C15.1806 7.62569 15.4044 7.4223 15.412 7.1554C15.4197 6.8885 15.2163 6.66469 14.9494 6.65701L14.8693 6.65063C14.6024 6.64296 14.3786 6.84634 14.3709 7.11324C14.3596 7.3551 14.5251 7.56392 14.7612 7.60667Z" fill="#898989"/>
<path d="M18.04 7.72875C18.0637 7.73302 18.0873 7.7373 18.1123 7.7337L18.1925 7.74008C18.4594 7.74776 18.6832 7.54438 18.6909 7.27748C18.6985 7.01057 18.4952 6.78676 18.2282 6.77908L18.1481 6.7727C17.8812 6.76503 17.6574 6.96841 17.6497 7.23531C17.6384 7.47717 17.8118 7.68741 18.04 7.72875Z" fill="#898989"/>
<path d="M11.5474 7.4881L11.6275 7.49448C11.8944 7.50215 12.1182 7.29877 12.1259 7.03187C12.1336 6.76497 11.9302 6.54115 11.6633 6.53348L11.5832 6.5271C11.3163 6.51942 11.0924 6.7228 11.0848 6.9897C11.0735 7.23157 11.2468 7.44181 11.4751 7.48314C11.5001 7.47954 11.5238 7.48382 11.5474 7.4881Z" fill="#898989"/>
<path d="M21.3267 7.85228C21.3503 7.85656 21.3739 7.86083 21.3989 7.85724L21.4791 7.86362C21.746 7.87129 21.9698 7.66791 21.9775 7.40101C21.9852 7.13411 21.7818 6.91029 21.5149 6.90262L21.4347 6.89624C21.1678 6.88856 20.944 7.09194 20.9363 7.35885C20.9172 7.59928 21.0905 7.80952 21.3267 7.85228Z" fill="#898989"/>
<path d="M27.4926 7.61088C27.4891 7.76472 27.5543 7.89848 27.6596 7.99071C27.9129 8.97153 28.712 9.76662 29.7669 9.95761C31.2153 10.2199 32.6006 9.2593 32.8629 7.81085C33.1251 6.3624 32.1646 4.9771 30.7161 4.71485C29.2677 4.4526 27.8824 5.41316 27.6201 6.86161C27.5902 7.02693 27.576 7.19509 27.579 7.35823C27.5254 7.42983 27.4925 7.52144 27.4926 7.61088Z" fill="#898989"/>
</svg>
