<svg width="25" height="25" viewBox="0 0 25 25" fill="none" xmlns="http://www.w3.org/2000/svg">
<g clip-path="url(#clip0_586_50951)">
<path d="M8.61836 9.57661L7.92696 10.7223C7.87147 10.8129 7.83506 10.9139 7.81995 11.0191C7.80484 11.1243 7.81134 11.2315 7.83907 11.334C7.86713 11.4389 7.91624 11.5369 7.98339 11.6222C8.05054 11.7075 8.13434 11.7782 8.22969 11.8301L8.49453 11.9723C8.46964 12.1471 8.45711 12.3235 8.45703 12.5001C8.45703 12.6747 8.46992 12.8516 8.48008 13.0321L8.23008 13.17C8.13473 13.2219 8.05093 13.2926 7.98378 13.3779C7.91663 13.4632 7.86752 13.5612 7.83946 13.6661C7.81173 13.7686 7.80519 13.8756 7.82024 13.9807C7.83528 14.0859 7.87159 14.1868 7.92696 14.2774L8.61914 15.4235C8.7326 15.6047 8.91098 15.7358 9.11783 15.7899C9.32469 15.8439 9.54439 15.817 9.73203 15.7145L9.98516 15.5751C9.99723 15.5706 10.0103 15.5695 10.0229 15.5718C10.0356 15.5741 10.0474 15.5799 10.057 15.5883C10.3328 15.7904 10.633 15.957 10.9504 16.084C10.9639 16.0891 10.9761 16.0972 10.9859 16.1079V16.3844C10.9887 16.5999 11.0769 16.8054 11.231 16.956C11.3852 17.1066 11.5927 17.1898 11.8082 17.1875H13.1918C13.4073 17.1899 13.615 17.1067 13.7693 16.9562C13.9235 16.8056 14.0117 16.6 14.0145 16.3844V16.111C14.0232 16.0983 14.036 16.0889 14.0508 16.0844C14.3679 15.9574 14.6678 15.791 14.9434 15.5891C14.9531 15.5805 14.9649 15.5747 14.9776 15.5723C14.9903 15.5699 15.0035 15.571 15.0156 15.5754L15.2688 15.7149C15.4564 15.8177 15.6762 15.8448 15.8832 15.7907C16.0902 15.7366 16.2687 15.6054 16.382 15.4239L17.0734 14.2782C17.1289 14.1875 17.1653 14.0866 17.1804 13.9814C17.1956 13.8762 17.1891 13.769 17.1613 13.6665C17.1333 13.5616 17.0842 13.4635 17.017 13.3783C16.9499 13.293 16.8661 13.2222 16.7707 13.1704L16.5059 13.0282C16.5306 12.8532 16.543 12.6767 16.543 12.5001C16.543 12.3254 16.5301 12.1485 16.5199 11.968L16.7699 11.8301C16.8653 11.7782 16.9491 11.7075 17.0162 11.6222C17.0834 11.5369 17.1325 11.4389 17.1605 11.334C17.1883 11.2315 17.1948 11.1245 17.1798 11.0194C17.1647 10.9142 17.1284 10.8133 17.073 10.7227L16.3809 9.57661C16.2675 9.39524 16.0892 9.26406 15.8822 9.20996C15.6753 9.15585 15.4556 9.18291 15.268 9.2856L15.0148 9.42505C15.0028 9.42959 14.9897 9.43076 14.9771 9.42842C14.9644 9.42608 14.9526 9.42032 14.943 9.41177C14.6672 9.20965 14.367 9.0431 14.0496 8.91607C14.0361 8.91102 14.0239 8.90286 14.0141 8.89224V8.61568C14.0113 8.40021 13.9232 8.19465 13.769 8.04409C13.6148 7.89353 13.4073 7.81026 13.1918 7.81255H11.8082C11.5927 7.81015 11.385 7.89337 11.2308 8.04395C11.0765 8.19452 10.9883 8.40014 10.9855 8.61568V8.88911C10.9768 8.90181 10.964 8.91117 10.9492 8.91568C10.6321 9.04274 10.3322 9.20915 10.0566 9.41099C10.0469 9.41953 10.0351 9.4253 10.0224 9.42771C10.0097 9.43011 9.99654 9.42906 9.98438 9.42466L9.73125 9.28521C9.54352 9.18294 9.32385 9.15615 9.11704 9.2103C8.91024 9.26445 8.73188 9.39547 8.61836 9.57661ZM9.28711 9.98091C9.29523 9.97161 9.30632 9.96539 9.31849 9.96333C9.33066 9.96126 9.34318 9.96347 9.35391 9.96958L9.60703 10.109C9.74962 10.1855 9.91103 10.2198 10.0724 10.208C10.2338 10.1962 10.3884 10.1387 10.5184 10.0422C10.7411 9.87887 10.9835 9.74409 11.2398 9.64107C11.3928 9.58368 11.5249 9.48153 11.6189 9.34795C11.7129 9.21437 11.7644 9.05556 11.7668 8.89224V8.61568C11.7668 8.61021 11.7809 8.5938 11.8082 8.5938H13.1918C13.2191 8.5938 13.2332 8.61021 13.2332 8.61568V8.89224C13.2356 9.0555 13.2871 9.21425 13.3811 9.34782C13.475 9.48138 13.6069 9.58357 13.7598 9.64107C14.0163 9.74408 14.259 9.87886 14.482 10.0422C14.6119 10.1387 14.7665 10.1962 14.9278 10.208C15.0891 10.2199 15.2505 10.1855 15.393 10.109L15.6461 9.96958C15.6568 9.9636 15.6691 9.96143 15.6812 9.96341C15.6933 9.9654 15.7043 9.97143 15.7125 9.98052L16.3922 11.1465L16.1426 11.284C16.0014 11.3602 15.8865 11.4773 15.8131 11.6199C15.7397 11.7626 15.7112 11.9241 15.7313 12.0833C15.7719 12.3596 15.7719 12.6405 15.7313 12.9168C15.7112 13.0759 15.7396 13.2373 15.813 13.3799C15.8863 13.5225 16.0011 13.6395 16.1422 13.7157L16.4043 13.8719L15.7129 15.0176C15.7047 15.0267 15.6936 15.0328 15.6815 15.0349C15.6693 15.0369 15.6569 15.0348 15.6461 15.029L15.393 14.8895C15.2504 14.8131 15.089 14.7788 14.9276 14.7907C14.7663 14.8025 14.6116 14.8599 14.4816 14.9563C14.2589 15.1197 14.0165 15.2544 13.7602 15.3575C13.6072 15.4149 13.4752 15.517 13.3812 15.6506C13.2872 15.7842 13.2356 15.943 13.2332 16.1063V16.3829C13.2332 16.3883 13.2191 16.4047 13.1918 16.4047H11.8082C11.7809 16.4047 11.7668 16.3883 11.7668 16.3829V16.1063C11.7644 15.943 11.7129 15.7843 11.6189 15.6507C11.525 15.5172 11.3931 15.415 11.2402 15.3575C10.9837 15.2545 10.741 15.1197 10.518 14.9563C10.3692 14.8472 10.1896 14.7883 10.0051 14.7879C9.86592 14.7874 9.72891 14.8223 9.60703 14.8895L9.35391 15.029C9.34322 15.0349 9.33086 15.037 9.31881 15.035C9.30676 15.033 9.29573 15.027 9.2875 15.018L8.60782 13.852L8.85742 13.7145C8.99863 13.6384 9.11348 13.5213 9.1869 13.3786C9.26031 13.236 9.28885 13.0744 9.26875 12.9153C9.22813 12.6389 9.22813 12.3581 9.26875 12.0817C9.28885 11.9226 9.26036 11.7612 9.18702 11.6186C9.11367 11.4761 8.99891 11.359 8.85782 11.2829L8.59571 11.1266L9.28711 9.98091Z" fill="#2E2E2E" fill-opacity="0.8"/>
<path d="M12.5 14.6484C12.9249 14.6484 13.3403 14.5224 13.6936 14.2864C14.0469 14.0503 14.3223 13.7147 14.4849 13.3222C14.6475 12.9296 14.6901 12.4976 14.6072 12.0809C14.5243 11.6641 14.3196 11.2813 14.0192 10.9808C13.7187 10.6804 13.3359 10.4757 12.9191 10.3928C12.5024 10.3099 12.0704 10.3525 11.6778 10.5151C11.2853 10.6777 10.9497 10.9531 10.7136 11.3064C10.4776 11.6597 10.3516 12.0751 10.3516 12.5C10.3522 13.0696 10.5787 13.6157 10.9815 14.0185C11.3843 14.4213 11.9304 14.6478 12.5 14.6484ZM12.5 11.1328C12.7704 11.1328 13.0347 11.213 13.2596 11.3632C13.4844 11.5135 13.6596 11.727 13.7631 11.9768C13.8666 12.2266 13.8937 12.5015 13.8409 12.7667C13.7882 13.0319 13.658 13.2755 13.4667 13.4667C13.2755 13.658 13.0319 13.7882 12.7667 13.8409C12.5015 13.8937 12.2266 13.8666 11.9768 13.7631C11.727 13.6596 11.5135 13.4844 11.3632 13.2596C11.213 13.0347 11.1328 12.7704 11.1328 12.5C11.1328 12.1374 11.2769 11.7897 11.5333 11.5333C11.7896 11.2769 12.1374 11.1328 12.5 11.1328Z" fill="#2E2E2E" fill-opacity="0.8"/>
<path d="M12.4998 14.7984H12.5C12.9546 14.7984 13.399 14.6636 13.7769 14.4111C14.1549 14.1585 14.4495 13.7996 14.6235 13.3796C14.7974 12.9596 14.843 12.4975 14.7543 12.0516C14.6656 11.6057 14.4467 11.1962 14.1252 10.8748C13.8038 10.5533 13.3943 10.3344 12.9484 10.2457C12.5026 10.157 12.0404 10.2026 11.6204 10.3765C11.2004 10.5505 10.8415 10.8451 10.5889 11.2231C10.3364 11.601 10.2016 12.0454 10.2016 12.5L10.2016 12.5002C10.2022 13.1095 10.4446 13.6937 10.8754 14.1246C11.3063 14.5554 11.8905 14.7978 12.4998 14.7984ZM12.5 11.2828C12.7407 11.2828 12.9761 11.3542 13.1762 11.4879C13.3764 11.6217 13.5324 11.8118 13.6245 12.0342C13.7167 12.2566 13.7408 12.5014 13.6938 12.7375C13.6468 12.9736 13.5309 13.1905 13.3607 13.3607C13.1905 13.5309 12.9736 13.6468 12.7375 13.6938C12.5013 13.7408 12.2566 13.7167 12.0342 13.6245C11.8118 13.5324 11.6217 13.3764 11.4879 13.1762C11.3542 12.9761 11.2828 12.7407 11.2828 12.5C11.2828 12.1772 11.4111 11.8676 11.6393 11.6393C11.8676 11.4111 12.1772 11.2828 12.5 11.2828Z" stroke="#2E2E2E" stroke-opacity="0.8" stroke-width="0.3"/>
<path d="M1.17188 16.0153H5.07812C5.18173 16.0153 5.28108 15.9742 5.35434 15.9009C5.4276 15.8277 5.46875 15.7283 5.46875 15.6247V12.4997C5.46875 12.1889 5.34528 11.8908 5.12552 11.6711C4.90575 11.4513 4.60768 11.3278 4.29688 11.3278H4.14766C4.38854 11.1193 4.55992 10.8421 4.63883 10.5334C4.71773 10.2248 4.70038 9.89934 4.58911 9.6008C4.47784 9.30225 4.27797 9.04486 4.01628 8.86312C3.7546 8.68138 3.4436 8.58398 3.125 8.58398C2.8064 8.58398 2.4954 8.68138 2.23372 8.86312C1.97203 9.04486 1.77216 9.30225 1.66089 9.6008C1.54962 9.89934 1.53227 10.2248 1.61117 10.5334C1.69008 10.8421 1.86146 11.1193 2.10234 11.3278H1.95312C1.64232 11.3278 1.34425 11.4513 1.12448 11.6711C0.904715 11.8908 0.78125 12.1889 0.78125 12.4997V15.6247C0.78125 15.7283 0.822405 15.8277 0.895661 15.9009C0.968918 15.9742 1.06827 16.0153 1.17188 16.0153ZM3.125 9.37471C3.27952 9.37471 3.43056 9.42053 3.55904 9.50637C3.68752 9.59222 3.78765 9.71423 3.84678 9.85698C3.90591 9.99974 3.92138 10.1568 3.89124 10.3084C3.86109 10.4599 3.78669 10.5991 3.67743 10.7084C3.56817 10.8176 3.42896 10.8921 3.27741 10.9222C3.12587 10.9523 2.96878 10.9369 2.82603 10.8777C2.68327 10.8186 2.56126 10.7185 2.47541 10.59C2.38957 10.4615 2.34375 10.3105 2.34375 10.156C2.34375 9.94876 2.42606 9.75004 2.57257 9.60353C2.71909 9.45702 2.9178 9.37471 3.125 9.37471ZM1.5625 12.4997C1.5625 12.3961 1.60366 12.2967 1.67691 12.2235C1.75017 12.1502 1.84952 12.1091 1.95312 12.1091H4.29688C4.40048 12.1091 4.49983 12.1502 4.57309 12.2235C4.64634 12.2967 4.6875 12.3961 4.6875 12.4997V15.2341H1.5625V12.4997Z" fill="#2E2E2E" fill-opacity="0.8"/>
<path d="M1.17188 16.1153H5.07812C5.20825 16.1153 5.33304 16.0636 5.42505 15.9716C5.51706 15.8796 5.56875 15.7548 5.56875 15.6247V12.4997C5.56875 12.1624 5.43475 11.8389 5.19623 11.6004C4.9786 11.3827 4.69022 11.2521 4.38514 11.2309C4.55157 11.0375 4.67199 10.8075 4.73571 10.5582C4.81966 10.2298 4.80121 9.88352 4.68282 9.56587C4.56443 9.24822 4.35176 8.97436 4.07332 8.78099C3.79489 8.58762 3.464 8.48398 3.125 8.48398C2.786 8.48398 2.45511 8.58762 2.17668 8.78099C1.89824 8.97436 1.68557 9.24822 1.56718 9.56587C1.44879 9.88352 1.43034 10.2298 1.51429 10.5582C1.57801 10.8075 1.69843 11.0375 1.86486 11.2309C1.55978 11.2521 1.2714 11.3827 1.05377 11.6004C0.815251 11.8389 0.68125 12.1624 0.68125 12.4997V15.6247C0.68125 15.7548 0.732941 15.8796 0.824951 15.9716C0.916961 16.0636 1.04175 16.1153 1.17188 16.1153ZM3.125 9.47471C3.25974 9.47471 3.39145 9.51466 3.50348 9.58952C3.61551 9.66437 3.70283 9.77077 3.75439 9.89525C3.80596 10.0197 3.81945 10.1567 3.79316 10.2889C3.76687 10.421 3.70199 10.5424 3.60672 10.6377C3.51144 10.7329 3.39005 10.7978 3.25791 10.8241C3.12576 10.8504 2.98878 10.8369 2.8643 10.7853C2.73981 10.7338 2.63342 10.6465 2.55856 10.5344C2.4837 10.4224 2.44375 10.2907 2.44375 10.156C2.44375 9.97528 2.51552 9.802 2.64328 9.67424C2.77104 9.54648 2.94432 9.47471 3.125 9.47471ZM1.6625 12.4997C1.6625 12.4226 1.69312 12.3487 1.74762 12.2942C1.80212 12.2397 1.87605 12.2091 1.95312 12.2091H4.29688C4.37395 12.2091 4.44788 12.2397 4.50238 12.2942C4.55688 12.3487 4.5875 12.4226 4.5875 12.4997V15.1341H1.6625V12.4997Z" stroke="#2E2E2E" stroke-opacity="0.8" stroke-width="0.2"/>
<path d="M23.0469 11.3278H22.8977C23.1385 11.1193 23.3099 10.8421 23.3888 10.5334C23.4677 10.2248 23.4504 9.89934 23.3391 9.6008C23.2278 9.30225 23.028 9.04486 22.7663 8.86312C22.5046 8.68138 22.1936 8.58398 21.875 8.58398C21.5564 8.58398 21.2454 8.68138 20.9837 8.86312C20.722 9.04486 20.5222 9.30225 20.4109 9.6008C20.2996 9.89934 20.2823 10.2248 20.3612 10.5334C20.4401 10.8421 20.6115 11.1193 20.8523 11.3278H20.7031C20.3923 11.3278 20.0943 11.4513 19.8745 11.6711C19.6547 11.8908 19.5312 12.1889 19.5312 12.4997V15.6247C19.5312 15.7283 19.5724 15.8277 19.6457 15.9009C19.7189 15.9742 19.8183 16.0153 19.9219 16.0153H23.8281C23.9317 16.0153 24.0311 15.9742 24.1043 15.9009C24.1776 15.8277 24.2188 15.7283 24.2188 15.6247V12.4997C24.2188 12.1889 24.0953 11.8908 23.8755 11.6711C23.6557 11.4513 23.3577 11.3278 23.0469 11.3278ZM21.875 9.37471C22.0295 9.37471 22.1806 9.42053 22.309 9.50637C22.4375 9.59222 22.5377 9.71423 22.5968 9.85698C22.6559 9.99974 22.6714 10.1568 22.6412 10.3084C22.6111 10.4599 22.5367 10.5991 22.4274 10.7084C22.3182 10.8176 22.179 10.8921 22.0274 10.9222C21.8759 10.9523 21.7188 10.9369 21.576 10.8777C21.4333 10.8186 21.3113 10.7185 21.2254 10.59C21.1396 10.4615 21.0938 10.3105 21.0938 10.156C21.0938 9.94876 21.1761 9.75004 21.3226 9.60353C21.4691 9.45702 21.6678 9.37471 21.875 9.37471ZM23.4375 15.2341H20.3125V12.4997C20.3125 12.3961 20.3537 12.2967 20.4269 12.2235C20.5002 12.1502 20.5995 12.1091 20.7031 12.1091H23.0469C23.1505 12.1091 23.2498 12.1502 23.3231 12.2235C23.3963 12.2967 23.4375 12.3961 23.4375 12.4997V15.2341Z" fill="#2E2E2E" fill-opacity="0.8"/>
<path d="M23.1351 11.2309C23.3016 11.0375 23.422 10.8075 23.4857 10.5582C23.5697 10.2298 23.5512 9.88352 23.4328 9.56587C23.3144 9.24822 23.1018 8.97436 22.8233 8.78099C22.5449 8.58762 22.214 8.48398 21.875 8.48398C21.536 8.48398 21.2051 8.58762 20.9267 8.78099C20.6482 8.97436 20.4356 9.24822 20.3172 9.56587C20.1988 9.88352 20.1803 10.2298 20.2643 10.5582C20.328 10.8075 20.4484 11.0375 20.6149 11.2309C20.3098 11.2521 20.0214 11.3827 19.8038 11.6004C19.5653 11.8389 19.4312 12.1624 19.4312 12.4997V15.6247C19.4312 15.7548 19.4829 15.8796 19.575 15.9716C19.667 16.0636 19.7918 16.1153 19.9219 16.1153H23.8281C23.9582 16.1153 24.083 16.0636 24.175 15.9716C24.2671 15.8796 24.3187 15.7548 24.3187 15.6247V12.4997C24.3187 12.1624 24.1847 11.8389 23.9462 11.6004C23.7286 11.3827 23.4402 11.2521 23.1351 11.2309ZM21.875 9.47471C22.0097 9.47471 22.1415 9.51466 22.2535 9.58952C22.3655 9.66437 22.4528 9.77077 22.5044 9.89525C22.556 10.0197 22.5694 10.1567 22.5432 10.2889C22.5169 10.421 22.452 10.5424 22.3567 10.6377C22.2614 10.7329 22.1401 10.7978 22.0079 10.8241C21.8758 10.8504 21.7388 10.8369 21.6143 10.7853C21.4898 10.7338 21.3834 10.6465 21.3086 10.5344C21.2337 10.4224 21.1938 10.2907 21.1938 10.156C21.1938 9.97528 21.2655 9.802 21.3933 9.67424C21.521 9.54648 21.6943 9.47471 21.875 9.47471ZM20.4125 15.1341V12.4997C20.4125 12.4226 20.4431 12.3487 20.4976 12.2942C20.5521 12.2397 20.626 12.2091 20.7031 12.2091H23.0469C23.124 12.2091 23.1979 12.2397 23.2524 12.2942C23.3069 12.3487 23.3375 12.4226 23.3375 12.4997V15.1341H20.4125Z" stroke="#2E2E2E" stroke-opacity="0.8" stroke-width="0.2"/>
<path d="M7.95186 4.30313L7.74639 4.96055L8.4917 5.19492L8.98428 3.61211C9.01468 3.51369 9.00498 3.40724 8.95728 3.31594C8.90958 3.22463 8.82774 3.15587 8.72959 3.12461L7.14834 2.62891L6.91396 3.37461L7.61709 3.59414C6.05653 4.44897 4.74779 5.69857 3.82178 7.21797L4.48857 7.625C5.33567 6.23633 6.5291 5.09163 7.95186 4.30313Z" fill="#2E2E2E" fill-opacity="0.8"/>
<path d="M17.0612 20.6869L17.2686 20.0162L16.5225 19.7854L16.0331 21.3689C16.0179 21.418 16.0126 21.4695 16.0173 21.5206C16.0221 21.5717 16.0368 21.6213 16.0608 21.6667C16.0847 21.7121 16.1173 21.7523 16.1568 21.785C16.1963 21.8178 16.2419 21.8425 16.2909 21.8576L17.8745 22.3467L18.105 21.6002L17.4128 21.3865C19.0951 20.4503 20.4809 19.0606 21.4124 17.3756L20.728 16.999C19.8729 18.5457 18.603 19.8229 17.0612 20.6869Z" fill="#2E2E2E" fill-opacity="0.8"/>
<path d="M19.9937 6.87461L19.2301 6.72969L19.084 7.49727L20.7125 7.80547C20.7366 7.81013 20.761 7.81248 20.7855 7.8125C20.8765 7.81245 20.9646 7.78066 21.0346 7.72261C21.1046 7.66457 21.1522 7.5839 21.1691 7.49453L21.4773 5.86641L20.7102 5.72109L20.5859 6.3668C19.4462 4.86444 17.9131 3.70664 16.1563 3.02148L15.875 3.74961C17.5119 4.38774 18.9384 5.46999 19.9937 6.87461Z" fill="#2E2E2E" fill-opacity="0.8"/>
<path d="M12.5 5.46875C12.9636 5.46875 13.4167 5.33129 13.8021 5.07376C14.1875 4.81622 14.4879 4.45018 14.6653 4.02192C14.8427 3.59365 14.8891 3.1224 14.7987 2.66776C14.7083 2.21312 14.4851 1.7955 14.1573 1.46772C13.8295 1.13994 13.4119 0.91672 12.9572 0.826286C12.5026 0.735851 12.0314 0.782266 11.6031 0.959658C11.1748 1.13705 10.8088 1.43746 10.5512 1.82288C10.2937 2.20831 10.1563 2.66145 10.1562 3.125C10.1569 3.74641 10.404 4.34219 10.8434 4.7816C11.2828 5.221 11.8786 5.46813 12.5 5.46875ZM12.5 1.5625C12.809 1.5625 13.1111 1.65414 13.3681 1.82583C13.625 1.99752 13.8253 2.24155 13.9436 2.52706C14.0618 2.81257 14.0928 3.12673 14.0325 3.42983C13.9722 3.73292 13.8234 4.01134 13.6049 4.22986C13.3863 4.44837 13.1079 4.59719 12.8048 4.65748C12.5017 4.71777 12.1876 4.68683 11.9021 4.56856C11.6165 4.4503 11.3725 4.25003 11.2008 3.99308C11.0291 3.73613 10.9375 3.43403 10.9375 3.125C10.9375 2.7106 11.1021 2.31317 11.3951 2.02015C11.6882 1.72712 12.0856 1.5625 12.5 1.5625Z" fill="#2E2E2E" fill-opacity="0.8"/>
<path d="M12.4999 5.56875H12.5C12.9833 5.56875 13.4558 5.42543 13.8577 5.1569C14.2595 4.88838 14.5728 4.50672 14.7577 4.06018C14.9427 3.61365 14.9911 3.12229 14.8968 2.64825C14.8025 2.17421 14.5698 1.73877 14.228 1.39701C13.8862 1.05524 13.4508 0.8225 12.9768 0.728207C12.5027 0.633914 12.0114 0.682309 11.5648 0.86727C11.1183 1.05223 10.7366 1.36545 10.4681 1.76733C10.1996 2.1692 10.0562 2.64167 10.0562 3.125L10.0563 3.1251C10.0569 3.773 10.3146 4.39418 10.7727 4.85231C11.2308 5.31044 11.852 5.5681 12.4999 5.56875ZM12.5 1.6625C12.7893 1.6625 13.072 1.74828 13.3125 1.90898C13.553 2.06968 13.7405 2.29809 13.8512 2.56533C13.9619 2.83256 13.9908 3.12662 13.9344 3.41032C13.878 3.69402 13.7387 3.95461 13.5341 4.15914C13.3296 4.36368 13.069 4.50297 12.7853 4.5594C12.5016 4.61583 12.2076 4.58687 11.9403 4.47618C11.6731 4.36548 11.4447 4.17803 11.284 3.93752C11.1233 3.69702 11.0375 3.41426 11.0375 3.125C11.0375 2.73712 11.1916 2.36513 11.4659 2.09086C11.7401 1.81659 12.1121 1.6625 12.5 1.6625Z" stroke="#2E2E2E" stroke-opacity="0.8" stroke-width="0.2"/>
<path d="M14.8438 21.875C14.8438 21.4115 14.7063 20.9583 14.4488 20.5729C14.1912 20.1875 13.8252 19.8871 13.3969 19.7097C12.9687 19.5323 12.4974 19.4859 12.0428 19.5763C11.5881 19.6667 11.1705 19.8899 10.8427 20.2177C10.5149 20.5455 10.2917 20.9631 10.2013 21.4178C10.1109 21.8724 10.1573 22.3437 10.3347 22.7719C10.5121 23.2002 10.8125 23.5662 11.1979 23.8238C11.5833 24.0813 12.0365 24.2188 12.5 24.2188C13.1214 24.2181 13.7172 23.971 14.1566 23.5316C14.596 23.0922 14.8431 22.4964 14.8438 21.875ZM12.5 23.4375C12.191 23.4375 11.8889 23.3459 11.6319 23.1742C11.375 23.0025 11.1747 22.7585 11.0564 22.4729C10.9382 22.1874 10.9072 21.8733 10.9675 21.5702C11.0278 21.2671 11.1766 20.9887 11.3951 20.7701C11.6137 20.5516 11.8921 20.4028 12.1952 20.3425C12.4983 20.2822 12.8124 20.3132 13.0979 20.4314C13.3835 20.5497 13.6275 20.75 13.7992 21.0069C13.9709 21.2639 14.0625 21.566 14.0625 21.875C14.0625 22.2894 13.8979 22.6868 13.6049 22.9799C13.3118 23.2729 12.9144 23.4375 12.5 23.4375Z" fill="#2E2E2E" fill-opacity="0.8"/>
<path d="M14.9438 21.8751V21.875C14.9438 21.3917 14.8004 20.9192 14.5319 20.5173C14.2634 20.1155 13.8817 19.8022 13.4352 19.6173C12.9886 19.4323 12.4973 19.3839 12.0232 19.4782C11.5492 19.5725 11.1138 19.8052 10.772 20.147C10.4302 20.4888 10.1975 20.9242 10.1032 21.3982C10.0089 21.8723 10.0573 22.3636 10.2423 22.8102C10.4272 23.2567 10.7405 23.6384 11.1423 23.9069C11.5442 24.1754 12.0167 24.3188 12.5 24.3188H12.5001C13.148 24.3181 13.7692 24.0604 14.2273 23.6023C14.6854 23.1442 14.9431 22.523 14.9438 21.8751ZM12.5 23.3375C12.2107 23.3375 11.928 23.2517 11.6875 23.091C11.447 22.9303 11.2595 22.7019 11.1488 22.4347C11.0381 22.1674 11.0092 21.8734 11.0656 21.5897C11.122 21.306 11.2613 21.0454 11.4659 20.8409C11.6704 20.6363 11.931 20.497 12.2147 20.4406C12.4984 20.3842 12.7924 20.4131 13.0597 20.5238C13.3269 20.6345 13.5553 20.822 13.716 21.0625C13.8767 21.303 13.9625 21.5857 13.9625 21.875C13.9625 22.2629 13.8084 22.6349 13.5341 22.9091C13.2599 23.1834 12.8879 23.3375 12.5 23.3375Z" stroke="#2E2E2E" stroke-opacity="0.8" stroke-width="0.2"/>
<path d="M5.84141 17.4431L4.20391 17.1873C4.1532 17.1794 4.10143 17.1815 4.05156 17.1937C4.00169 17.2058 3.9547 17.2276 3.91327 17.2579C3.87185 17.2882 3.83679 17.3264 3.81012 17.3702C3.78344 17.4141 3.76567 17.4627 3.75781 17.5134L3.50391 19.1509L4.27578 19.2709L4.38125 18.5908C5.52388 20.1135 7.0698 21.2861 8.84414 21.9759L9.12461 21.247C7.4782 20.6072 6.04497 19.5171 4.98867 18.1013L5.72148 18.2154L5.84141 17.4431Z" fill="#2E2E2E" fill-opacity="0.8"/>
</g>
<defs>
<clipPath id="clip0_586_50951">
<rect width="25" height="25" fill="white"/>
</clipPath>
</defs>
</svg>
