<svg width="50" height="50" viewBox="0 0 50 50" fill="none" xmlns="http://www.w3.org/2000/svg">
<path d="M23.9583 50V49.884H22.4537V49.768H21.412V49.652H20.7176V49.536H20.1389V49.42H19.4444V49.3039H18.9815V49.1879H18.6343V49.0719H18.1713V48.9559H17.8241V48.8399H17.3611V48.7239H17.0139V48.6079H16.6667V48.4919H16.4352V48.3759H16.088V48.2599H15.7407V48.1439H15.5093V48.0278H15.162V47.9118H14.9306V47.7958H14.6991V47.6798H14.4676V47.5638H14.2361V47.4478H14.0046V47.3318H13.7731V47.2158H13.5417V47.0998H13.3102V46.9838H13.0787V46.8677H12.8472V46.7517H12.6157V46.6357H12.3843V46.5197H12.2685V46.4037H12.037V46.2877H11.9213V46.1717H11.6898V46.0557H11.4583V45.9397H11.3426V45.8237H11.1111V45.7077H10.9954V45.5916H10.7639V45.4756H10.6481V45.3596H10.4167V45.2436H10.3009V45.1276H10.1852V45.0116H9.9537V44.8956H9.83796V44.7796H9.72222V44.6636H9.60648V44.5476H9.375V44.4316H9.25926V44.3155H9.14352V44.1995H8.91204V44.0835H8.7963V43.9675H8.68056V43.8515H8.56481V43.7355H8.44907V43.6195H8.33333V43.5035H8.21759V43.3875H8.10185V43.2715H7.98611V43.1555H7.87037V43.0394H7.63889V42.9234H7.52315V42.8074H7.40741V42.6914H7.29167V42.5754H7.17593V42.4594H7.06019V42.3434H6.94444V42.2274H6.8287V42.1114H6.71296V41.8794H6.59722V41.7633H6.48148V41.6473H6.36574V41.5313H6.25V41.4153H6.13426V41.2993H6.01852V41.1833H5.90278V40.9513H5.78704V40.8353H5.6713V40.7193H5.55556V40.6032H5.43981V40.4872H5.32407V40.2552H5.20833V40.1392H5.09259V40.0232H4.97685V39.7912H4.86111V39.6752H4.74537V39.4432H4.62963V39.3271H4.51389V39.2111H4.39815V38.9791H4.28241V38.8631H4.16667V38.7471H4.05093V38.5151H3.93519V38.2831H3.81944V38.1671H3.7037V37.935H3.58796V37.703H3.47222V37.471H3.35648V37.355H3.24074V37.123H3.125V36.891H3.00926V36.7749H2.89352V36.5429H2.77778V36.3109H2.66204V36.0789H2.5463V35.7309H2.43056V35.4988H2.31481V35.2668H2.19907V35.0348H2.08333V34.8028H1.96759V34.4548H1.85185V34.2227H1.73611V33.8747H1.62037V33.5267H1.50463V33.1787H1.38889V32.9466H1.27315V32.5986H1.15741V32.2506H1.04167V31.9026H0.925926V31.3225H0.810185V30.8585H0.694444V30.3944H0.578704V29.8144H0.462963V29.3503H0.347222V28.5383H0.231481V27.7262H0.115741V26.3341H0V23.8979H0.115741V22.3898H0.231481V21.3457H0.347222V20.7657H0.462963V20.0696H0.578704V19.3736H0.694444V18.9095H0.810185V18.5615H0.925926V18.0974H1.04167V17.7494H1.15741V17.2854H1.27315V16.9374H1.38889V16.5893H1.50463V16.3573H1.62037V16.0093H1.73611V15.7773H1.85185V15.4292H1.96759V15.0812H2.08333V14.8492H2.19907V14.6172H2.31481V14.3852H2.43056V14.1531H2.5463V13.9211H2.66204V13.6891H2.77778V13.4571H2.89352V13.2251H3.00926V12.993H3.125V12.761H3.24074V12.529H3.35648V12.297H3.47222V12.181H3.58796V11.949H3.7037V11.8329H3.81944V11.6009H3.93519V11.3689H4.05093V11.2529H4.16667V11.0209H4.28241V10.9049H4.39815V10.6729H4.51389V10.5568H4.62963V10.3248H4.74537V10.2088H4.86111V10.0928H4.97685V9.86079H5.09259V9.74478H5.20833V9.62877H5.32407V9.51276H5.43981V9.28074H5.55556V9.16473H5.6713V9.04872H5.78704V8.93271H5.90278V8.7007H6.01852V8.58469H6.13426V8.46868H6.25V8.35267H6.36574V8.23666H6.48148V8.12065H6.59722V8.00464H6.71296V7.88863H6.8287V7.77262H6.94444V7.65661H7.06019V7.42459H7.17593V7.30858H7.29167V7.19258H7.40741V7.07657H7.52315V6.96056H7.63889V6.84455H7.75463V6.72854H7.87037V6.61253H8.10185V6.49652H8.21759V6.38051H8.33333V6.2645H8.44907V6.14849H8.56481V6.03248H8.68056V5.91647H8.7963V5.80046H9.02778V5.68446H9.14352V5.56845H9.25926V5.45244H9.375V5.33643H9.49074V5.22042H9.72222V5.10441H9.83796V4.9884H9.9537V4.87239H10.1852V4.75638H10.3009V4.64037H10.5324V4.52436H10.6481V4.40835H10.7639V4.29234H10.9954V4.17633H11.1111V4.06033H11.3426V3.94432H11.4583V3.82831H11.6898V3.7123H11.9213V3.59629H12.037V3.48028H12.2685V3.36427H12.5V3.24826H12.6157V3.13225H12.8472V3.01624H13.0787V2.90023H13.3102V2.78422H13.4259V2.66821H13.6574V2.5522H14.0046V2.4362H14.2361V2.32019H14.4676V2.20418H14.6991V2.08817H14.9306V1.97216H15.2778V1.85615H15.5093V1.74014H15.7407V1.62413H16.088V1.50812H16.4352V1.39211H16.7824V1.2761H17.1296V1.16009H17.4769V1.04408H17.8241V0.928075H18.1713V0.812065H18.6343V0.696056H19.0972V0.580047H19.6759V0.464037H20.1389V0.348028H20.7176V0.232019H21.5278V0.11601H22.338V2.83122e-07H27.662V0.11601H28.4722V0.232019H29.1667V0.348028H29.9769V0.464037H30.4398V0.580047H30.9028V0.696056H31.3657V0.812065H31.8287V0.928075H32.2917V1.04408H32.6389V1.16009H32.8704V1.2761H33.2176V1.39211H33.5648V1.50812H33.912V1.62413H34.2593V1.74014H34.4907V1.85615H34.7222V1.97216H35.0694V2.08817H35.3009V2.20418H35.5324V2.32019H35.7639V2.4362H35.9954V2.5522H36.2269V2.66821H36.5741V2.78422H36.6898V2.90023H36.9213V3.01624H37.1528V3.13225H37.2685V3.24826H37.5V3.36427H37.7315V3.48028H37.963V3.59629H38.0787V3.7123H38.3102V3.82831H38.5417V3.94432H38.6574V4.06033H38.8889V4.17633H39.0046V4.29234H39.1204V4.40835H39.3519V4.52436H39.4676V4.64037H39.6991V4.75638H39.8148V4.87239H40.0463V4.9884H40.162V5.10441H40.2778V5.22042H40.3935V5.33643H40.625V5.45244H40.7407V5.56845H40.8565V5.68446H40.9722V5.80046H41.088V5.91647H41.3194V6.03248H41.4352V6.14849H41.5509V6.2645H41.6667V6.38051H41.7824V6.49652H41.8981V6.61253H42.1296V6.72854H42.2454V6.96056H42.3611V7.07657H42.4769V7.19258H42.5926V7.30858H42.7083V7.42459H42.8241V7.5406H42.9398V7.65661H43.0556V7.77262H43.1713V7.88863H43.287V8.00464H43.4028V8.12065H43.5185V8.23666H43.6343V8.35267H43.75V8.46868H43.8657V8.58469H43.9815V8.81671H44.0972V8.93271H44.213V9.04872H44.3287V9.16473H44.4444V9.28074H44.5602V9.51276H44.6759V9.62877H44.7917V9.74478H44.9074V9.86079H45.0231V10.0928H45.1389V10.2088H45.2546V10.4408H45.3704V10.5568H45.4861V10.7889H45.6019V10.9049H45.7176V11.1369H45.8333V11.2529H45.9491V11.3689H46.0648V11.6009H46.1806V11.7169H46.2963V11.949H46.412V12.181H46.5278V12.413H46.6435V12.529H46.7593V12.761H46.875V12.993H46.9907V13.2251H47.1065V13.4571H47.2222V13.6891H47.338V13.8051H47.4537V14.1531H47.5694V14.3852H47.6852V14.6172H47.8009V14.9652H47.9167V15.1972H48.0324V15.4292H48.1481V15.6613H48.2639V16.0093H48.3796V16.3573H48.4954V16.7053H48.6111V17.0534H48.7269V17.4014H48.8426V17.7494H48.9583V18.0974H49.0741V18.5615H49.1898V19.0255H49.3056V19.6056H49.4213V20.0696H49.537V20.6497H49.6528V21.4617H49.7685V22.2738H49.8843V24.594H50V25.7541H49.8843V27.2622H49.7685V28.4223H49.6528V29.1183H49.537V29.8144H49.4213V30.3944H49.3056V30.8585H49.1898V31.3225H49.0741V31.6705H48.9583V32.1346H48.8426V32.4826H48.7269V32.9466H48.6111V33.2947H48.4954V33.5267H48.3796V33.8747H48.2639V34.1067H48.1481V34.4548H48.0324V34.6868H47.9167V35.0348H47.8009V35.2668H47.6852V35.4988H47.5694V35.7309H47.4537V35.9629H47.338V36.1949H47.2222V36.4269H47.1065V36.6589H46.9907V36.891H46.875V37.123H46.7593V37.355H46.6435V37.587H46.5278V37.703H46.412V37.935H46.2963V38.051H46.1806V38.2831H46.0648V38.3991H45.9491V38.6311H45.8333V38.8631H45.7176V38.9791H45.6019V39.2111H45.4861V39.3271H45.3704V39.5592H45.2546V39.6752H45.1389V39.7912H45.0231V39.9072H44.9074V40.1392H44.7917V40.2552H44.6759V40.3712H44.5602V40.6032H44.4444V40.7193H44.3287V40.8353H44.213V40.9513H44.0972V41.1833H43.9815V41.2993H43.8657V41.4153H43.75V41.5313H43.6343V41.6473H43.5185V41.7633H43.4028V41.8794H43.287V41.9954H43.1713V42.1114H43.0556V42.2274H42.9398V42.3434H42.8241V42.5754H42.7083V42.6914H42.5926V42.8074H42.4769V42.9234H42.3611V43.0394H42.2454V43.1555H42.0139V43.2715H41.8981V43.3875H41.7824V43.5035H41.6667V43.6195H41.5509V43.7355H41.4352V43.8515H41.3194V43.9675H41.088V44.0835H40.9722V44.1995H40.8565V44.3155H40.7407V44.4316H40.625V44.5476H40.5093V44.6636H40.2778V44.7796H40.162V44.8956H40.0463V45.0116H39.8148V45.1276H39.6991V45.2436H39.4676V45.3596H39.3519V45.4756H39.2361V45.5916H39.0046V45.7077H38.8889V45.8237H38.6574V45.9397H38.5417V46.0557H38.3102V46.1717H38.1944V46.2877H37.963V46.4037H37.7315V46.5197H37.5V46.6357H37.3843V46.7517H37.1528V46.8677H36.9213V46.9838H36.6898V47.0998H36.5741V47.2158H36.3426V47.3318H35.9954V47.4478H35.7639V47.5638H35.5324V47.6798H35.3009V47.7958H35.0694V47.9118H34.7222V48.0278H34.4907V48.1439H34.2593V48.2599H33.912V48.3759H33.5648V48.4919H33.2176V48.6079H32.8704V48.7239H32.5231V48.8399H32.2917V48.9559H31.9444V49.0719H31.3657V49.1879H30.9028V49.3039H30.4398V49.42H29.8611V49.536H29.3981V49.652H28.588V49.768H27.7778V49.884H26.3889V50" fill="url(#paint0_linear_587_104167)"/>
<path d="M49.1003 25.046C48.3879 25.0318 47.6764 25.017 46.964 25.0117C35.8374 24.9606 24.6017 25.9876 14.5028 27.9705C10.2409 28.7992 5.9839 29.87 1.85347 31.1527L1.6665 31.2099L1.71963 31.402C1.83216 31.7988 1.95283 32.1924 2.08276 32.583L2.14587 32.7715L2.33295 32.7106C6.39491 31.4102 10.5888 30.3142 14.7935 29.4568C24.7788 27.3984 35.9012 26.2827 46.9568 26.2308C47.662 26.2324 48.3673 26.2353 49.0725 26.2435L49.7665 26.2516L49.785 25.9713C49.7973 25.7367 49.8118 25.5022 49.8179 25.2663L49.8231 25.0608L49.1003 25.046V25.046ZM49.4504 27.4299C48.7884 27.3951 48.0182 27.357 47.2646 27.3461H47.1349C43.3831 27.3461 39.8043 27.702 36.4974 28.4053C32.9639 29.1433 29.5982 30.2475 26.4961 31.686C23.5845 32.9991 20.7357 34.7331 18.025 36.8389C15.5826 38.7911 13.4623 40.9375 11.7189 43.2174C11.4253 43.6061 11.1586 43.995 10.8622 44.4246L10.7484 44.5888L10.9085 44.7053C11.375 45.0498 11.8544 45.3792 12.335 45.6861L12.4999 45.7896L12.6548 45.555C12.8892 45.2019 13.1213 44.8508 13.3779 44.4986C14.9813 42.3256 16.948 40.2652 19.2243 38.3792C21.7793 36.3207 24.4751 34.6166 27.2364 33.313C30.2005 31.8745 33.4272 30.7526 36.8299 29.9783C40.0586 29.2316 43.5726 28.8238 47.2646 28.7657C47.9369 28.7694 48.601 28.7846 49.2887 28.809L49.4648 28.814L49.4946 28.6382C49.5472 28.3134 49.5986 27.9868 49.6388 27.6574L49.6655 27.4408L49.4504 27.4299V27.4299ZM49.8251 24.4228L49.61 24.4114C45.328 24.1719 41.187 23.4094 37.3045 22.1417C30.2994 19.8883 24.1889 16.0996 19.6346 11.1853V11.1837C17.1953 8.51882 15.2842 5.64673 13.953 2.64837L13.8753 2.47303L14.0435 2.38389C14.1219 2.34309 14.2011 2.30386 14.2808 2.26463L14.6254 2.09379L14.711 2.28377C16.0141 5.19551 17.885 7.98548 20.2699 10.5769C24.7356 15.3628 30.7246 19.0448 37.5877 21.2267C41.3796 22.4498 45.4258 23.183 49.6172 23.4065L49.7984 23.4159L49.8056 23.6014C49.8138 23.8033 49.8179 24.0052 49.822 24.2062L49.8251 24.4228Z" fill="white"/>
<defs>
<linearGradient id="paint0_linear_587_104167" x1="11.8672" y1="-4.9014" x2="38.2218" y2="55.7208" gradientUnits="userSpaceOnUse">
<stop stop-color="white"/>
<stop offset="0.215011" stop-color="#2EAA48"/>
<stop offset="0.215205" stop-color="#2EAA48"/>
<stop offset="0.382318" stop-color="#51AEE5"/>
<stop offset="0.382468" stop-color="#51AEE5"/>
<stop offset="0.536514" stop-color="#2D3591"/>
<stop offset="0.536653" stop-color="#2D3591"/>
<stop offset="0.712036" stop-color="#EB1D27"/>
<stop offset="0.712194" stop-color="#EB1D27"/>
<stop offset="0.712883" stop-color="#EB1D27"/>
<stop offset="1" stop-color="#F8A62C"/>
</linearGradient>
</defs>
</svg>
