<svg width="30" height="30" viewBox="0 0 30 30" fill="none" xmlns="http://www.w3.org/2000/svg">
<path d="M14.375 30V29.9304H13.4722V29.8608H12.8472V29.7912H12.4306V29.7216H12.0833V29.652H11.6667V29.5824H11.3889V29.5128H11.1806V29.4432H10.9028V29.3735H10.6944V29.3039H10.4167V29.2343H10.2083V29.1647H10V29.0951H9.86111V29.0255H9.65278V28.9559H9.44444V28.8863H9.30556V28.8167H9.09722V28.7471H8.95833V28.6775H8.81944V28.6079H8.68056V28.5383H8.54167V28.4687H8.40278V28.3991H8.26389V28.3295H8.125V28.2599H7.98611V28.1903H7.84722V28.1206H7.70833V28.051H7.56944V27.9814H7.43056V27.9118H7.36111V27.8422H7.22222V27.7726H7.15278V27.703H7.01389V27.6334H6.875V27.5638H6.80556V27.4942H6.66667V27.4246H6.59722V27.355H6.45833V27.2854H6.38889V27.2158H6.25V27.1462H6.18056V27.0766H6.11111V27.007H5.97222V26.9374H5.90278V26.8677H5.83333V26.7981H5.76389V26.7285H5.625V26.6589H5.55556V26.5893H5.48611V26.5197H5.34722V26.4501H5.27778V26.3805H5.20833V26.3109H5.13889V26.2413H5.06944V26.1717H5V26.1021H4.93056V26.0325H4.86111V25.9629H4.79167V25.8933H4.72222V25.8237H4.58333V25.7541H4.51389V25.6845H4.44444V25.6148H4.375V25.5452H4.30556V25.4756H4.23611V25.406H4.16667V25.3364H4.09722V25.2668H4.02778V25.1276H3.95833V25.058H3.88889V24.9884H3.81944V24.9188H3.75V24.8492H3.68056V24.7796H3.61111V24.71H3.54167V24.5708H3.47222V24.5012H3.40278V24.4316H3.33333V24.3619H3.26389V24.2923H3.19444V24.1531H3.125V24.0835H3.05556V24.0139H2.98611V23.8747H2.91667V23.8051H2.84722V23.6659H2.77778V23.5963H2.70833V23.5267H2.63889V23.3875H2.56944V23.3179H2.5V23.2483H2.43056V23.109H2.36111V22.9698H2.29167V22.9002H2.22222V22.761H2.15278V22.6218H2.08333V22.4826H2.01389V22.413H1.94444V22.2738H1.875V22.1346H1.80556V22.065H1.73611V21.9258H1.66667V21.7865H1.59722V21.6473H1.52778V21.4385H1.45833V21.2993H1.38889V21.1601H1.31944V21.0209H1.25V20.8817H1.18056V20.6729H1.11111V20.5336H1.04167V20.3248H0.972222V20.116H0.902778V19.9072H0.833333V19.768H0.763889V19.5592H0.694444V19.3503H0.625V19.1415H0.555556V18.7935H0.486111V18.5151H0.416667V18.2367H0.347222V17.8886H0.277778V17.6102H0.208333V17.123H0.138889V16.6357H0.0694444V15.8005H0V14.3387H0.0694444V13.4339H0.138889V12.8074H0.208333V12.4594H0.277778V12.0418H0.347222V11.6241H0.416667V11.3457H0.486111V11.1369H0.555556V10.8585H0.625V10.6497H0.694444V10.3712H0.763889V10.1624H0.833333V9.9536H0.902778V9.81439H0.972222V9.60557H1.04167V9.46636H1.11111V9.25754H1.18056V9.04873H1.25V8.90951H1.31944V8.7703H1.38889V8.63109H1.45833V8.49188H1.52778V8.35267H1.59722V8.21346H1.66667V8.07425H1.73611V7.93504H1.80556V7.79582H1.875V7.65661H1.94444V7.5174H2.01389V7.37819H2.08333V7.30859H2.15278V7.16937H2.22222V7.09977H2.29167V6.96056H2.36111V6.82135H2.43056V6.75174H2.5V6.61253H2.56944V6.54292H2.63889V6.40371H2.70833V6.33411H2.77778V6.1949H2.84722V6.12529H2.91667V6.05569H2.98611V5.91647H3.05556V5.84687H3.125V5.77726H3.19444V5.70766H3.26389V5.56845H3.33333V5.49884H3.40278V5.42924H3.47222V5.35963H3.54167V5.22042H3.61111V5.15081H3.68056V5.08121H3.75V5.0116H3.81944V4.942H3.88889V4.87239H3.95833V4.80278H4.02778V4.73318H4.09722V4.66357H4.16667V4.59397H4.23611V4.45476H4.30556V4.38515H4.375V4.31555H4.44444V4.24594H4.51389V4.17633H4.58333V4.10673H4.65278V4.03712H4.72222V3.96752H4.86111V3.89791H4.93056V3.82831H5V3.7587H5.06944V3.6891H5.13889V3.61949H5.20833V3.54988H5.27778V3.48028H5.41667V3.41067H5.48611V3.34107H5.55556V3.27146H5.625V3.20186H5.69444V3.13225H5.83333V3.06264H5.90278V2.99304H5.97222V2.92344H6.11111V2.85383H6.18056V2.78422H6.31944V2.71462H6.38889V2.64501H6.45833V2.57541H6.59722V2.5058H6.66667V2.4362H6.80556V2.36659H6.875V2.29698H7.01389V2.22738H7.15278V2.15777H7.22222V2.08817H7.36111V2.01856H7.5V1.94896H7.56944V1.87935H7.70833V1.80975H7.84722V1.74014H7.98611V1.67053H8.05556V1.60093H8.19444V1.53132H8.40278V1.46172H8.54167V1.39211H8.68056V1.32251H8.81944V1.2529H8.95833V1.1833H9.16667V1.11369H9.30556V1.04408H9.44444V0.97448H9.65278V0.904873H9.86111V0.835268H10.0694V0.765661H10.2778V0.696056H10.4861V0.626451H10.6944V0.556845H10.9028V0.48724H11.1806V0.417635H11.4583V0.348028H11.8056V0.278423H12.0833V0.208818H12.4306V0.139212H12.9167V0.0696068H13.4028V0H16.5972V0.0696068H17.0833V0.139212H17.5V0.208818H17.9861V0.278423H18.2639V0.348028H18.5417V0.417635H18.8194V0.48724H19.0972V0.556845H19.375V0.626451H19.5833V0.696056H19.7222V0.765661H19.9306V0.835268H20.1389V0.904873H20.3472V0.97448H20.5556V1.04408H20.6944V1.11369H20.8333V1.1833H21.0417V1.2529H21.1806V1.32251H21.3194V1.39211H21.4583V1.46172H21.5972V1.53132H21.7361V1.60093H21.9444V1.67053H22.0139V1.74014H22.1528V1.80975H22.2917V1.87935H22.3611V1.94896H22.5V2.01856H22.6389V2.08817H22.7778V2.15777H22.8472V2.22738H22.9861V2.29698H23.125V2.36659H23.1944V2.4362H23.3333V2.5058H23.4028V2.57541H23.4722V2.64501H23.6111V2.71462H23.6806V2.78422H23.8194V2.85383H23.8889V2.92344H24.0278V2.99304H24.0972V3.06264H24.1667V3.13225H24.2361V3.20186H24.375V3.27146H24.4444V3.34107H24.5139V3.41067H24.5833V3.48028H24.6528V3.54988H24.7917V3.61949H24.8611V3.6891H24.9306V3.7587H25V3.82831H25.0694V3.89791H25.1389V3.96752H25.2778V4.03712H25.3472V4.17633H25.4167V4.24594H25.4861V4.31555H25.5556V4.38515H25.625V4.45476H25.6944V4.52436H25.7639V4.59397H25.8333V4.66357H25.9028V4.73318H25.9722V4.80278H26.0417V4.87239H26.1111V4.942H26.1806V5.0116H26.25V5.08121H26.3194V5.15081H26.3889V5.29002H26.4583V5.35963H26.5278V5.42924H26.5972V5.49884H26.6667V5.56845H26.7361V5.70766H26.8056V5.77726H26.875V5.84687H26.9444V5.91647H27.0139V6.05569H27.0833V6.12529H27.1528V6.2645H27.2222V6.33411H27.2917V6.47332H27.3611V6.54292H27.4306V6.68213H27.5V6.75174H27.5694V6.82135H27.6389V6.96056H27.7083V7.03016H27.7778V7.16937H27.8472V7.30859H27.9167V7.4478H27.9861V7.5174H28.0556V7.65661H28.125V7.79582H28.1944V7.93504H28.2639V8.07425H28.3333V8.21346H28.4028V8.28306H28.4722V8.49188H28.5417V8.63109H28.6111V8.7703H28.6806V8.97912H28.75V9.11833H28.8194V9.25754H28.8889V9.39675H28.9583V9.60557H29.0278V9.81439H29.0972V10.0232H29.1667V10.232H29.2361V10.4408H29.3056V10.6497H29.375V10.8585H29.4444V11.1369H29.5139V11.4153H29.5833V11.7633H29.6528V12.0418H29.7222V12.3898H29.7917V12.877H29.8611V13.3643H29.9306V14.7564H30V15.4524H29.9306V16.3573H29.8611V17.0534H29.7917V17.471H29.7222V17.8886H29.6528V18.2367H29.5833V18.5151H29.5139V18.7935H29.4444V19.0023H29.375V19.2807H29.3056V19.4896H29.2361V19.768H29.1667V19.9768H29.0972V20.116H29.0278V20.3248H28.9583V20.464H28.8889V20.6729H28.8194V20.8121H28.75V21.0209H28.6806V21.1601H28.6111V21.2993H28.5417V21.4385H28.4722V21.5777H28.4028V21.7169H28.3333V21.8561H28.2639V21.9954H28.1944V22.1346H28.125V22.2738H28.0556V22.413H27.9861V22.5522H27.9167V22.6218H27.8472V22.761H27.7778V22.8306H27.7083V22.9698H27.6389V23.0394H27.5694V23.1787H27.5V23.3179H27.4306V23.3875H27.3611V23.5267H27.2917V23.5963H27.2222V23.7355H27.1528V23.8051H27.0833V23.8747H27.0139V23.9443H26.9444V24.0835H26.875V24.1531H26.8056V24.2227H26.7361V24.3619H26.6667V24.4316H26.5972V24.5012H26.5278V24.5708H26.4583V24.71H26.3889V24.7796H26.3194V24.8492H26.25V24.9188H26.1806V24.9884H26.1111V25.058H26.0417V25.1276H25.9722V25.1972H25.9028V25.2668H25.8333V25.3364H25.7639V25.406H25.6944V25.5452H25.625V25.6148H25.5556V25.6845H25.4861V25.7541H25.4167V25.8237H25.3472V25.8933H25.2083V25.9629H25.1389V26.0325H25.0694V26.1021H25V26.1717H24.9306V26.2413H24.8611V26.3109H24.7917V26.3805H24.6528V26.4501H24.5833V26.5197H24.5139V26.5893H24.4444V26.6589H24.375V26.7285H24.3056V26.7981H24.1667V26.8677H24.0972V26.9374H24.0278V27.007H23.8889V27.0766H23.8194V27.1462H23.6806V27.2158H23.6111V27.2854H23.5417V27.355H23.4028V27.4246H23.3333V27.4942H23.1944V27.5638H23.125V27.6334H22.9861V27.703H22.9167V27.7726H22.7778V27.8422H22.6389V27.9118H22.5V27.9814H22.4306V28.051H22.2917V28.1206H22.1528V28.1903H22.0139V28.2599H21.9444V28.3295H21.8056V28.3991H21.5972V28.4687H21.4583V28.5383H21.3194V28.6079H21.1806V28.6775H21.0417V28.7471H20.8333V28.8167H20.6944V28.8863H20.5556V28.9559H20.3472V29.0255H20.1389V29.0951H19.9306V29.1647H19.7222V29.2343H19.5139V29.3039H19.375V29.3735H19.1667V29.4432H18.8194V29.5128H18.5417V29.5824H18.2639V29.652H17.9167V29.7216H17.6389V29.7912H17.1528V29.8608H16.6667V29.9304H15.8333V30" fill="url(#paint0_linear_153_7824)"/>
<path d="M29.4603 15.0274C29.0328 15.0189 28.606 15.01 28.1785 15.0068C21.5025 14.9762 14.7611 15.5923 8.70176 16.7821C6.14462 17.2793 3.59044 17.9218 1.11218 18.6914L1 18.7257L1.03187 18.841C1.09939 19.0791 1.1718 19.3152 1.24975 19.5496L1.28762 19.6627L1.39987 19.6261C3.83704 18.8459 6.35335 18.1883 8.87621 17.6739C14.8674 16.4388 21.5408 15.7694 28.1742 15.7383C28.5973 15.7392 29.0205 15.741 29.4436 15.7459L29.86 15.7508L29.8711 15.5825C29.8785 15.4418 29.8872 15.3011 29.8909 15.1596L29.8939 15.0362L29.4603 15.0274ZM29.6703 16.4577C29.2731 16.4369 28.811 16.414 28.3589 16.4074H28.281C26.03 16.4074 23.8827 16.621 21.8985 17.043C19.7784 17.4858 17.759 18.1483 15.8978 19.0114C14.1508 19.7992 12.4415 20.8396 10.8151 22.1031C9.34965 23.2744 8.07747 24.5623 7.03145 25.9302C6.85527 26.1634 6.69527 26.3968 6.51742 26.6545L6.44916 26.7531L6.54522 26.823C6.82512 27.0297 7.11274 27.2273 7.4011 27.4114L7.50007 27.4735L7.59297 27.3328C7.73363 27.1209 7.87287 26.9103 8.02681 26.6989C8.98888 25.3952 10.1689 24.1589 11.5347 23.0273C13.0677 21.7922 14.6851 20.7698 16.3419 19.9876C18.1204 19.1245 20.0564 18.4514 22.098 17.9867C24.0353 17.5387 26.1436 17.2941 28.3589 17.2592C28.7622 17.2614 29.1607 17.2705 29.5733 17.2852L29.679 17.2882L29.6969 17.1827C29.7284 16.9878 29.7593 16.7919 29.7834 16.5942L29.7994 16.4643L29.6703 16.4577ZM29.8952 14.6535L29.7661 14.6466C27.1969 14.5029 24.7123 14.0454 22.3828 13.2848C18.1797 11.9328 14.5134 9.65953 11.7808 6.71098V6.70998C10.3173 5.11107 9.17062 3.38782 8.37188 1.5888L8.3253 1.4836L8.42618 1.43011C8.47326 1.40563 8.52076 1.3821 8.56857 1.35856L8.77533 1.25605L8.82672 1.37004C9.60854 3.11709 10.7311 4.79107 12.162 6.34591C14.8414 9.21743 18.4348 11.4267 22.5527 12.7358C24.8278 13.4697 27.2556 13.9096 29.7704 14.0437L29.8791 14.0493L29.8834 14.1606C29.8884 14.2817 29.8909 14.4029 29.8933 14.5235L29.8952 14.6535Z" fill="white"/>
<defs>
<linearGradient id="paint0_linear_153_7824" x1="7.12035" y1="-2.94084" x2="22.9331" y2="33.4325" gradientUnits="userSpaceOnUse">
<stop stop-color="white"/>
<stop offset="0.215011" stop-color="#2EAA48"/>
<stop offset="0.215205" stop-color="#2EAA48"/>
<stop offset="0.382318" stop-color="#51AEE5"/>
<stop offset="0.382468" stop-color="#51AEE5"/>
<stop offset="0.536514" stop-color="#2D3591"/>
<stop offset="0.536653" stop-color="#2D3591"/>
<stop offset="0.712036" stop-color="#EB1D27"/>
<stop offset="0.712194" stop-color="#EB1D27"/>
<stop offset="0.712883" stop-color="#EB1D27"/>
<stop offset="1" stop-color="#F8A62C"/>
</linearGradient>
</defs>
</svg>
