<svg width="260" height="49" viewBox="0 0 260 49" fill="none" xmlns="http://www.w3.org/2000/svg">
<path d="M11.6792 10.08C11.252 9.5464 10.7256 9.0997 10.0996 8.7398C9.47216 8.3794 8.70556 8.2002 7.7998 8.2002C6.94531 8.2002 6.20556 8.3794 5.5791 8.7398C4.95166 9.0997 4.63916 9.6264 4.63916 10.3198C4.63916 10.8794 4.81885 11.3335 5.17871 11.6797C5.53906 12.0264 5.96485 12.3067 6.45948 12.5195C6.95264 12.7339 7.47851 12.8935 8.03906 13C8.59913 13.1069 9.0791 13.2002 9.47949 13.2803C10.2519 13.4668 10.9795 13.6934 11.6597 13.9599C12.3393 14.2265 12.9252 14.5733 13.4185 15C13.9116 15.4268 14.2989 15.9468 14.5796 16.56C14.8589 17.1733 14.9995 17.9199 14.9995 18.7998C14.9995 19.8672 14.7725 20.7803 14.3194 21.54C13.8653 22.2998 13.2792 22.9199 12.5591 23.3994C11.8389 23.8799 11.0185 24.2265 10.0996 24.4399C9.1792 24.6528 8.25244 24.7598 7.31885 24.7598C5.74511 24.7598 4.36572 24.5195 3.1792 24.04C1.99267 23.5595 0.932129 22.6802 -0.000488281 21.3994L2.71924 19.1597C3.30518 19.7465 3.95947 20.2665 4.67969 20.7197C5.39844 21.1738 6.27881 21.3994 7.31885 21.3994C7.77149 21.3994 8.23194 21.354 8.69923 21.2598C9.16553 21.1665 9.57959 21.02 9.93945 20.8198C10.2998 20.6197 10.5928 20.3667 10.8184 20.06C11.0454 19.7534 11.1592 19.3999 11.1592 18.9995C11.1592 18.4668 10.9917 18.0269 10.6587 17.6802C10.3252 17.3335 9.9248 17.06 9.4585 16.8599C8.99219 16.6597 8.49903 16.4995 7.979 16.3799C7.45899 16.2598 6.99903 16.1597 6.59864 16.0795C5.82569 15.8935 5.09229 15.6797 4.39892 15.4399C3.70556 15.1997 3.09277 14.8799 2.55909 14.48C2.02588 14.0795 1.59864 13.5738 1.27881 12.9594C0.958985 12.3467 0.798829 11.5869 0.798829 10.6797C0.798829 9.6938 1.00537 8.8335 1.41895 8.1C1.83154 7.3672 2.37841 6.7598 3.05958 6.2798C3.73975 5.7998 4.51221 5.4399 5.37891 5.1997C6.2456 4.9599 7.11865 4.8403 7.99854 4.8403C9.2793 4.8403 10.5049 5.08 11.6792 5.5595C12.852 6.04 13.7846 6.8398 14.4795 7.9594L11.6792 10.08Z" fill="black"/>
<path d="M19.478 5.3198H22.8389V8.2803H22.9194C22.9985 8.0132 23.2052 7.6802 23.5382 7.2798C23.8717 6.8799 24.2989 6.4995 24.8189 6.1397C25.3389 5.7803 25.9517 5.4737 26.6583 5.2197C27.3653 4.9663 28.145 4.8403 28.9985 4.8403C30.4122 4.8403 31.5987 5.1338 32.5592 5.7197C33.5185 6.3067 34.3048 7.187 34.919 8.3599C35.5318 7.187 36.3985 6.3067 37.519 5.7197C38.6382 5.1338 39.7725 4.8403 40.9185 4.8403C42.3848 4.8403 43.5845 5.08 44.5185 5.5595C45.4522 6.04 46.1847 6.6738 46.7183 7.4599C47.2515 8.2465 47.6192 9.1402 47.8194 10.1397C48.0182 11.1397 48.1182 12.1733 48.1182 13.2398V24.2798H44.5185V13.7197C44.5185 13 44.4722 12.3067 44.3794 11.6402C44.2852 10.9737 44.0923 10.3872 43.7984 9.87991C43.5054 9.37401 43.0913 8.9668 42.5592 8.6597C42.0244 8.3535 41.3189 8.2002 40.439 8.2002C38.7057 8.2002 37.4654 8.7334 36.7183 9.7998C35.9722 10.8667 35.5987 12.2403 35.5987 13.9194V24.2798H31.999V14.3599C31.999 13.4537 31.9512 12.6269 31.8584 11.8799C31.7647 11.1333 31.5792 10.4863 31.2984 9.9394C31.0185 9.3935 30.6182 8.9668 30.0982 8.6597C29.5782 8.3535 28.8789 8.2002 27.9985 8.2002C27.3589 8.2002 26.7388 8.3262 26.1382 8.5795C25.5392 8.8335 25.0118 9.2134 24.5587 9.7197C24.1045 10.2265 23.7447 10.8735 23.4785 11.6597C23.2124 12.4468 23.0792 13.3735 23.0792 14.4399V24.2798H19.478V5.3198Z" fill="black"/>
<path d="M63.918 15.1597C63.0645 15.1597 62.1904 15.207 61.2984 15.2998C60.4048 15.3935 59.5918 15.5738 58.8579 15.8398C58.1246 16.1064 57.5239 16.4795 57.0577 16.9599C56.5913 17.4394 56.3579 18.0537 56.3579 18.7998C56.3579 19.8935 56.7242 20.6797 57.458 21.1597C58.1914 21.6402 59.1842 21.8799 60.4375 21.8799C61.4239 21.8799 62.2637 21.7134 62.9585 21.3799C63.6504 21.0469 64.211 20.6133 64.6382 20.08C65.064 19.5464 65.3707 18.9532 65.5587 18.2998C65.7442 17.6465 65.8379 16.9995 65.8379 16.3599V15.1597H63.918ZM53.7579 7.6397C54.771 6.7065 55.9444 6.00631 57.2784 5.53951C58.6114 5.07331 59.9444 4.8403 61.2774 4.8403C62.6642 4.8403 63.8579 5.01321 64.8579 5.35941C65.8574 5.70651 66.6778 6.1738 67.3174 6.7598C67.9585 7.3467 68.4307 8.02 68.7383 8.7798C69.0449 9.5395 69.1973 10.3335 69.1973 11.1597V20.8398C69.1973 21.5068 69.211 22.1197 69.2378 22.6802C69.2647 23.2398 69.3038 23.7739 69.3584 24.2798H66.1578C66.0787 23.3198 66.0382 22.3599 66.0382 21.3994H65.9575C65.1583 22.6269 64.2111 23.4937 63.1182 23.9995C62.0244 24.5063 60.7574 24.7598 59.3184 24.7598C58.438 24.7598 57.5982 24.6402 56.7974 24.3999C55.998 24.1597 55.2984 23.7998 54.6978 23.3198C54.0987 22.8398 53.6235 22.2465 53.2784 21.54C52.9317 20.834 52.7583 20.0132 52.7583 19.0795C52.7583 17.8535 53.0318 16.8267 53.5787 16C54.124 15.1733 54.8712 14.4995 55.8184 13.9795C56.7647 13.4599 57.8707 13.0864 59.1378 12.8594C60.4048 12.6338 61.7583 12.5195 63.1978 12.5195H65.8379V11.7202C65.8379 11.2398 65.7442 10.7598 65.5587 10.2793C65.3707 9.7998 65.0909 9.3667 64.7173 8.9795C64.3438 8.5938 63.8775 8.2867 63.3184 8.0595C62.7583 7.8335 62.0918 7.7197 61.3179 7.7197C60.6245 7.7197 60.0177 7.7872 59.4976 7.9199C58.9776 8.0537 58.5039 8.2197 58.0782 8.4199C57.6509 8.6202 57.2637 8.854 56.9185 9.1202C56.5718 9.3867 56.2383 9.64021 55.9175 9.87991L53.7579 7.6397Z" fill="black"/>
<path d="M73.8374 5.3198H77.437V8.2398H77.5177C77.7569 7.7339 78.0767 7.2734 78.477 6.8599C78.8775 6.4463 79.3233 6.0938 79.8174 5.7998C80.3105 5.5068 80.8502 5.2734 81.4375 5.0997C82.0235 4.9268 82.6104 4.8403 83.1978 4.8403C83.7838 4.8403 84.3169 4.9199 84.7969 5.08L84.6368 8.9599C84.3438 8.8799 84.0508 8.8134 83.7569 8.7598C83.4639 8.7065 83.1709 8.6797 82.8779 8.6797C81.1177 8.6797 79.77 9.1738 78.8374 10.1597C77.9034 11.1469 77.437 12.6802 77.437 14.7598V24.2798H73.8374V5.3198Z" fill="black"/>
<path d="M100.945 8.4399H95.7856V17.0395C95.7856 17.5733 95.7989 18.1 95.8256 18.6202C95.8516 19.1402 95.9516 19.6069 96.126 20.0195C96.2984 20.4335 96.5654 20.7665 96.9258 21.02C97.2856 21.2739 97.812 21.3994 98.5054 21.3994C98.9311 21.3994 99.3721 21.3599 99.8261 21.2798C100.279 21.2002 100.691 21.0537 101.065 20.8398V24.1202C100.639 24.3599 100.086 24.5259 99.4048 24.6197C98.7251 24.7134 98.1988 24.7598 97.8253 24.7598C96.4385 24.7598 95.3658 24.5659 94.605 24.1797C93.8458 23.7934 93.2856 23.2934 92.9253 22.6802C92.5654 22.0669 92.3516 21.3799 92.2856 20.6197C92.2188 19.8599 92.1855 19.0938 92.1855 18.3198V8.4399H88.0254V5.3198H92.1855V0H95.7856V5.3198H100.945V8.4399Z" fill="black"/>
<path d="M133.198 10.3594C132.531 9.66701 131.83 9.1402 131.098 8.7798C130.364 8.4199 129.49 8.2398 128.478 8.2398C127.491 8.2398 126.63 8.4199 125.898 8.7798C125.164 9.1402 124.55 9.6338 124.057 10.2603C123.564 10.8867 123.19 11.6064 122.938 12.4199C122.684 13.2339 122.558 14.0795 122.558 14.9599C122.558 15.8398 122.703 16.6738 122.998 17.4599C123.291 18.2465 123.704 18.9335 124.238 19.5195C124.771 20.1069 125.411 20.5664 126.158 20.8994C126.904 21.2334 127.744 21.3994 128.678 21.3994C129.69 21.3994 130.558 21.2197 131.278 20.8599C131.998 20.5 132.664 19.9737 133.278 19.2798L135.838 21.8398C134.904 22.8799 133.818 23.6269 132.578 24.0795C131.338 24.5332 130.024 24.7598 128.638 24.7598C127.171 24.7598 125.831 24.5195 124.617 24.04C123.404 23.5595 122.358 22.8872 121.478 22.0195C120.598 21.1538 119.918 20.1138 119.438 18.8994C118.957 17.687 118.718 16.3467 118.718 14.8799C118.718 13.4135 118.957 12.0669 119.438 10.8398C119.918 9.61381 120.59 8.5595 121.457 7.6802C122.324 6.7998 123.364 6.11331 124.577 5.61971C125.79 5.12691 127.144 4.87991 128.638 4.87991C130.024 4.87991 131.351 5.12691 132.618 5.61971C133.884 6.11331 134.984 6.86671 135.918 7.87991L133.198 10.3594Z" fill="black"/>
<path d="M142.986 14.7998C142.986 15.7598 143.131 16.6469 143.426 17.4599C143.719 18.2734 144.133 18.9668 144.666 19.5395C145.2 20.1138 145.853 20.5664 146.625 20.8994C147.399 21.2334 148.266 21.3994 149.225 21.3994C150.186 21.3994 151.051 21.2334 151.825 20.8994C152.6 20.5664 153.253 20.1138 153.786 19.5395C154.32 18.9668 154.733 18.2734 155.026 17.4599C155.319 16.6469 155.466 15.7598 155.466 14.7998C155.466 13.8398 155.319 12.9537 155.026 12.1402C154.733 11.3272 154.32 10.6333 153.786 10.06C153.253 9.48681 152.6 9.0337 151.825 8.7002C151.051 8.3667 150.186 8.2002 149.225 8.2002C148.266 8.2002 147.399 8.3667 146.625 8.7002C145.853 9.0337 145.2 9.48681 144.666 10.06C144.133 10.6333 143.719 11.3272 143.426 12.1402C143.131 12.9537 142.986 13.8398 142.986 14.7998ZM139.146 14.7998C139.146 13.4135 139.406 12.1197 139.926 10.9199C140.446 9.7197 141.159 8.6665 142.066 7.7603C142.971 6.8535 144.039 6.13971 145.265 5.61971C146.493 5.09971 147.813 4.8403 149.225 4.8403C150.639 4.8403 151.959 5.09971 153.185 5.61971C154.413 6.13971 155.479 6.8535 156.386 7.7603C157.293 8.6665 158.006 9.7197 158.526 10.9199C159.046 12.1197 159.306 13.4135 159.306 14.7998C159.306 16.1865 159.046 17.4868 158.526 18.7002C158.006 19.9135 157.293 20.9668 156.386 21.8599C155.479 22.7534 154.413 23.4599 153.185 23.9795C151.959 24.4995 150.639 24.7598 149.225 24.7598C147.813 24.7598 146.493 24.4995 145.265 23.9795C144.039 23.4599 142.971 22.7534 142.066 21.8599C141.159 20.9668 140.446 19.9135 139.926 18.7002C139.406 17.4868 139.146 16.1865 139.146 14.7998Z" fill="black"/>
<path d="M174.797 10.08C174.371 9.5464 173.845 9.0997 173.219 8.7398C172.592 8.3794 171.824 8.2002 170.919 8.2002C170.065 8.2002 169.324 8.3794 168.699 8.7398C168.072 9.0997 167.759 9.6264 167.759 10.3198C167.759 10.8794 167.939 11.3335 168.299 11.6797C168.659 12.0264 169.085 12.3067 169.579 12.5195C170.071 12.7339 170.599 12.8935 171.159 13C171.719 13.1069 172.199 13.2002 172.599 13.2803C173.372 13.4668 174.099 13.6934 174.779 13.9599C175.457 14.2265 176.045 14.5733 176.539 15C177.032 15.4268 177.417 15.9468 177.699 16.56C177.979 17.1733 178.119 17.9199 178.119 18.7998C178.119 19.8672 177.891 20.7803 177.437 21.54C176.985 22.2998 176.397 22.9199 175.679 23.3994C174.959 23.8799 174.139 24.2265 173.219 24.4399C172.299 24.6528 171.371 24.7598 170.439 24.7598C168.865 24.7598 167.485 24.5195 166.299 24.04C165.111 23.5595 164.052 22.6802 163.119 21.3994L165.837 19.1597C166.425 19.7465 167.079 20.2665 167.799 20.7197C168.519 21.1738 169.399 21.3994 170.439 21.3994C170.891 21.3994 171.352 21.354 171.819 21.2598C172.285 21.1665 172.699 21.02 173.059 20.8198C173.419 20.6197 173.711 20.3667 173.939 20.06C174.165 19.7534 174.277 19.3999 174.277 18.9995C174.277 18.4668 174.112 18.0269 173.777 17.6802C173.445 17.3335 173.045 17.06 172.579 16.8599C172.111 16.6597 171.617 16.4995 171.097 16.3799C170.577 16.2598 170.119 16.1597 169.719 16.0795C168.945 15.8935 168.212 15.6797 167.519 15.4399C166.824 15.1997 166.211 14.8799 165.677 14.48C165.145 14.0795 164.719 13.5738 164.399 12.9594C164.079 12.3467 163.919 11.5869 163.919 10.6797C163.919 9.6938 164.125 8.8335 164.539 8.1C164.951 7.3672 165.499 6.7598 166.179 6.2798C166.859 5.7998 167.631 5.4399 168.499 5.1997C169.365 4.9599 170.239 4.8403 171.119 4.8403C172.397 4.8403 173.624 5.08 174.797 5.5595C175.972 6.04 176.905 6.8398 177.599 7.9594L174.797 10.08Z" fill="black"/>
<path d="M183.118 5.3198H186.478V8.2803H186.558C186.638 8.0132 186.844 7.6802 187.178 7.2798C187.51 6.8799 187.938 6.4995 188.458 6.1397C188.978 5.7803 189.59 5.4737 190.298 5.2197C191.004 4.9663 191.784 4.8403 192.638 4.8403C194.051 4.8403 195.238 5.1338 196.198 5.7197C197.158 6.3067 197.944 7.187 198.558 8.3599C199.17 7.187 200.038 6.3067 201.158 5.7197C202.278 5.1338 203.41 4.8403 204.558 4.8403C206.024 4.8403 207.224 5.08 208.158 5.5595C209.09 6.04 209.824 6.6738 210.358 7.4599C210.89 8.2465 211.258 9.1402 211.458 10.1397C211.658 11.1397 211.758 12.1733 211.758 13.2398V24.2798H208.158V13.7197C208.158 13 208.111 12.3067 208.018 11.6402C207.924 10.9737 207.73 10.3872 207.438 9.87991C207.144 9.37401 206.73 8.9668 206.198 8.6597C205.664 8.3535 204.958 8.2002 204.078 8.2002C202.344 8.2002 201.104 8.7334 200.358 9.7998C199.61 10.8667 199.238 12.2403 199.238 13.9194V24.2798H195.638V14.3599C195.638 13.4537 195.59 12.6269 195.498 11.8799C195.404 11.1333 195.218 10.4863 194.938 9.9394C194.658 9.3935 194.258 8.9668 193.738 8.6597C193.218 8.3535 192.518 8.2002 191.638 8.2002C190.998 8.2002 190.378 8.3262 189.778 8.5795C189.178 8.8335 188.65 9.2134 188.198 9.7197C187.744 10.2265 187.384 10.8735 187.118 11.6597C186.85 12.4468 186.718 13.3735 186.718 14.4399V24.2798H183.118V5.3198Z" fill="black"/>
<path d="M220.075 14.7998C220.075 15.7598 220.221 16.6469 220.516 17.4599C220.809 18.2734 221.221 18.9668 221.756 19.5395C222.289 20.1138 222.941 20.5664 223.715 20.8994C224.489 21.2334 225.356 21.3994 226.315 21.3994C227.276 21.3994 228.141 21.2334 228.915 20.8994C229.689 20.5664 230.341 20.1138 230.876 19.5395C231.408 18.9668 231.823 18.2734 232.115 17.4599C232.409 16.6469 232.555 15.7598 232.555 14.7998C232.555 13.8398 232.409 12.9537 232.115 12.1402C231.823 11.3272 231.408 10.6333 230.876 10.06C230.341 9.48681 229.689 9.0337 228.915 8.7002C228.141 8.3667 227.276 8.2002 226.315 8.2002C225.356 8.2002 224.489 8.3667 223.715 8.7002C222.941 9.0337 222.289 9.48681 221.756 10.06C221.221 10.6333 220.809 11.3272 220.516 12.1402C220.221 12.9537 220.075 13.8398 220.075 14.7998ZM216.236 14.7998C216.236 13.4135 216.496 12.1197 217.016 10.9199C217.536 9.7197 218.249 8.6665 219.156 7.7603C220.061 6.8535 221.129 6.13971 222.355 5.61971C223.583 5.09971 224.901 4.8403 226.315 4.8403C227.729 4.8403 229.049 5.09971 230.275 5.61971C231.503 6.13971 232.569 6.8535 233.476 7.7603C234.381 8.6665 235.096 9.7197 235.616 10.9199C236.136 12.1197 236.396 13.4135 236.396 14.7998C236.396 16.1865 236.136 17.4868 235.616 18.7002C235.096 19.9135 234.381 20.9668 233.476 21.8599C232.569 22.7534 231.503 23.4599 230.275 23.9795C229.049 24.4995 227.729 24.7598 226.315 24.7598C224.901 24.7598 223.583 24.4995 222.355 23.9795C221.129 23.4599 220.061 22.7534 219.156 21.8599C218.249 20.9668 217.536 19.9135 217.016 18.7002C216.496 17.4868 216.236 16.1865 216.236 14.7998Z" fill="black"/>
<path d="M252.416 10.08C251.989 9.5464 251.461 9.0997 250.835 8.7398C250.209 8.3794 249.443 8.2002 248.536 8.2002C247.683 8.2002 246.943 8.3794 246.316 8.7398C245.689 9.0997 245.376 9.6264 245.376 10.3198C245.376 10.8794 245.556 11.3335 245.916 11.6797C246.276 12.0264 246.703 12.3067 247.196 12.5195C247.69 12.7339 248.216 12.8935 248.776 13C249.336 13.1069 249.816 13.2002 250.216 13.2803C250.99 13.4668 251.716 13.6934 252.396 13.9599C253.075 14.2265 253.663 14.5733 254.156 15C254.649 15.4268 255.036 15.9468 255.315 16.56C255.596 17.1733 255.736 17.9199 255.736 18.7998C255.736 19.8672 255.51 20.7803 255.055 21.54C254.603 22.2998 254.015 22.9199 253.296 23.3994C252.576 23.8799 251.756 24.2265 250.835 24.4399C249.916 24.6528 248.989 24.7598 248.056 24.7598C246.483 24.7598 245.103 24.5195 243.916 24.04C242.729 23.5595 241.669 22.6802 240.736 21.3994L243.456 19.1597C244.043 19.7465 244.696 20.2665 245.416 20.7197C246.136 21.1738 247.016 21.3994 248.056 21.3994C248.509 21.3994 248.969 21.354 249.436 21.2598C249.901 21.1665 250.315 21.02 250.676 20.8198C251.036 20.6197 251.329 20.3667 251.556 20.06C251.783 19.7534 251.896 19.3999 251.896 18.9995C251.896 18.4668 251.729 18.0269 251.396 17.6802C251.063 17.3335 250.663 17.06 250.196 16.8599C249.73 16.6597 249.236 16.4995 248.716 16.3799C248.196 16.2598 247.736 16.1597 247.336 16.0795C246.563 15.8935 245.83 15.6797 245.136 15.4399C244.443 15.1997 243.829 14.8799 243.296 14.48C242.761 14.0795 242.336 13.5738 242.016 12.9594C241.696 12.3467 241.536 11.5869 241.536 10.6797C241.536 9.6938 241.743 8.8335 242.156 8.1C242.569 7.3672 243.116 6.7598 243.796 6.2798C244.476 5.7998 245.25 5.4399 246.116 5.1997C246.981 4.9599 247.856 4.8403 248.736 4.8403C250.016 4.8403 251.243 5.08 252.416 5.5595C253.59 6.04 254.523 6.8398 255.216 7.9594L252.416 10.08Z" fill="black"/>
<path d="M11.1753 46H10.2104L7.81104 38.4019L5.41162 46H4.44678L1.34912 36.4785H2.51709L4.92285 44.0957L7.32861 36.4785H8.29346L10.6929 44.0767L13.0859 36.4785H14.2603L11.1753 46ZM16.3733 46V36.4785H22.2068V37.4688H17.4904V40.668H21.9465V41.6582H17.4904V45.0098H22.2702V46H16.3733ZM38.506 46H37.3888V38.0464L34.2087 44.4004H33.1994L30.0319 38.0845V46H28.9147V36.4785H30.3556L33.7072 43.2261L37.0461 36.4785H38.506V46ZM41.7362 46H40.5619L44.472 36.4785H45.6845L49.5883 46H48.4139L47.3793 43.4292H42.7709L41.7362 46ZM43.1644 42.439H46.9857L45.0751 37.6846L43.1644 42.439ZM52.7613 46H51.6378V36.4785H52.755V42.2168C52.8904 42.0179 53.0216 41.8317 53.1485 41.6582C53.2797 41.4805 53.394 41.3302 53.4913 41.2075L57.2491 36.4785H58.5821L55.11 40.8394L59.2994 46H57.8458L54.3927 41.7407L52.7613 43.7974V46ZM61.1649 46V36.4785H66.9984V37.4688H62.2821V40.668H66.7381V41.6582H62.2821V45.0098H67.0618V46H61.1649ZM73.7063 46V36.4785H76.6389C77.4176 36.4785 78.0841 36.5991 78.6384 36.8403C79.197 37.0815 79.6244 37.4264 79.9207 37.875C80.2169 38.3236 80.365 38.861 80.365 39.4873C80.365 40.1094 80.2169 40.6468 79.9207 41.0996C79.6244 41.5524 79.197 41.9015 78.6384 42.147C78.0841 42.3882 77.4176 42.5088 76.6389 42.5088H74.8235V46H73.7063ZM74.8235 41.5186H76.5437C77.3985 41.5186 78.0587 41.3387 78.5242 40.979C78.9897 40.6193 79.2224 40.1221 79.2224 39.4873C79.2224 38.8525 78.9897 38.3574 78.5242 38.002C78.0587 37.6465 77.3985 37.4688 76.5437 37.4688H74.8235V41.5186ZM83.792 46H82.6748V36.4785H83.792V40.8076H89.105V36.4785H90.2221V46H89.105V41.7979H83.792V46ZM96.9626 46H95.8454V41.9312L92.1511 36.4785H93.5095L96.404 40.998L99.3112 36.4785H100.663L96.9626 41.9438V46ZM102.148 45.0732L102.687 44.2163C102.962 44.4406 103.238 44.6268 103.513 44.7749C103.788 44.923 104.067 45.033 104.351 45.105C104.638 45.1769 104.93 45.2129 105.226 45.2129C105.658 45.2129 106.035 45.141 106.356 44.9971C106.682 44.8532 106.936 44.6543 107.118 44.4004C107.3 44.1423 107.391 43.846 107.391 43.5117C107.391 43.1478 107.287 42.8473 107.08 42.6104C106.877 42.3691 106.612 42.1639 106.287 41.9946C105.961 41.8254 105.614 41.6646 105.246 41.5122C104.937 41.381 104.63 41.2414 104.325 41.0933C104.02 40.9451 103.743 40.7738 103.494 40.5791C103.248 40.3802 103.051 40.1411 102.903 39.8618C102.755 39.5825 102.681 39.2461 102.681 38.8525C102.681 38.349 102.808 37.9046 103.062 37.5195C103.316 37.1344 103.667 36.834 104.116 36.6182C104.568 36.4023 105.089 36.2944 105.677 36.2944C106.075 36.2944 106.475 36.3473 106.877 36.4531C107.279 36.5547 107.668 36.7049 108.045 36.9038L107.588 37.8179C107.292 37.6444 106.981 37.5111 106.655 37.418C106.333 37.3249 106.016 37.2783 105.703 37.2783C105.33 37.2783 105.002 37.3418 104.719 37.4688C104.439 37.5915 104.219 37.765 104.059 37.9893C103.902 38.2093 103.824 38.4674 103.824 38.7637C103.824 39.0938 103.919 39.3709 104.109 39.5952C104.304 39.8195 104.554 40.0142 104.858 40.1792C105.167 40.34 105.493 40.4966 105.836 40.6489C106.162 40.7928 106.483 40.9451 106.801 41.106C107.122 41.2625 107.412 41.4487 107.67 41.6646C107.933 41.8761 108.142 42.13 108.299 42.4263C108.455 42.7225 108.534 43.0801 108.534 43.499C108.534 44.0365 108.398 44.5083 108.127 44.9146C107.857 45.3166 107.476 45.6297 106.985 45.854C106.498 46.0783 105.927 46.1904 105.271 46.1904C104.695 46.1904 104.147 46.0973 103.627 45.9111C103.106 45.7249 102.613 45.4456 102.148 45.0732ZM112.081 36.4785H110.964V46H112.081V36.4785ZM122.878 44.7812C122.442 45.2214 121.921 45.5662 121.316 45.8159C120.711 46.0656 120.051 46.1904 119.336 46.1904C118.621 46.1904 117.96 46.0677 117.355 45.8223C116.754 45.5768 116.232 45.2319 115.787 44.7876C115.343 44.339 114.998 43.8143 114.753 43.2134C114.507 42.6082 114.385 41.9502 114.385 41.2393C114.385 40.5241 114.507 39.866 114.753 39.2651C114.998 38.66 115.343 38.1353 115.787 37.6909C116.232 37.2466 116.754 36.9017 117.355 36.6562C117.96 36.4108 118.621 36.2881 119.336 36.2881C120.047 36.2881 120.705 36.4129 121.31 36.6626C121.915 36.908 122.436 37.2508 122.871 37.6909L122.091 38.4844C121.752 38.1077 121.346 37.8136 120.872 37.6021C120.398 37.3862 119.88 37.2783 119.317 37.2783C118.771 37.2783 118.267 37.3778 117.806 37.5767C117.345 37.7713 116.943 38.0485 116.6 38.4082C116.261 38.7637 115.997 39.1826 115.807 39.665C115.62 40.1475 115.527 40.6722 115.527 41.2393C115.527 41.8105 115.62 42.3374 115.807 42.8198C115.997 43.298 116.261 43.717 116.6 44.0767C116.943 44.4321 117.345 44.7093 117.806 44.9082C118.267 45.1029 118.771 45.2002 119.317 45.2002C119.88 45.2002 120.398 45.0944 120.872 44.8828C121.346 44.667 121.752 44.3708 122.091 43.9941L122.878 44.7812ZM125.594 46H124.42L128.33 36.4785H129.542L133.446 46H132.272L131.237 43.4292H126.628L125.594 46ZM127.022 42.439H130.843L128.933 37.6846L127.022 42.439ZM141.335 46H135.495V36.4785H136.613V45.0098H141.335V46ZM150.944 46H149.827V37.4688H146.767V36.4785H154.004V37.4688H150.944V46ZM157.107 46H155.99V36.4785H157.107V40.8076H162.42V36.4785H163.537V46H162.42V41.7979H157.107V46ZM167.408 36.4785H166.291V46H167.408V36.4785ZM178.44 46H177.259L171.273 38.2241V46H170.156V36.4785H171.337L177.323 44.2544V36.4785H178.44V46ZM188.405 38.3384C188.054 37.9956 187.641 37.7332 187.167 37.5513C186.693 37.3693 186.192 37.2783 185.663 37.2783C185.113 37.2783 184.607 37.3757 184.146 37.5703C183.684 37.7607 183.284 38.0337 182.946 38.3892C182.612 38.7404 182.351 39.1572 182.165 39.6396C181.983 40.1221 181.892 40.6532 181.892 41.2329C181.892 41.8084 181.983 42.3395 182.165 42.8262C182.347 43.3086 182.603 43.7275 182.933 44.083C183.263 44.4385 183.655 44.7135 184.108 44.9082C184.56 45.1029 185.058 45.2002 185.599 45.2002C186.099 45.2002 186.558 45.1177 186.977 44.9526C187.4 44.7834 187.77 44.5464 188.088 44.2417C188.409 43.9328 188.667 43.5667 188.862 43.1436C189.061 42.7161 189.184 42.2464 189.23 41.7344H185.739V40.8521H190.22L190.252 41.2646C190.252 41.9883 190.138 42.6506 189.909 43.2515C189.685 43.8524 189.366 44.3729 188.951 44.813C188.536 45.2531 188.045 45.5938 187.478 45.835C186.911 46.0719 186.287 46.1904 185.606 46.1904C184.907 46.1904 184.262 46.0677 183.67 45.8223C183.081 45.5726 182.567 45.2256 182.127 44.7812C181.691 44.3369 181.353 43.8164 181.111 43.2197C180.87 42.6188 180.75 41.965 180.75 41.2583C180.75 40.5474 180.872 39.8893 181.118 39.2842C181.363 38.679 181.706 38.1522 182.146 37.7036C182.586 37.255 183.105 36.908 183.701 36.6626C184.298 36.4129 184.948 36.2881 185.65 36.2881C186.314 36.2881 186.945 36.4023 187.542 36.6309C188.143 36.8594 188.676 37.1873 189.141 37.6147L188.405 38.3384ZM192.118 45.0732L192.657 44.2163C192.932 44.4406 193.207 44.6268 193.482 44.7749C193.757 44.923 194.037 45.033 194.32 45.105C194.608 45.1769 194.9 45.2129 195.196 45.2129C195.628 45.2129 196.004 45.141 196.326 44.9971C196.652 44.8532 196.906 44.6543 197.088 44.4004C197.27 44.1423 197.361 43.846 197.361 43.5117C197.361 43.1478 197.257 42.8473 197.05 42.6104C196.847 42.3691 196.582 42.1639 196.256 41.9946C195.93 41.8254 195.583 41.6646 195.215 41.5122C194.906 41.381 194.599 41.2414 194.295 41.0933C193.99 40.9451 193.713 40.7738 193.463 40.5791C193.218 40.3802 193.021 40.1411 192.873 39.8618C192.725 39.5825 192.651 39.2461 192.651 38.8525C192.651 38.349 192.778 37.9046 193.032 37.5195C193.285 37.1344 193.637 36.834 194.085 36.6182C194.538 36.4023 195.059 36.2944 195.647 36.2944C196.045 36.2944 196.445 36.3473 196.847 36.4531C197.249 36.5547 197.638 36.7049 198.014 36.9038L197.557 37.8179C197.261 37.6444 196.95 37.5111 196.624 37.418C196.303 37.3249 195.985 37.2783 195.672 37.2783C195.3 37.2783 194.972 37.3418 194.688 37.4688C194.409 37.5915 194.189 37.765 194.028 37.9893C193.872 38.2093 193.793 38.4674 193.793 38.7637C193.793 39.0938 193.889 39.3709 194.079 39.5952C194.274 39.8195 194.523 40.0142 194.828 40.1792C195.137 40.34 195.463 40.4966 195.806 40.6489C196.131 40.7928 196.453 40.9451 196.77 41.106C197.092 41.2625 197.382 41.4487 197.64 41.6646C197.902 41.8761 198.112 42.13 198.268 42.4263C198.425 42.7225 198.503 43.0801 198.503 43.499C198.503 44.0365 198.368 44.5083 198.097 44.9146C197.826 45.3166 197.445 45.6297 196.954 45.854C196.468 46.0783 195.896 46.1904 195.241 46.1904C194.665 46.1904 194.117 46.0973 193.597 45.9111C193.076 45.7249 192.583 45.4456 192.118 45.0732ZM204.887 46V36.4785H207.63C208.798 36.4785 209.801 36.6689 210.638 37.0498C211.481 37.4307 212.126 37.9766 212.574 38.6875C213.027 39.3984 213.254 40.249 213.254 41.2393C213.254 42.2253 213.027 43.0758 212.574 43.791C212.126 44.502 211.481 45.0479 210.638 45.4287C209.801 45.8096 208.798 46 207.63 46H204.887ZM206.005 45.0098H207.68C208.616 45.0098 209.413 44.8617 210.074 44.5654C210.734 44.2692 211.237 43.8397 211.584 43.2769C211.935 42.714 212.111 42.0348 212.111 41.2393C212.111 40.4437 211.935 39.7645 211.584 39.2017C211.237 38.6388 210.734 38.2093 210.074 37.9131C209.413 37.6169 208.616 37.4688 207.68 37.4688H206.005V45.0098ZM216.674 36.4785H215.557V46H216.674V36.4785ZM226.633 38.3384C226.282 37.9956 225.869 37.7332 225.395 37.5513C224.921 37.3693 224.42 37.2783 223.891 37.2783C223.341 37.2783 222.835 37.3757 222.374 37.5703C221.912 37.7607 221.513 38.0337 221.174 38.3892C220.84 38.7404 220.579 39.1572 220.393 39.6396C220.211 40.1221 220.12 40.6532 220.12 41.2329C220.12 41.8084 220.211 42.3395 220.393 42.8262C220.575 43.3086 220.831 43.7275 221.161 44.083C221.491 44.4385 221.883 44.7135 222.336 44.9082C222.788 45.1029 223.286 45.2002 223.827 45.2002C224.327 45.2002 224.786 45.1177 225.205 44.9526C225.628 44.7834 225.998 44.5464 226.316 44.2417C226.637 43.9328 226.895 43.5667 227.09 43.1436C227.289 42.7161 227.412 42.2464 227.458 41.7344H223.967V40.8521H228.448L228.48 41.2646C228.48 41.9883 228.366 42.6506 228.137 43.2515C227.913 43.8524 227.594 44.3729 227.179 44.813C226.764 45.2531 226.273 45.5938 225.706 45.835C225.139 46.0719 224.515 46.1904 223.834 46.1904C223.135 46.1904 222.49 46.0677 221.898 45.8223C221.309 45.5726 220.795 45.2256 220.355 44.7812C219.919 44.3369 219.581 43.8164 219.34 43.2197C219.098 42.6188 218.978 41.965 218.978 41.2583C218.978 40.5474 219.1 39.8893 219.346 39.2842C219.591 38.679 219.934 38.1522 220.374 37.7036C220.814 37.255 221.333 36.908 221.929 36.6626C222.526 36.4129 223.176 36.2881 223.878 36.2881C224.543 36.2881 225.173 36.4023 225.77 36.6309C226.371 36.8594 226.904 37.1873 227.369 37.6147L226.633 38.3384ZM231.907 36.4785H230.79V46H231.907V36.4785ZM238.07 46H236.953V37.4688H233.893V36.4785H241.13V37.4688H238.07V46ZM242.83 46H241.656L245.566 36.4785H246.778L250.682 46H249.508L248.473 43.4292H243.865L242.83 46ZM244.258 42.439H248.079L246.169 37.6846L244.258 42.439ZM258.571 46H252.732V36.4785H253.849V45.0098H258.571V46Z" fill="black"/>
</svg>
