<svg width="256" height="113" viewBox="0 0 256 113" fill="none" xmlns="http://www.w3.org/2000/svg">
<g clip-path="url(#clip0_8_12598)">
<path d="M0.742676 103.838H1.5083L3.49414 110.908H3.51611L5.53417 103.838H6.48242L8.50049 110.908H8.52246L10.5083 103.838H11.2739L8.95069 111.821H8.0376L6.01855 104.717H5.99805L3.979 111.821H3.06591L0.742676 103.838Z" fill="#7B7979"/>
<path d="M14.4209 103.838H19.3038V104.515H15.1655V107.357H19.0435V108.033H15.1655V111.146H19.4844V111.821H14.4209V103.838Z" fill="#7B7979"/>
<path d="M27.9536 103.838H29.0679L31.9795 110.537L34.8881 103.838H35.9477V111.821H35.2031V104.786H35.1811L32.1367 111.821H31.8086L28.7202 104.786H28.6967V111.821H27.9536V103.838Z" fill="#7B7979"/>
<path d="M42.8487 104.649L40.9869 109.026H44.6514L42.8487 104.649ZM42.498 103.838H43.2647L46.6265 111.821H45.7915L44.9224 109.701H40.6939L39.793 111.821H39.0142L42.498 103.838Z" fill="#7B7979"/>
<path d="M49.771 103.838H50.5156V107.357H50.583L54.4511 103.838H55.478L51.44 107.491L55.7026 111.821H54.6319L50.583 107.695H50.5156V111.821H49.771V103.838Z" fill="#7B7979"/>
<path d="M58.6577 103.838H63.5405V104.515H59.4023V107.357H63.2807V108.033H59.4023V111.146H63.7212V111.821H58.6577V103.838Z" fill="#7B7979"/>
<path d="M73.0132 107.357H74.7052C74.9142 107.357 75.1202 107.333 75.3243 107.283C75.5279 107.234 75.7086 107.155 75.8663 107.046C76.0236 106.938 76.1519 106.792 76.2495 106.612C76.3472 106.432 76.3961 106.209 76.3961 105.946C76.3961 105.691 76.3448 105.473 76.2432 105.292C76.1422 105.112 76.0113 104.963 75.8492 104.847C75.6866 104.731 75.5011 104.646 75.2911 104.593C75.0802 104.541 74.8702 104.515 74.6588 104.515H73.0132V107.357ZM72.2686 103.838H74.5684C74.8467 103.838 75.1387 103.87 75.4439 103.934C75.7476 103.998 76.0249 104.108 76.2774 104.266C76.5288 104.425 76.7364 104.641 76.8976 104.915C77.0587 105.19 77.1392 105.534 77.1392 105.946C77.1392 106.308 77.0733 106.62 76.9429 106.883C76.8111 107.146 76.6353 107.361 76.4132 107.531C76.1919 107.7 75.9347 107.826 75.6451 107.909C75.3561 107.992 75.0533 108.033 74.7383 108.033H73.0132V111.821H72.2686V103.838Z" fill="#7B7979"/>
<path d="M80.7368 103.838H81.4814V107.357H85.9467V103.838H86.6913V111.821H85.9467V108.033H81.4814V111.821H80.7368V103.838Z" fill="#7B7979"/>
<path d="M92.646 108.383L89.7139 103.838H90.6035L93.0171 107.627L95.4877 103.838H96.3212L93.3891 108.383V111.821H92.646V108.383Z" fill="#7B7979"/>
<path d="M99.5577 110.344C99.7529 110.684 100.007 110.935 100.319 111.1C100.63 111.267 100.986 111.349 101.385 111.349C101.633 111.349 101.865 111.311 102.085 111.236C102.302 111.161 102.491 111.055 102.653 110.919C102.815 110.784 102.942 110.621 103.037 110.43C103.13 110.237 103.178 110.021 103.178 109.781C103.178 109.503 103.12 109.273 103.003 109.093C102.885 108.912 102.729 108.764 102.535 108.648C102.339 108.531 102.119 108.432 101.875 108.348C101.631 108.265 101.379 108.183 101.119 108.101C100.86 108.018 100.608 107.924 100.363 107.819C100.12 107.713 99.8994 107.576 99.7042 107.407C99.5088 107.237 99.3525 107.025 99.2364 106.77C99.1192 106.514 99.062 106.199 99.062 105.823C99.062 105.47 99.1304 105.156 99.2695 104.881C99.4088 104.607 99.5967 104.377 99.8345 104.194C100.071 104.009 100.344 103.87 100.651 103.776C100.96 103.682 101.282 103.636 101.621 103.636C102.056 103.636 102.461 103.712 102.834 103.867C103.205 104.021 103.526 104.278 103.797 104.639L103.155 105.101C102.967 104.838 102.746 104.641 102.496 104.509C102.243 104.377 101.945 104.312 101.599 104.312C101.358 104.312 101.128 104.344 100.911 104.408C100.691 104.471 100.503 104.566 100.342 104.69C100.18 104.813 100.049 104.969 99.9517 105.157C99.854 105.346 99.8052 105.567 99.8052 105.823C99.8052 106.222 99.9078 106.528 100.11 106.742C100.313 106.956 100.567 107.125 100.871 107.25C101.175 107.374 101.506 107.482 101.863 107.576C102.22 107.67 102.552 107.796 102.856 107.954C103.161 108.113 103.415 108.331 103.616 108.614C103.82 108.896 103.923 109.284 103.923 109.781C103.923 110.142 103.853 110.462 103.719 110.738C103.584 111.017 103.4 111.252 103.172 111.444C102.942 111.636 102.678 111.78 102.376 111.878C102.076 111.976 101.765 112.025 101.441 112.025C100.914 112.025 100.429 111.933 99.9859 111.748C99.5415 111.564 99.1632 111.254 98.8472 110.818L99.5577 110.344Z" fill="#7B7979"/>
<path d="M107.608 103.838H108.353V111.821H107.608V103.838Z" fill="#7B7979"/>
<path d="M119.112 110.571C118.728 111.089 118.284 111.46 117.781 111.687C117.276 111.912 116.732 112.025 116.145 112.025C115.535 112.025 114.978 111.92 114.471 111.714C113.963 111.508 113.528 111.219 113.169 110.847C112.807 110.474 112.526 110.03 112.322 109.517C112.119 109.001 112.019 108.438 112.019 107.83C112.019 107.221 112.119 106.661 112.322 106.15C112.526 105.64 112.807 105.197 113.169 104.824C113.528 104.453 113.963 104.162 114.471 103.951C114.978 103.74 115.535 103.636 116.145 103.636C116.687 103.636 117.192 103.73 117.662 103.923C118.132 104.114 118.543 104.436 118.896 104.887L118.287 105.395C118.039 105.018 117.722 104.745 117.335 104.572C116.948 104.399 116.551 104.312 116.145 104.312C115.626 104.312 115.158 104.402 114.742 104.583C114.324 104.763 113.969 105.011 113.676 105.327C113.382 105.643 113.157 106.014 112.999 106.442C112.841 106.872 112.763 107.334 112.763 107.83C112.763 108.327 112.841 108.789 112.999 109.217C113.157 109.646 113.382 110.018 113.676 110.333C113.969 110.648 114.324 110.898 114.742 111.079C115.158 111.258 115.626 111.349 116.145 111.349C116.348 111.349 116.56 111.324 116.775 111.275C116.995 111.227 117.208 111.152 117.414 111.049C117.62 110.948 117.818 110.82 118.006 110.667C118.194 110.512 118.359 110.326 118.502 110.108L119.112 110.571Z" fill="#7B7979"/>
<path d="M125.267 104.649L123.406 109.026H127.071L125.267 104.649ZM124.917 103.838H125.684L129.046 111.821H128.211L127.342 109.701H123.112L122.211 111.821H121.434L124.917 103.838Z" fill="#7B7979"/>
<path d="M132.19 103.838H132.935V111.146H136.656V111.821H132.19V103.838Z" fill="#7B7979"/>
<path d="M146.523 104.515H143.794V103.838H149.996V104.515H147.266V111.821H146.523V104.515Z" fill="#7B7979"/>
<path d="M153.221 103.838H153.965V107.357H158.43V103.838H159.174V111.821H158.43V108.033H153.965V111.821H153.221V103.838Z" fill="#7B7979"/>
<path d="M163.357 103.838H164.102V111.821H163.357V103.838Z" fill="#7B7979"/>
<path d="M168.285 103.838H169.245L174.106 110.829H174.126V103.838H174.871V111.821H173.913L169.054 104.83H169.03V111.821H168.285V103.838Z" fill="#7B7979"/>
<path d="M185.64 111.303C185.174 111.566 184.69 111.753 184.191 111.861C183.692 111.97 183.182 112.025 182.662 112.025C182.054 112.025 181.496 111.92 180.99 111.714C180.481 111.508 180.047 111.219 179.687 110.847C179.325 110.474 179.044 110.03 178.841 109.517C178.637 109.001 178.536 108.438 178.536 107.83C178.536 107.221 178.637 106.661 178.841 106.15C179.044 105.64 179.325 105.197 179.687 104.824C180.047 104.453 180.481 104.162 180.99 103.951C181.496 103.74 182.054 103.636 182.662 103.636C183.851 103.636 184.81 104.002 185.54 104.74L184.999 105.305C184.877 105.16 184.73 105.027 184.551 104.903C184.376 104.779 184.185 104.674 183.976 104.588C183.77 104.501 183.554 104.434 183.329 104.385C183.104 104.336 182.881 104.312 182.662 104.312C182.144 104.312 181.676 104.402 181.26 104.583C180.842 104.763 180.487 105.011 180.195 105.327C179.9 105.643 179.676 106.014 179.517 106.442C179.36 106.872 179.281 107.334 179.281 107.83C179.281 108.327 179.36 108.789 179.517 109.217C179.676 109.646 179.9 110.018 180.195 110.333C180.487 110.648 180.842 110.898 181.26 111.079C181.676 111.258 182.144 111.349 182.662 111.349C183.092 111.349 183.495 111.314 183.87 111.246C184.246 111.179 184.587 111.055 184.896 110.875V108.19H182.979V107.515H185.64V111.303Z" fill="#7B7979"/>
<path d="M190.039 110.344C190.234 110.684 190.488 110.935 190.8 111.1C191.111 111.267 191.466 111.349 191.866 111.349C192.114 111.349 192.345 111.311 192.565 111.236C192.781 111.161 192.971 111.055 193.134 110.919C193.295 110.784 193.423 110.621 193.518 110.43C193.611 110.237 193.658 110.021 193.658 109.781C193.658 109.503 193.6 109.273 193.485 109.093C193.366 108.912 193.21 108.764 193.016 108.648C192.82 108.531 192.6 108.432 192.355 108.348C192.113 108.265 191.86 108.183 191.6 108.101C191.341 108.018 191.089 107.924 190.844 107.819C190.601 107.713 190.38 107.576 190.185 107.407C189.99 107.237 189.834 107.025 189.718 106.77C189.6 106.514 189.543 106.199 189.543 105.823C189.543 105.47 189.611 105.156 189.75 104.881C189.89 104.607 190.078 104.377 190.314 104.194C190.553 104.009 190.825 103.87 191.133 103.776C191.441 103.682 191.764 103.636 192.101 103.636C192.538 103.636 192.943 103.712 193.314 103.867C193.686 104.021 194.008 104.278 194.278 104.639L193.636 105.101C193.446 104.838 193.228 104.641 192.976 104.509C192.724 104.377 192.426 104.312 192.08 104.312C191.838 104.312 191.609 104.344 191.393 104.408C191.173 104.471 190.984 104.566 190.823 104.69C190.661 104.813 190.53 104.969 190.433 105.157C190.335 105.346 190.286 105.567 190.286 105.823C190.286 106.222 190.389 106.528 190.591 106.742C190.794 106.956 191.048 107.125 191.353 107.25C191.656 107.374 191.986 107.482 192.345 107.576C192.701 107.67 193.033 107.796 193.336 107.954C193.643 108.113 193.896 108.331 194.098 108.614C194.301 108.896 194.404 109.284 194.404 109.781C194.404 110.142 194.334 110.462 194.2 110.738C194.064 111.017 193.881 111.252 193.651 111.444C193.423 111.636 193.159 111.78 192.858 111.878C192.556 111.976 192.245 112.025 191.923 112.025C191.395 112.025 190.91 111.933 190.466 111.748C190.023 111.564 189.643 111.254 189.328 110.818L190.039 110.344Z" fill="#7B7979"/>
<path d="M203.659 111.146H205.194C205.72 111.146 206.212 111.08 206.67 110.948C207.13 110.816 207.527 110.615 207.865 110.344C208.205 110.073 208.471 109.731 208.667 109.313C208.862 108.896 208.96 108.401 208.96 107.83C208.96 107.259 208.862 106.765 208.667 106.348C208.471 105.93 208.205 105.586 207.865 105.315C207.527 105.044 207.13 104.844 206.67 104.712C206.212 104.581 205.72 104.515 205.194 104.515H203.659V111.146ZM202.916 103.838H205.385C206.077 103.838 206.664 103.923 207.145 104.092C207.625 104.261 208.026 104.477 208.345 104.74C208.665 105.003 208.916 105.295 209.101 105.615C209.285 105.933 209.421 106.24 209.506 106.533C209.594 106.826 209.647 107.091 209.67 107.328C209.692 107.565 209.704 107.732 209.704 107.83C209.704 107.927 209.692 108.096 209.67 108.331C209.647 108.568 209.594 108.833 209.506 109.126C209.421 109.42 209.285 109.726 209.101 110.045C208.916 110.366 208.665 110.656 208.345 110.919C208.026 111.184 207.625 111.399 207.145 111.568C206.664 111.738 206.077 111.821 205.385 111.821H202.916V103.838Z" fill="#7B7979"/>
<path d="M213.369 103.838H214.114V111.821H213.369V103.838Z" fill="#7B7979"/>
<path d="M224.882 111.303C224.416 111.566 223.932 111.753 223.434 111.861C222.934 111.97 222.425 112.025 221.905 112.025C221.296 112.025 220.737 111.92 220.231 111.714C219.724 111.508 219.289 111.219 218.929 110.847C218.567 110.474 218.285 110.03 218.082 109.517C217.879 109.001 217.777 108.438 217.777 107.83C217.777 107.221 217.879 106.661 218.082 106.15C218.285 105.64 218.567 105.197 218.929 104.824C219.289 104.453 219.724 104.162 220.231 103.951C220.737 103.74 221.296 103.636 221.905 103.636C223.092 103.636 224.052 104.002 224.782 104.74L224.24 105.305C224.119 105.16 223.971 105.027 223.794 104.903C223.617 104.779 223.427 104.674 223.219 104.588C223.012 104.501 222.796 104.434 222.57 104.385C222.345 104.336 222.124 104.312 221.905 104.312C221.386 104.312 220.919 104.402 220.502 104.583C220.085 104.763 219.73 105.011 219.436 105.327C219.142 105.643 218.917 106.014 218.759 106.442C218.6 106.872 218.524 107.334 218.524 107.83C218.524 108.327 218.6 108.789 218.759 109.217C218.917 109.646 219.142 110.018 219.436 110.333C219.73 110.648 220.085 110.898 220.502 111.079C220.919 111.258 221.386 111.349 221.905 111.349C222.335 111.349 222.736 111.314 223.111 111.246C223.489 111.179 223.83 111.055 224.137 110.875V108.19H222.221V107.515H224.882V111.303Z" fill="#7B7979"/>
<path d="M229.065 103.838H229.81V111.821H229.065V103.838Z" fill="#7B7979"/>
<path d="M235.765 104.515H233.035V103.838H239.238V104.515H236.509V111.821H235.765V104.515Z" fill="#7B7979"/>
<path d="M244.494 104.649L242.632 109.026H246.297L244.494 104.649ZM244.144 103.838H244.909L248.271 111.821H247.436L246.567 109.701H242.339L241.437 111.821H240.659L244.144 103.838Z" fill="#7B7979"/>
<path d="M251.415 103.838H252.161V111.146H255.883V111.821H251.415V103.838Z" fill="#7B7979"/>
<path d="M126.75 53.8999V53.7749H125.125V53.6499H124V53.5249H123.25V53.3999H122.625V53.2749H121.875V53.1499H121.375V53.0249H121V52.8999H120.5V52.7749H120.125V52.6499H119.625V52.5249H119.25V52.3999H118.875V52.2749H118.625V52.1499H118.25V52.0249H117.875V51.8999H117.625V51.7749H117.25V51.6499H117V51.5249H116.75V51.3999H116.5V51.2749H116.25V51.1499H116V51.0249H115.75V50.8999H115.5V50.7749H115.25V50.6499H115V50.5249H114.75V50.3999H114.5V50.2749H114.25V50.1499H114.125V50.0249H113.875V49.8999H113.75V49.7749H113.5V49.6499H113.25V49.5249H113.125V49.3999H112.875V49.2749H112.75V49.1499H112.5V49.0249H112.375V48.8999H112.125V48.7749H112V48.6499H111.875V48.5249H111.625V48.3999H111.5V48.2749H111.375V48.1499H111.25V48.0249H111V47.8999H110.875V47.7749H110.75V47.6499H110.5V47.5249H110.375V47.3999H110.25V47.2749H110.125V47.1499H110V47.0249H109.875V46.8999H109.75V46.7749H109.625V46.6499H109.5V46.5249H109.375V46.3999H109.125V46.2749H109V46.1499H108.875V46.0249H108.75V45.8999H108.625V45.7749H108.5V45.6499H108.375V45.5249H108.25V45.3999H108.125V45.1499H108V45.0249H107.875V44.8999H107.75V44.7749H107.625V44.6499H107.5V44.5249H107.375V44.3999H107.25V44.1499H107.125V44.0249H107V43.8999H106.875V43.7749H106.75V43.6499H106.625V43.3999H106.5V43.2749H106.375V43.1499H106.25V42.8999H106.125V42.7749H106V42.5249H105.875V42.3999H105.75V42.2749H105.625V42.0249H105.5V41.8999H105.375V41.7749H105.25V41.5249H105.125V41.2749H105V41.1499H104.875V40.8999H104.75V40.6499H104.625V40.3999H104.5V40.2749H104.375V40.0249H104.25V39.7749H104.125V39.6499H104V39.3999H103.875V39.1499H103.75V38.8999H103.625V38.5249H103.5V38.2749H103.375V38.0249H103.25V37.7749H103.125V37.5249H103V37.1499H102.875V36.8999H102.75V36.5249H102.625V36.1499H102.5V35.7749H102.375V35.5249H102.25V35.1499H102.125V34.7749H102V34.3999H101.875V33.7749H101.75V33.2749H101.625V32.7749H101.5V32.1499H101.375V31.6499H101.25V30.7749H101.125V29.8999H101V28.3999H100.875V25.7749H101V24.1499H101.125V23.0249H101.25V22.3999H101.375V21.6499H101.5V20.8999H101.625V20.3999H101.75V20.0249H101.875V19.5249H102V19.1499H102.125V18.6499H102.25V18.2749H102.375V17.8999H102.5V17.6499H102.625V17.2749H102.75V17.0249H102.875V16.6499H103V16.2749H103.125V16.0249H103.25V15.7749H103.375V15.5249H103.5V15.2749H103.625V15.0249H103.75V14.7749H103.875V14.5249H104V14.2749H104.125V14.0249H104.25V13.7749H104.375V13.5249H104.5V13.2749H104.625V13.1499H104.75V12.8999H104.875V12.7749H105V12.5249H105.125V12.2749H105.25V12.1499H105.375V11.8999H105.5V11.7749H105.625V11.5249H105.75V11.3999H105.875V11.1499H106V11.0249H106.125V10.8999H106.25V10.6499H106.375V10.5249H106.5V10.3999H106.625V10.2749H106.75V10.0249H106.875V9.8999H107V9.7749H107.125V9.6499H107.25V9.3999H107.375V9.2749H107.5V9.1499H107.625V9.0249H107.75V8.8999H107.875V8.7749H108V8.6499H108.125V8.5249H108.25V8.3999H108.375V8.2749H108.5V8.0249H108.625V7.8999H108.75V7.7749H108.875V7.6499H109V7.5249H109.125V7.3999H109.25V7.2749H109.375V7.1499H109.625V7.0249H109.75V6.8999H109.875V6.7749H110V6.6499H110.125V6.5249H110.25V6.3999H110.375V6.2749H110.625V6.1499H110.75V6.0249H110.875V5.8999H111V5.7749H111.125V5.6499H111.375V5.5249H111.5V5.3999H111.625V5.2749H111.875V5.1499H112V5.0249H112.25V4.8999H112.375V4.7749H112.5V4.6499H112.75V4.5249H112.875V4.3999H113.125V4.2749H113.25V4.1499H113.5V4.0249H113.75V3.8999H113.875V3.7749H114.125V3.6499H114.375V3.5249H114.5V3.3999H114.75V3.2749H115V3.1499H115.25V3.0249H115.375V2.8999H115.625V2.7749H116V2.6499H116.25V2.5249H116.5V2.3999H116.75V2.2749H117V2.1499H117.375V2.0249H117.625V1.8999H117.875V1.7749H118.25V1.6499H118.625V1.5249H119V1.3999H119.375V1.2749H119.75V1.1499H120.125V1.0249H120.5V0.899902H121V0.774902H121.5V0.649902H122.125V0.524902H122.625V0.399902H123.25V0.274902H124.125V0.149902H125V0.0249023H130.75V0.149902H131.625V0.274902H132.375V0.399902H133.25V0.524902H133.75V0.649902H134.25V0.774902H134.75V0.899902H135.25V1.0249H135.75V1.1499H136.125V1.2749H136.375V1.3999H136.75V1.5249H137.125V1.6499H137.5V1.7749H137.875V1.8999H138.125V2.0249H138.375V2.1499H138.75V2.2749H139V2.3999H139.25V2.5249H139.5V2.6499H139.75V2.7749H140V2.8999H140.375V3.0249H140.5V3.1499H140.75V3.2749H141V3.3999H141.125V3.5249H141.375V3.6499H141.625V3.7749H141.875V3.8999H142V4.0249H142.25V4.1499H142.5V4.2749H142.625V4.3999H142.875V4.5249H143V4.6499H143.125V4.7749H143.375V4.8999H143.5V5.0249H143.75V5.1499H143.875V5.2749H144.125V5.3999H144.25V5.5249H144.375V5.6499H144.5V5.7749H144.75V5.8999H144.875V6.0249H145V6.1499H145.125V6.2749H145.25V6.3999H145.5V6.5249H145.625V6.6499H145.75V6.7749H145.875V6.8999H146V7.0249H146.125V7.1499H146.375V7.2749H146.5V7.5249H146.625V7.6499H146.75V7.7749H146.875V7.8999H147V8.0249H147.125V8.1499H147.25V8.2749H147.375V8.3999H147.5V8.5249H147.625V8.6499H147.75V8.7749H147.875V8.8999H148V9.0249H148.125V9.1499H148.25V9.2749H148.375V9.5249H148.5V9.6499H148.625V9.7749H148.75V9.8999H148.875V10.0249H149V10.2749H149.125V10.3999H149.25V10.5249H149.375V10.6499H149.5V10.8999H149.625V11.0249H149.75V11.2749H149.875V11.3999H150V11.6499H150.125V11.7749H150.25V12.0249H150.375V12.1499H150.5V12.2749H150.625V12.5249H150.75V12.6499H150.875V12.8999H151V13.1499H151.125V13.3999H151.25V13.5249H151.375V13.7749H151.5V14.0249H151.625V14.2749H151.75V14.5249H151.875V14.7749H152V14.8999H152.125V15.2749H152.25V15.5249H152.375V15.7749H152.5V16.1499H152.625V16.3999H152.75V16.6499H152.875V16.8999H153V17.2749H153.125V17.6499H153.25V18.0249H153.375V18.3999H153.5V18.7749H153.625V19.1499H153.75V19.5249H153.875V20.0249H154V20.5249H154.125V21.1499H154.25V21.6499H154.375V22.2749H154.5V23.1499H154.625V24.0249H154.75V26.5249H154.875V27.7749H154.75V29.3999H154.625V30.6499H154.5V31.3999H154.375V32.1499H154.25V32.7749H154.125V33.2749H154V33.7749H153.875V34.1499H153.75V34.6499H153.625V35.0249H153.5V35.5249H153.375V35.8999H153.25V36.1499H153.125V36.5249H153V36.7749H152.875V37.1499H152.75V37.3999H152.625V37.7749H152.5V38.0249H152.375V38.2749H152.25V38.5249H152.125V38.7749H152V39.0249H151.875V39.2749H151.75V39.5249H151.625V39.7749H151.5V40.0249H151.375V40.2749H151.25V40.5249H151.125V40.6499H151V40.8999H150.875V41.0249H150.75V41.2749H150.625V41.3999H150.5V41.6499H150.375V41.8999H150.25V42.0249H150.125V42.2749H150V42.3999H149.875V42.6499H149.75V42.7749H149.625V42.8999H149.5V43.0249H149.375V43.2749H149.25V43.3999H149.125V43.5249H149V43.7749H148.875V43.8999H148.75V44.0249H148.625V44.1499H148.5V44.3999H148.375V44.5249H148.25V44.6499H148.125V44.7749H148V44.8999H147.875V45.0249H147.75V45.1499H147.625V45.2749H147.5V45.3999H147.375V45.5249H147.25V45.6499H147.125V45.8999H147V46.0249H146.875V46.1499H146.75V46.2749H146.625V46.3999H146.5V46.5249H146.25V46.6499H146.125V46.7749H146V46.8999H145.875V47.0249H145.75V47.1499H145.625V47.2749H145.5V47.3999H145.25V47.5249H145.125V47.6499H145V47.7749H144.875V47.8999H144.75V48.0249H144.625V48.1499H144.375V48.2749H144.25V48.3999H144.125V48.5249H143.875V48.6499H143.75V48.7749H143.5V48.8999H143.375V49.0249H143.25V49.1499H143V49.2749H142.875V49.3999H142.625V49.5249H142.5V49.6499H142.25V49.7749H142.125V49.8999H141.875V50.0249H141.625V50.1499H141.375V50.2749H141.25V50.3999H141V50.5249H140.75V50.6499H140.5V50.7749H140.375V50.8999H140.125V51.0249H139.75V51.1499H139.5V51.2749H139.25V51.3999H139V51.5249H138.75V51.6499H138.375V51.7749H138.125V51.8999H137.875V52.0249H137.5V52.1499H137.125V52.2749H136.75V52.3999H136.375V52.5249H136V52.6499H135.75V52.7749H135.375V52.8999H134.75V53.0249H134.25V53.1499H133.75V53.2749H133.125V53.3999H132.625V53.5249H131.75V53.6499H130.875V53.7749H129.375V53.8999" fill="url(#paint0_linear_8_12598)"/>
<path d="M156.761 27.5175C155.896 27.5005 155.032 27.4829 154.167 27.4765C140.659 27.4155 127.018 28.6425 114.756 31.0117C109.582 32.0019 104.414 33.2812 99.3989 34.8139L99.1719 34.8822L99.2364 35.1117C99.373 35.5859 99.5195 36.0561 99.6773 36.5229L99.7539 36.748L99.981 36.6752C104.913 35.1215 110.004 33.812 115.109 32.7876C127.233 30.3281 140.736 28.9951 154.159 28.9331C155.015 28.935 155.871 28.9385 156.727 28.9482L157.57 28.958L157.592 28.623C157.607 28.3427 157.625 28.0625 157.633 27.7807L157.639 27.5351L156.761 27.5175ZM157.186 30.3657C156.382 30.3242 155.448 30.2787 154.533 30.2656H154.375C149.82 30.2656 145.475 30.6909 141.46 31.5312C137.17 32.413 133.084 33.7324 129.318 35.4511C125.783 37.02 122.324 39.0917 119.033 41.6079C116.067 43.9404 113.493 46.5049 111.377 49.229C111.02 49.6934 110.696 50.1581 110.336 50.6714L110.198 50.8676L110.393 51.0067C110.959 51.4184 111.541 51.812 112.124 52.1786L112.325 52.3022L112.513 52.022C112.797 51.6001 113.079 51.1806 113.391 50.7597C115.337 48.1635 117.725 45.7016 120.489 43.4482C123.591 40.9887 126.864 38.9526 130.216 37.395C133.815 35.6762 137.733 34.3359 141.864 33.4106C145.784 32.5185 150.05 32.0312 154.533 31.9619C155.349 31.9662 156.155 31.9844 156.99 32.0136L157.204 32.0195L157.24 31.8095C157.304 31.4214 157.366 31.0312 157.415 30.6376L157.447 30.3789L157.186 30.3657ZM157.641 26.7729L157.38 26.7592C152.181 26.4731 147.154 25.562 142.44 24.0474C133.935 21.355 126.516 16.8281 120.987 10.9565V10.9545C118.025 7.7705 115.705 4.33887 114.089 0.756371L113.995 0.546875L114.199 0.440369C114.294 0.391617 114.39 0.344749 114.487 0.297874L114.905 0.09375L115.009 0.320747C116.591 3.79975 118.863 7.13325 121.758 10.2295C127.18 15.9478 134.451 20.3471 142.784 22.9541C147.388 24.4155 152.3 25.2915 157.389 25.5586L157.609 25.5697L157.617 25.7915C157.627 26.0326 157.632 26.2739 157.637 26.5141L157.641 26.7729Z" fill="white"/>
<path d="M11.6792 77.0336C11.252 76.5 10.7256 76.0533 10.0996 75.6934C9.47216 75.333 8.70556 75.1538 7.7998 75.1538C6.94531 75.1538 6.20556 75.333 5.5791 75.6934C4.95166 76.0533 4.63916 76.58 4.63916 77.2734C4.63916 77.833 4.81885 78.2871 5.17871 78.6333C5.53906 78.98 5.96485 79.2603 6.45948 79.4731C6.95264 79.6875 7.47851 79.8471 8.03906 79.9536C8.59912 80.0605 9.0791 80.1538 9.47949 80.2339C10.252 80.4204 10.9795 80.647 11.6597 80.9135C12.3393 81.1801 12.9253 81.5269 13.4185 81.9536C13.9116 82.3804 14.2989 82.9004 14.5796 83.5136C14.8589 84.1269 14.9995 84.8735 14.9995 85.7534C14.9995 86.8208 14.7725 87.7339 14.3194 88.4936C13.8652 89.2534 13.2793 89.8735 12.5591 90.353C11.8389 90.8335 11.0185 91.1801 10.0996 91.3935C9.1792 91.6064 8.25244 91.7134 7.31885 91.7134C5.74511 91.7134 4.36573 91.4731 3.1792 90.9936C1.99267 90.5131 0.932129 89.6338 -0.000488281 88.353L2.71924 86.1133C3.30518 86.7001 3.95948 87.2201 4.67969 87.6733C5.39844 88.1274 6.27881 88.353 7.31885 88.353C7.77149 88.353 8.23194 88.3076 8.69923 88.2134C9.16553 88.1201 9.57959 87.9736 9.93945 87.7734C10.2998 87.5733 10.5928 87.3203 10.8184 87.0136C11.0454 86.707 11.1592 86.3535 11.1592 85.9531C11.1592 85.4204 10.9917 84.9805 10.6587 84.6338C10.3252 84.2871 9.9248 84.0136 9.4585 83.8135C8.99219 83.6133 8.49903 83.4531 7.979 83.3335C7.45899 83.2134 6.99902 83.1133 6.59864 83.0331C5.82569 82.8471 5.09229 82.6333 4.39892 82.3935C3.70556 82.1533 3.09277 81.8335 2.55909 81.4336C2.02588 81.0331 1.59864 80.5274 1.27881 79.913C0.958985 79.3003 0.798829 78.5405 0.798829 77.6333C0.798829 76.6474 1.00537 75.7871 1.41895 75.0536C1.83154 74.3208 2.37841 73.7134 3.05958 73.2334C3.73975 72.7534 4.51221 72.3935 5.37891 72.1533C6.2456 71.9135 7.11865 71.7939 7.99854 71.7939C9.2793 71.7939 10.5049 72.0336 11.6792 72.5131C12.852 72.9936 13.7846 73.7934 14.4795 74.913L11.6792 77.0336Z" fill="#211D1D"/>
<path d="M19.478 72.2734H22.8389V75.2339H22.9194C22.9985 74.9668 23.2052 74.6338 23.5382 74.2334C23.8717 73.8335 24.2989 73.4531 24.8189 73.0933C25.3389 72.7339 25.9517 72.4273 26.6583 72.1733C27.3653 71.9199 28.145 71.7939 28.9985 71.7939C30.4122 71.7939 31.5987 72.0874 32.5592 72.6733C33.5185 73.2603 34.3048 74.1406 34.919 75.3135C35.5318 74.1406 36.3985 73.2603 37.519 72.6733C38.6382 72.0874 39.7725 71.7939 40.9185 71.7939C42.3848 71.7939 43.5845 72.0336 44.5185 72.5131C45.4522 72.9936 46.1847 73.6274 46.7183 74.4135C47.2515 75.2001 47.6192 76.0938 47.8194 77.0933C48.0182 78.0933 48.1182 79.1269 48.1182 80.1934V91.2334H44.5185V80.6733C44.5185 79.9536 44.4722 79.2603 44.3794 78.5938C44.2852 77.9273 44.0923 77.3408 43.7984 76.8335C43.5054 76.3276 43.0913 75.9204 42.5592 75.6133C42.0244 75.3071 41.3189 75.1538 40.439 75.1538C38.7057 75.1538 37.4654 75.687 36.7183 76.7534C35.9722 77.8203 35.5987 79.1939 35.5987 80.873V91.2334H31.999V81.3135C31.999 80.4073 31.9512 79.5805 31.8584 78.8335C31.7647 78.0869 31.5792 77.4399 31.2984 76.893C31.0185 76.3471 30.6182 75.9204 30.0982 75.6133C29.5782 75.3071 28.8789 75.1538 27.9985 75.1538C27.3589 75.1538 26.7388 75.2798 26.1382 75.5331C25.5392 75.7871 25.0118 76.167 24.5587 76.6733C24.1045 77.1802 23.7447 77.8271 23.4785 78.6133C23.2124 79.4004 23.0792 80.3271 23.0792 81.3935V91.2334H19.478V72.2734Z" fill="#211D1D"/>
<path d="M63.918 82.1133C63.0645 82.1133 62.1904 82.1606 61.2984 82.2534C60.4048 82.3471 59.5918 82.5274 58.8579 82.7934C58.1246 83.06 57.5239 83.4331 57.0577 83.9135C56.5913 84.393 56.3579 85.0073 56.3579 85.7534C56.3579 86.8471 56.7242 87.6333 57.458 88.1133C58.1914 88.5938 59.1842 88.8335 60.4375 88.8335C61.4239 88.8335 62.2637 88.667 62.9585 88.3335C63.6504 88.0005 64.211 87.5669 64.6382 87.0336C65.064 86.5 65.3707 85.9068 65.5587 85.2534C65.7442 84.6001 65.8379 83.9531 65.8379 83.3135V82.1133H63.918ZM53.7579 74.5933C54.771 73.6601 55.9444 72.9599 57.2784 72.4931C58.6114 72.0269 59.9444 71.7939 61.2774 71.7939C62.6642 71.7939 63.8579 71.9668 64.8579 72.313C65.8574 72.6601 66.6778 73.1274 67.3174 73.7134C67.9585 74.3003 68.4307 74.9736 68.7383 75.7334C69.0449 76.4931 69.1973 77.2871 69.1973 78.1133V87.7934C69.1973 88.4604 69.211 89.0733 69.2378 89.6338C69.2647 90.1934 69.3038 90.7275 69.3584 91.2334H66.1578C66.0787 90.2734 66.0382 89.3135 66.0382 88.353H65.9575C65.1583 89.5805 64.2111 90.4473 63.1182 90.9531C62.0244 91.4599 60.7574 91.7134 59.3184 91.7134C58.438 91.7134 57.5982 91.5938 56.7974 91.3535C55.998 91.1133 55.2984 90.7534 54.6978 90.2734C54.0987 89.7934 53.6235 89.2001 53.2784 88.4936C52.9317 87.7876 52.7583 86.9668 52.7583 86.0331C52.7583 84.8071 53.0318 83.7803 53.5787 82.9536C54.124 82.1269 54.8712 81.4531 55.8184 80.9331C56.7647 80.4135 57.8707 80.04 59.1378 79.813C60.4048 79.5874 61.7583 79.4731 63.1978 79.4731H65.8379V78.6738C65.8379 78.1934 65.7442 77.7134 65.5587 77.2329C65.3707 76.7534 65.0909 76.3203 64.7173 75.9331C64.3438 75.5474 63.8775 75.2403 63.3184 75.0131C62.7583 74.7871 62.0918 74.6733 61.3179 74.6733C60.6245 74.6733 60.0177 74.7408 59.4976 74.8735C58.9776 75.0073 58.5039 75.1733 58.0782 75.3735C57.6509 75.5738 57.2637 75.8076 56.9185 76.0738C56.5718 76.3403 56.2383 76.5938 55.9175 76.8335L53.7579 74.5933Z" fill="#211D1D"/>
<path d="M73.8374 72.2734H77.437V75.1934H77.5177C77.7569 74.6875 78.0767 74.227 78.477 73.8135C78.8775 73.3999 79.3233 73.0474 79.8174 72.7534C80.3105 72.4604 80.8502 72.227 81.4375 72.0533C82.0235 71.8804 82.6104 71.7939 83.1978 71.7939C83.7838 71.7939 84.3169 71.8735 84.7969 72.0336L84.6368 75.9135C84.3438 75.8335 84.0508 75.767 83.7569 75.7134C83.4639 75.6601 83.1709 75.6333 82.8779 75.6333C81.1177 75.6333 79.77 76.1274 78.8374 77.1133C77.9034 78.1005 77.437 79.6338 77.437 81.7134V91.2334H73.8374V72.2734Z" fill="#211D1D"/>
<path d="M100.945 75.3935H95.7856V83.9931C95.7856 84.5269 95.7989 85.0536 95.8256 85.5738C95.8516 86.0938 95.9516 86.5605 96.126 86.9731C96.2984 87.3871 96.5654 87.7201 96.9258 87.9736C97.2856 88.2275 97.812 88.353 98.5054 88.353C98.9311 88.353 99.3721 88.3135 99.8261 88.2334C100.279 88.1538 100.691 88.0073 101.065 87.7934V91.0738C100.639 91.3135 100.086 91.4795 99.4048 91.5733C98.7251 91.667 98.1988 91.7134 97.8253 91.7134C96.4385 91.7134 95.3658 91.5195 94.605 91.1333C93.8458 90.747 93.2856 90.247 92.9253 89.6338C92.5654 89.0205 92.3516 88.3335 92.2856 87.5733C92.2188 86.8135 92.1855 86.0474 92.1855 85.2734V75.3935H88.0254V72.2734H92.1855V66.9536H95.7856V72.2734H100.945V75.3935Z" fill="#211D1D"/>
<path d="M133.198 77.313C132.531 76.6206 131.83 76.0938 131.098 75.7334C130.364 75.3735 129.49 75.1934 128.478 75.1934C127.491 75.1934 126.63 75.3735 125.898 75.7334C125.164 76.0938 124.55 76.5874 124.057 77.2139C123.564 77.8403 123.19 78.56 122.938 79.3735C122.684 80.1875 122.558 81.0331 122.558 81.9135C122.558 82.7934 122.703 83.6274 122.998 84.4135C123.291 85.2001 123.704 85.8871 124.238 86.4731C124.771 87.0605 125.411 87.52 126.158 87.853C126.904 88.187 127.744 88.353 128.678 88.353C129.69 88.353 130.558 88.1733 131.278 87.8135C131.998 87.4536 132.664 86.9273 133.278 86.2334L135.838 88.7934C134.904 89.8335 133.818 90.5805 132.578 91.0331C131.338 91.4868 130.024 91.7134 128.638 91.7134C127.171 91.7134 125.831 91.4731 124.617 90.9936C123.404 90.5131 122.358 89.8408 121.478 88.9731C120.598 88.1074 119.918 87.0674 119.438 85.853C118.957 84.6406 118.718 83.3003 118.718 81.8335C118.718 80.3671 118.957 79.0205 119.438 77.7934C119.918 76.5674 120.59 75.5131 121.457 74.6338C122.324 73.7534 123.364 73.0669 124.577 72.5733C125.79 72.0805 127.144 71.8335 128.638 71.8335C130.024 71.8335 131.351 72.0805 132.618 72.5733C133.884 73.0669 134.984 73.8203 135.918 74.8335L133.198 77.313Z" fill="#211D1D"/>
<path d="M142.986 81.7534C142.986 82.7134 143.131 83.6005 143.426 84.4135C143.719 85.227 144.133 85.9204 144.666 86.4931C145.2 87.0674 145.853 87.52 146.625 87.853C147.399 88.187 148.266 88.353 149.225 88.353C150.186 88.353 151.051 88.187 151.825 87.853C152.6 87.52 153.253 87.0674 153.786 86.4931C154.32 85.9204 154.733 85.227 155.026 84.4135C155.319 83.6005 155.466 82.7134 155.466 81.7534C155.466 80.7934 155.319 79.9073 155.026 79.0938C154.733 78.2808 154.32 77.5869 153.786 77.0136C153.253 76.4404 152.6 75.9873 151.825 75.6538C151.051 75.3203 150.186 75.1538 149.225 75.1538C148.266 75.1538 147.399 75.3203 146.625 75.6538C145.853 75.9873 145.2 76.4404 144.666 77.0136C144.133 77.5869 143.719 78.2808 143.426 79.0938C143.131 79.9073 142.986 80.7934 142.986 81.7534ZM139.146 81.7534C139.146 80.3671 139.406 79.0733 139.926 77.8735C140.446 76.6733 141.159 75.6201 142.066 74.7139C142.971 73.8071 144.039 73.0933 145.265 72.5733C146.493 72.0533 147.813 71.7939 149.225 71.7939C150.639 71.7939 151.959 72.0533 153.185 72.5733C154.413 73.0933 155.479 73.8071 156.386 74.7139C157.293 75.6201 158.006 76.6733 158.526 77.8735C159.046 79.0733 159.306 80.3671 159.306 81.7534C159.306 83.1401 159.046 84.4404 158.526 85.6538C158.006 86.8671 157.293 87.9204 156.386 88.8135C155.479 89.707 154.413 90.4135 153.185 90.9331C151.959 91.4531 150.639 91.7134 149.225 91.7134C147.813 91.7134 146.493 91.4531 145.265 90.9331C144.039 90.4135 142.971 89.707 142.066 88.8135C141.159 87.9204 140.446 86.8671 139.926 85.6538C139.406 84.4404 139.146 83.1401 139.146 81.7534Z" fill="#211D1D"/>
<path d="M174.797 77.0336C174.371 76.5 173.845 76.0533 173.219 75.6934C172.592 75.333 171.824 75.1538 170.919 75.1538C170.065 75.1538 169.324 75.333 168.699 75.6934C168.072 76.0533 167.759 76.58 167.759 77.2734C167.759 77.833 167.939 78.2871 168.299 78.6333C168.659 78.98 169.085 79.2603 169.579 79.4731C170.071 79.6875 170.599 79.8471 171.159 79.9536C171.719 80.0605 172.199 80.1538 172.599 80.2339C173.372 80.4204 174.099 80.647 174.779 80.9135C175.457 81.1801 176.045 81.5269 176.539 81.9536C177.032 82.3804 177.417 82.9004 177.699 83.5136C177.979 84.1269 178.119 84.8735 178.119 85.7534C178.119 86.8208 177.891 87.7339 177.437 88.4936C176.985 89.2534 176.397 89.8735 175.679 90.353C174.959 90.8335 174.139 91.1801 173.219 91.3935C172.299 91.6064 171.371 91.7134 170.439 91.7134C168.865 91.7134 167.485 91.4731 166.299 90.9936C165.111 90.5131 164.052 89.6338 163.119 88.353L165.837 86.1133C166.425 86.7001 167.079 87.2201 167.799 87.6733C168.519 88.1274 169.399 88.353 170.439 88.353C170.891 88.353 171.352 88.3076 171.819 88.2134C172.285 88.1201 172.699 87.9736 173.059 87.7734C173.419 87.5733 173.711 87.3203 173.939 87.0136C174.165 86.707 174.277 86.3535 174.277 85.9531C174.277 85.4204 174.112 84.9805 173.777 84.6338C173.445 84.2871 173.045 84.0136 172.579 83.8135C172.111 83.6133 171.617 83.4531 171.097 83.3335C170.577 83.2134 170.119 83.1133 169.719 83.0331C168.945 82.8471 168.212 82.6333 167.519 82.3935C166.824 82.1533 166.211 81.8335 165.677 81.4336C165.145 81.0331 164.719 80.5274 164.399 79.913C164.079 79.3003 163.919 78.5405 163.919 77.6333C163.919 76.6474 164.125 75.7871 164.539 75.0536C164.951 74.3208 165.499 73.7134 166.179 73.2334C166.859 72.7534 167.631 72.3935 168.499 72.1533C169.365 71.9135 170.239 71.7939 171.119 71.7939C172.397 71.7939 173.624 72.0336 174.797 72.5131C175.972 72.9936 176.905 73.7934 177.599 74.913L174.797 77.0336Z" fill="#211D1D"/>
<path d="M183.118 72.2734H186.478V75.2339H186.558C186.638 74.9668 186.844 74.6338 187.178 74.2334C187.51 73.8335 187.938 73.4531 188.458 73.0933C188.978 72.7339 189.59 72.4273 190.298 72.1733C191.004 71.9199 191.784 71.7939 192.638 71.7939C194.051 71.7939 195.238 72.0874 196.198 72.6733C197.158 73.2603 197.944 74.1406 198.558 75.3135C199.17 74.1406 200.038 73.2603 201.158 72.6733C202.278 72.0874 203.41 71.7939 204.558 71.7939C206.024 71.7939 207.224 72.0336 208.158 72.5131C209.09 72.9936 209.824 73.6274 210.358 74.4135C210.89 75.2001 211.258 76.0938 211.458 77.0933C211.658 78.0933 211.758 79.1269 211.758 80.1934V91.2334H208.158V80.6733C208.158 79.9536 208.111 79.2603 208.018 78.5938C207.924 77.9273 207.73 77.3408 207.438 76.8335C207.144 76.3276 206.73 75.9204 206.198 75.6133C205.664 75.3071 204.958 75.1538 204.078 75.1538C202.344 75.1538 201.104 75.687 200.358 76.7534C199.61 77.8203 199.238 79.1939 199.238 80.873V91.2334H195.638V81.3135C195.638 80.4073 195.59 79.5805 195.498 78.8335C195.404 78.0869 195.218 77.4399 194.938 76.893C194.658 76.3471 194.258 75.9204 193.738 75.6133C193.218 75.3071 192.518 75.1538 191.638 75.1538C190.998 75.1538 190.378 75.2798 189.778 75.5331C189.178 75.7871 188.65 76.167 188.198 76.6733C187.744 77.1802 187.384 77.8271 187.118 78.6133C186.85 79.4004 186.718 80.3271 186.718 81.3935V91.2334H183.118V72.2734Z" fill="#211D1D"/>
<path d="M220.075 81.7534C220.075 82.7134 220.221 83.6005 220.516 84.4135C220.809 85.227 221.221 85.9204 221.756 86.4931C222.289 87.0674 222.941 87.52 223.715 87.853C224.489 88.187 225.356 88.353 226.315 88.353C227.276 88.353 228.141 88.187 228.915 87.853C229.689 87.52 230.341 87.0674 230.876 86.4931C231.408 85.9204 231.823 85.227 232.115 84.4135C232.409 83.6005 232.555 82.7134 232.555 81.7534C232.555 80.7934 232.409 79.9073 232.115 79.0938C231.823 78.2808 231.408 77.5869 230.876 77.0136C230.341 76.4404 229.689 75.9873 228.915 75.6538C228.141 75.3203 227.276 75.1538 226.315 75.1538C225.356 75.1538 224.489 75.3203 223.715 75.6538C222.941 75.9873 222.289 76.4404 221.756 77.0136C221.221 77.5869 220.809 78.2808 220.516 79.0938C220.221 79.9073 220.075 80.7934 220.075 81.7534ZM216.236 81.7534C216.236 80.3671 216.496 79.0733 217.016 77.8735C217.536 76.6733 218.249 75.6201 219.156 74.7139C220.061 73.8071 221.129 73.0933 222.355 72.5733C223.583 72.0533 224.901 71.7939 226.315 71.7939C227.729 71.7939 229.049 72.0533 230.275 72.5733C231.503 73.0933 232.569 73.8071 233.476 74.7139C234.381 75.6201 235.096 76.6733 235.616 77.8735C236.136 79.0733 236.396 80.3671 236.396 81.7534C236.396 83.1401 236.136 84.4404 235.616 85.6538C235.096 86.8671 234.381 87.9204 233.476 88.8135C232.569 89.707 231.503 90.4135 230.275 90.9331C229.049 91.4531 227.729 91.7134 226.315 91.7134C224.901 91.7134 223.583 91.4531 222.355 90.9331C221.129 90.4135 220.061 89.707 219.156 88.8135C218.249 87.9204 217.536 86.8671 217.016 85.6538C216.496 84.4404 216.236 83.1401 216.236 81.7534Z" fill="#211D1D"/>
<path d="M252.416 77.0336C251.989 76.5 251.461 76.0533 250.835 75.6934C250.209 75.333 249.443 75.1538 248.536 75.1538C247.683 75.1538 246.943 75.333 246.316 75.6934C245.689 76.0533 245.376 76.58 245.376 77.2734C245.376 77.833 245.556 78.2871 245.916 78.6333C246.276 78.98 246.703 79.2603 247.196 79.4731C247.69 79.6875 248.216 79.8471 248.776 79.9536C249.336 80.0605 249.816 80.1538 250.216 80.2339C250.99 80.4204 251.716 80.647 252.396 80.9135C253.075 81.1801 253.663 81.5269 254.156 81.9536C254.649 82.3804 255.036 82.9004 255.315 83.5136C255.596 84.1269 255.736 84.8735 255.736 85.7534C255.736 86.8208 255.51 87.7339 255.055 88.4936C254.603 89.2534 254.015 89.8735 253.296 90.353C252.576 90.8335 251.756 91.1801 250.835 91.3935C249.916 91.6064 248.989 91.7134 248.056 91.7134C246.483 91.7134 245.103 91.4731 243.916 90.9936C242.729 90.5131 241.669 89.6338 240.736 88.353L243.456 86.1133C244.043 86.7001 244.696 87.2201 245.416 87.6733C246.136 88.1274 247.016 88.353 248.056 88.353C248.509 88.353 248.969 88.3076 249.436 88.2134C249.901 88.1201 250.315 87.9736 250.676 87.7734C251.036 87.5733 251.329 87.3203 251.556 87.0136C251.783 86.707 251.896 86.3535 251.896 85.9531C251.896 85.4204 251.729 84.9805 251.396 84.6338C251.063 84.2871 250.663 84.0136 250.196 83.8135C249.73 83.6133 249.236 83.4531 248.716 83.3335C248.196 83.2134 247.736 83.1133 247.336 83.0331C246.563 82.8471 245.83 82.6333 245.136 82.3935C244.443 82.1533 243.829 81.8335 243.296 81.4336C242.761 81.0331 242.336 80.5274 242.016 79.913C241.696 79.3003 241.536 78.5405 241.536 77.6333C241.536 76.6474 241.743 75.7871 242.156 75.0536C242.569 74.3208 243.116 73.7134 243.796 73.2334C244.476 72.7534 245.25 72.3935 246.116 72.1533C246.981 71.9135 247.856 71.7939 248.736 71.7939C250.016 71.7939 251.243 72.0336 252.416 72.5131C253.59 72.9936 254.523 73.7934 255.216 74.913L252.416 77.0336Z" fill="#211D1D"/>
</g>
<defs>
<linearGradient id="paint0_linear_8_12598" x1="113.692" y1="-5.25635" x2="142.044" y2="60.1121" gradientUnits="userSpaceOnUse">
<stop stop-color="#F5F012"/>
<stop offset="0.215011" stop-color="#2EAA48"/>
<stop offset="0.215205" stop-color="#2EAA48"/>
<stop offset="0.382318" stop-color="#51AEE5"/>
<stop offset="0.382468" stop-color="#51AEE5"/>
<stop offset="0.536514" stop-color="#2D3591"/>
<stop offset="0.536653" stop-color="#2D3591"/>
<stop offset="0.712036" stop-color="#EB1D27"/>
<stop offset="0.712194" stop-color="#EB1D27"/>
<stop offset="0.712883" stop-color="#EB1D27"/>
<stop offset="1" stop-color="#F8A62C"/>
</linearGradient>
<clipPath id="clip0_8_12598">
<rect width="255.887" height="112.025" fill="white"/>
</clipPath>
</defs>
</svg>
